SplineFontDB: 3.0
FontName: KacstOne
FullName: KacstOne
FamilyName: KacstOne
Weight: Regular
Copyright: KACST holds the copyright of the included Arabic font which is donated under GPL by KACST.\nCopyleft 2002, 2003, 2005, 2008, 2009 Free Software Foundation.\nCopyright 2009-2011 Khaled Hosny <khaledhosny@eglug.org>.
Version: 5.00
ItalicAngle: 0
UnderlinePosition: -400
UnderlineWidth: 100
Ascent: 1638
Descent: 410
LayerCount: 2
Layer: 0 1 "Back"  1
Layer: 1 1 "Fore"  0
XUID: [1021 678 237379909 10861362]
FSType: 0
OS2Version: 2
OS2_WeightWidthSlopeOnly: 1
OS2_UseTypoMetrics: 1
CreationTime: 1163511077
ModificationTime: 1310774582
PfmFamily: 33
TTFWeight: 400
TTFWidth: 5
LineGap: 59
VLineGap: 0
OS2TypoAscent: 2000
OS2TypoAOffset: 0
OS2TypoDescent: -700
OS2TypoDOffset: 0
OS2TypoLinegap: 59
OS2WinAscent: 10
OS2WinAOffset: 1
OS2WinDescent: 10
OS2WinDOffset: 1
HheadAscent: 2000
HheadAOffset: 0
HheadDescent: -700
HheadDOffset: 0
OS2Vendor: 'kcst'
Lookup: 1 0 0 "'init' Initial Forms"  {"'init' Initial Forms subtable"  } ['init' ('arab' <'dflt' > ) ]
Lookup: 1 0 0 "'medi' Medial Forms"  {"'medi' Medial Forms subtable"  } ['medi' ('arab' <'dflt' > ) ]
Lookup: 1 0 0 "'fina' Terminal Forms"  {"'fina' Terminal Forms subtable"  } ['fina' ('arab' <'dflt' > ) ]
Lookup: 4 8 1 "'rlig' Lam Alef Ligatures"  {"'rlig' Lam Alef Ligatures subtable"  } ['rlig' ('DFLT' <'dflt' > 'arab' <'dflt' > ) ]
Lookup: 4 8 1 "'liga' Regular Ligatures"  {"'liga' Regular Ligatures subtable"  } ['liga' ('arab' <'dflt' > ) ]
Lookup: 4 0 1 "'liga' Regular Ligatures (no ignore mark)"  {"'liga' Regular Ligatures (no ignore mark) subtable"  } ['liga' ('arab' <'dflt' > ) ]
Lookup: 4 0 1 "'liga' Mark Ligatures"  {"'liga' Mark Ligatures subtable"  } ['liga' ('arab' <'dflt' > ) ]
Lookup: 1 0 0 "'locl' Arabic Localized Forms"  {"'locl' Arabic Localized Forms subtable"  } ['locl' ('arab' <'dflt' > ) ]
Lookup: 1 0 0 "'rtlm' Mirrored forms"  {"'rtlm' Mirrored forms subtable"  } ['rtlm' ('arab' <'dflt' > ) ]

StartChar: uni060C
Encoding: 1548 1548 1
Width: 586
Flags: MW
LayerCount: 2
Fore
SplineSet
219 30 m 0,0,1
 139 95 139 95 139 246 c 0,2,3
 139 398 139 398 318 577 c 0,4,5
 359 618 359 618 404 645 c 1,6,-1
 428 606 l 1,7,8
 299 510 299 510 247 395 c 0,9,10
 223 342 223 342 224 305 c 0,11,12
 226 249 226 249 250 213 c 1,13,14
 287 275 287 275 354 271 c 0,15,16
 470 265 470 265 470 138 c 0,17,18
 470 136 470 136 470 135 c 0,19,20
 470 -7 470 -7 349 -7 c 0,21,22
 264 -7 264 -7 219 30 c 0,0,1
EndSplineSet
EndChar

StartChar: uni061B
Encoding: 1563 1563 2
Width: 664
Flags: MW
LayerCount: 2
Fore
SplineSet
355 188 m 0,0,1
 407 188 407 188 444 149.5 c 128,-1,2
 481 111 481 111 481 58 c 128,-1,3
 481 5 481 5 445 -29.5 c 128,-1,4
 409 -64 409 -64 352 -64 c 0,5,6
 299 -64 299 -64 264 -29.5 c 128,-1,7
 229 5 229 5 229 58 c 0,8,9
 229 112 229 112 265.5 150 c 128,-1,10
 302 188 302 188 355 188 c 0,0,1
238 484 m 0,11,12
 158 549 158 549 158 700 c 0,13,14
 158 852 158 852 337 1031 c 0,15,16
 378 1072 378 1072 422 1099 c 1,17,-1
 447 1060 l 1,18,19
 318 964 318 964 265 849 c 0,20,21
 241 796 241 796 242 759 c 0,22,23
 244 703 244 703 268 667 c 1,24,25
 305 728 305 728 367 725 c 0,26,27
 488 719 488 719 488 592 c 0,28,29
 488 590 488 590 488 589 c 0,30,31
 488 447 488 447 362 447 c 0,32,33
 283 447 283 447 238 484 c 0,11,12
EndSplineSet
EndChar

StartChar: uni061F
Encoding: 1567 1567 3
Width: 730
Flags: MW
LayerCount: 2
Fore
SplineSet
378 1360 m 0,0,1
 519 1360 519 1360 614.5 1275 c 128,-1,2
 710 1190 710 1190 710 1063 c 0,3,4
 710 1002 710 1002 685 969.5 c 128,-1,5
 660 937 660 937 612 937 c 0,6,7
 575 937 575 937 551.5 960 c 128,-1,8
 528 983 528 983 528 1020 c 0,9,10
 528 1054 528 1054 567 1103.5 c 128,-1,11
 606 1153 606 1153 606 1172 c 0,12,13
 606 1221 606 1221 546 1260 c 128,-1,14
 486 1299 486 1299 412 1299 c 0,15,16
 320 1299 320 1299 255 1227.5 c 128,-1,17
 190 1156 190 1156 190 1053 c 0,18,19
 190 907 190 907 266 734 c 0,20,21
 272 721 272 721 293 673.5 c 128,-1,22
 314 626 314 626 319 613.5 c 128,-1,23
 324 601 324 601 339 563 c 128,-1,24
 354 525 354 525 358 505 c 128,-1,25
 362 485 362 485 370 450.5 c 128,-1,26
 378 416 378 416 381 383 c 128,-1,27
 384 350 384 350 384 312 c 1,28,-1
 350 312 l 1,29,30
 333 415 333 415 303.5 485 c 128,-1,31
 274 555 274 555 216 627 c 1,32,33
 171 682 171 682 148.5 710 c 128,-1,34
 126 738 126 738 92 787 c 128,-1,35
 58 836 58 836 42 871 c 128,-1,36
 26 906 26 906 14 952 c 128,-1,37
 2 998 2 998 2 1043 c 0,38,39
 2 1187 2 1187 112 1273.5 c 128,-1,40
 222 1360 222 1360 378 1360 c 0,0,1
468 60 m 2,41,42
 468 50 468 50 424 6.5 c 128,-1,43
 380 -37 380 -37 374 -37 c 2,44,-1
 358 -37 l 2,45,46
 350 -37 350 -37 306 6 c 256,47,48
 262 49 262 49 262 57 c 2,49,-1
 262 73 l 2,50,51
 262 81 262 81 307 126.5 c 128,-1,52
 352 172 352 172 360 172 c 2,53,-1
 376 172 l 2,54,55
 384 172 384 172 426 128 c 256,56,57
 468 84 468 84 468 76 c 2,58,-1
 468 60 l 2,41,42
EndSplineSet
EndChar

StartChar: uni0621
Encoding: 1569 1569 4
Width: 880
VWidth: 2940
Flags: MW
AnchorPoint: "Below" 468 -102 basechar 0
AnchorPoint: "Above" 370 874 basechar 0
LayerCount: 2
Fore
SplineSet
750 282 m 1,0,1
 734 217 734 217 702 141 c 1,2,3
 470 90 470 90 246 -56 c 0,4,5
 172 -104 172 -104 168 -104 c 0,6,7
 132 -100 132 -100 132 -94 c 0,8,9
 132 -93 132 -93 130 -94 c 1,10,11
 174 -8 174 -8 324 105 c 1,12,-1
 326 140 l 1,13,14
 180 288 180 288 164 364 c 1,15,16
 210 505 210 505 268 561 c 0,17,18
 402 692 402 692 600 615 c 1,19,-1
 600 480 l 1,20,21
 382 564 382 564 256 444 c 1,22,23
 328 280 328 280 530 213 c 1,24,25
 648 264 648 264 750 282 c 1,0,1
EndSplineSet
EndChar

StartChar: uni0640
Encoding: 1600 1600 30
Width: 356
Flags: MW
LayerCount: 2
Fore
SplineSet
-100 239 m 1,0,-1
 356 239 l 1,1,-1
 356 0 l 1,2,-1
 -100 0 l 1,3,-1
 -100 239 l 1,0,-1
EndSplineSet
EndChar

StartChar: uni064B
Encoding: 1611 1611 41
Width: 0
VWidth: 2091
GlyphClass: 4
Flags: MW
AnchorPoint: "MkMkAbove" 297 1667 mark 0
AnchorPoint: "AboveLig" 260 1656 mark 0
AnchorPoint: "Above" 260 1656 mark 0
LayerCount: 2
Fore
SplineSet
448 2049 m 1,0,1
 460 1951 460 1951 412 1915 c 2,2,-1
 -7 1604 l 1,3,4
 -10 1661 -10 1661 2 1693 c 0,5,6
 13 1724 13 1724 71 1766 c 2,7,-1
 448 2049 l 1,0,1
448 2339 m 1,8,9
 460 2241 460 2241 412 2205 c 2,10,-1
 -7 1894 l 1,11,12
 -10 1951 -10 1951 2 1983 c 0,13,14
 13 2014 13 2014 71 2056 c 2,15,-1
 448 2339 l 1,8,9
EndSplineSet
EndChar

StartChar: uni064C
Encoding: 1612 1612 42
Width: 0
VWidth: 2251
GlyphClass: 4
Flags: MW
AnchorPoint: "MkMkAbove" 290 1287 mark 0
AnchorPoint: "AboveLig" 290 1290 mark 0
AnchorPoint: "Above" 290 1290 mark 0
LayerCount: 2
Fore
SplineSet
378 1554 m 1,0,1
 203 1356 203 1356 -34 1313 c 1,2,3
 21 1446 21 1446 21 1611 c 0,4,5
 21 1613 l 0,6,7
 21 1694 21 1694 -52 1694 c 0,8,9
 -115 1694 -115 1694 -126 1580 c 1,10,11
 -141 1623 -141 1623 -141 1654 c 0,12,13
 -141 1658 l 256,14,15
 -141 1822 -141 1822 -36 1824 c 0,16,17
 132 1827 132 1827 76 1430 c 1,18,19
 232 1494 232 1494 308 1592 c 1,20,21
 186 1660 186 1660 186 1763 c 0,22,23
 186 1860 186 1860 269 1967 c 0,24,25
 343 2062 343 2062 424 2048 c 0,26,27
 551 2026 551 2026 557 1883 c 0,28,29
 560 1815 560 1815 460 1664 c 1,30,31
 480 1648 480 1648 519 1619 c 1,32,-1
 507 1470 l 1,33,-1
 378 1554 l 1,0,1
446 1882 m 0,34,35
 407 1937 407 1937 362 1936 c 0,36,37
 272 1934 272 1934 272 1854 c 0,38,39
 272 1790 272 1790 405 1700 c 1,40,41
 487 1830 487 1830 446 1882 c 0,34,35
EndSplineSet
EndChar

StartChar: uni064D
Encoding: 1613 1613 43
Width: 0
VWidth: 3483
GlyphClass: 4
Flags: MW
AnchorPoint: "BelowLig" 160 -425 mark 0
AnchorPoint: "Below" 160 -425 mark 0
LayerCount: 2
Fore
SplineSet
448 -724 m 1,0,1
 460 -822 460 -822 412 -858 c 2,2,-1
 -7 -1169 l 1,3,4
 -10 -1112 -10 -1112 2 -1080 c 0,5,6
 13 -1049 13 -1049 71 -1007 c 2,7,-1
 448 -724 l 1,0,1
448 -434 m 1,8,9
 460 -532 460 -532 412 -568 c 2,10,-1
 -7 -879 l 1,11,12
 -10 -822 -10 -822 2 -790 c 0,13,14
 13 -759 13 -759 71 -717 c 2,15,-1
 448 -434 l 1,8,9
EndSplineSet
EndChar

StartChar: uni064E
Encoding: 1614 1614 44
Width: 0
VWidth: 2170
GlyphClass: 4
Flags: MW
AnchorPoint: "MkMkAbove" 305 1715 mark 0
AnchorPoint: "AboveLig" 305 1715 mark 0
AnchorPoint: "Above" 305 1715 mark 0
LayerCount: 2
Fore
SplineSet
450 2063 m 1,0,1
 462 1965 462 1965 414 1929 c 2,2,-1
 -5 1618 l 1,3,4
 -8 1675 -8 1675 4 1708 c 0,5,6
 15 1739 15 1739 74 1781 c 2,7,-1
 450 2063 l 1,0,1
EndSplineSet
EndChar

StartChar: uni064F
Encoding: 1615 1615 45
Width: 0
VWidth: 2121
GlyphClass: 4
Flags: MW
AnchorPoint: "MkMkAbove" 355 1490 mark 0
AnchorPoint: "AboveLig" 355 1490 mark 0
AnchorPoint: "Above" 355 1490 mark 0
LayerCount: 2
Fore
SplineSet
519 1775 m 1,0,-1
 507 1626 l 1,1,-1
 387 1704 l 1,2,3
 207 1488 207 1488 96 1488 c 0,4,5
 67 1488 67 1488 3 1506 c 1,6,7
 156 1592 156 1592 322 1740 c 1,8,9
 186 1808 186 1808 186 1919 c 0,10,11
 186 2016 186 2016 269 2123 c 0,12,13
 345 2218 345 2218 424 2204 c 0,14,15
 552 2180 552 2180 557 2039 c 0,16,17
 560 1971 560 1971 460 1820 c 1,18,19
 480 1804 480 1804 519 1775 c 1,0,-1
446 2038 m 128,-1,21
 406 2094 406 2094 362 2092 c 0,22,23
 272 2090 272 2090 272 2010 c 0,24,25
 272 1946 272 1946 405 1856 c 1,26,27
 486 1982 486 1982 446 2038 c 128,-1,21
EndSplineSet
EndChar

StartChar: uni0650
Encoding: 1616 1616 46
Width: 0
VWidth: 3446
GlyphClass: 4
Flags: MW
AnchorPoint: "BelowLig" 216 -557 mark 0
AnchorPoint: "Below" 216 -557 mark 0
LayerCount: 2
Fore
SplineSet
450 -577 m 1,0,1
 462 -675 462 -675 414 -711 c 2,2,-1
 -5 -1023 l 1,3,4
 -8 -966 -8 -966 4 -933 c 0,5,6
 15 -902 15 -902 74 -860 c 2,7,-1
 450 -577 l 1,0,1
EndSplineSet
EndChar

StartChar: uni0651
Encoding: 1617 1617 47
Width: 0
VWidth: 2264
GlyphClass: 4
Flags: MW
AnchorPoint: "MkMkAbove" 8 1827 basemark 0
AnchorPoint: "AboveLig" -32 1330 mark 0
AnchorPoint: "Above" -32 1330 mark 0
LayerCount: 2
Fore
SplineSet
126 1424 m 0,0,1
 27 1402 27 1402 -56 1477 c 1,2,3
 -104 1288 -104 1288 -218 1288 c 0,4,5
 -408 1288 -408 1288 -366 1608 c 1,6,-1
 -314 1619 l 1,7,8
 -314 1450 -314 1450 -204 1454 c 0,9,10
 -81 1459 -81 1459 -98 1740 c 1,11,-1
 -48 1753 l 1,12,13
 -3 1589 -3 1589 96 1598 c 0,14,15
 201 1608 201 1608 176 1810 c 1,16,-1
 229 1833 l 1,17,18
 296 1461 296 1461 126 1424 c 0,0,1
EndSplineSet
EndChar

StartChar: uni0652
Encoding: 1618 1618 48
Width: 0
VWidth: 2269
GlyphClass: 4
Flags: MW
AnchorPoint: "MkMkAbove" 321 1392 mark 0
AnchorPoint: "AboveLig" 208 1364 mark 0
AnchorPoint: "Above" 208 1364 mark 0
LayerCount: 2
Fore
SplineSet
425 1711 m 0,0,1
 425 1614 425 1614 356 1540 c 0,2,3
 286 1465 286 1465 199 1465 c 0,4,5
 38 1466 38 1466 38 1647 c 0,6,7
 38 1772 38 1772 95 1852 c 0,8,9
 153 1933 153 1933 243 1933 c 0,10,11
 310 1933 310 1933 369 1864 c 0,12,13
 425 1800 425 1800 425 1711 c 0,0,1
343 1675 m 0,14,15
 343 1714 343 1714 278 1761 c 0,16,17
 220 1804 220 1804 174 1804 c 0,18,19
 87 1804 87 1804 87 1702 c 0,20,21
 87 1614 87 1614 222 1614 c 0,22,23
 343 1614 343 1614 343 1675 c 0,14,15
EndSplineSet
EndChar

StartChar: uni0660
Encoding: 1632 1632 49
Width: 900
VWidth: 2380
Flags: MW
LayerCount: 2
Fore
SplineSet
609 510 m 1,0,-1
 524 217 l 1,1,-1
 291 361 l 1,2,-1
 375 654 l 1,3,-1
 609 510 l 1,0,-1
EndSplineSet
EndChar

StartChar: uni0661
Encoding: 1633 1633 50
Width: 900
VWidth: 2372
Flags: MW
LayerCount: 2
Fore
SplineSet
611 -23 m 8,0,1
 577 -187 577 -187 550 -25 c 0,2,3
 502 264 502 264 427 480 c 0,4,5
 358 679 358 679 264 816 c 1,6,7
 314 960 314 960 352 1078 c 1,8,9
 370 1072 370 1072 413 1007 c 0,10,11
 536 825 536 825 591 600 c 0,12,13
 637 413 637 413 635 196 c 0,14,15
 635 96 635 96 611 -23 c 8,0,1
EndSplineSet
EndChar

StartChar: uni0662
Encoding: 1634 1634 51
Width: 900
VWidth: 2371
Flags: MW
LayerCount: 2
Fore
SplineSet
732 1061 m 2,0,-1
 682 875 l 2,1,2
 680 867 680 867 664 871 c 0,3,4
 528 912 528 912 405 886 c 0,5,6
 293 862 293 862 276 802 c 0,7,8
 266 767 266 767 310 644 c 0,9,10
 317 625 317 625 402 457 c 24,11,12
 562 137 562 137 492 -98 c 1,13,14
 462 -163 462 -163 445 -102 c 0,15,16
 362 188 362 188 256 372 c 24,17,18
 111 624 111 624 200 863 c 1,19,20
 248 978 248 978 328 1039 c 0,21,22
 397 1091 397 1091 492 1103 c 0,23,24
 634 1120 634 1120 728 1080 c 0,25,26
 736 1077 736 1077 732 1061 c 2,0,-1
EndSplineSet
EndChar

StartChar: uni0663
Encoding: 1635 1635 52
Width: 900
VWidth: 2369
Flags: MW
LayerCount: 2
Fore
SplineSet
718 954 m 0,0,1
 770 954 770 954 815 1073 c 0,2,3
 828 1107 828 1107 842 1104 c 0,4,5
 864 1100 864 1100 859 1049 c 24,6,7
 848 922 848 922 817 833 c 0,8,9
 768 687 768 687 668 687 c 0,10,11
 599 687 599 687 515 753 c 1,12,-1
 500 750 l 1,13,14
 436 670 436 670 344 638 c 1,15,-1
 335 617 l 1,16,17
 445 79 445 79 378 -93 c 0,18,19
 338 -202 338 -202 324 -90 c 24,20,21
 258 480 258 480 40 905 c 1,22,23
 89 1023 89 1023 141 1091 c 1,24,-1
 210 1001 l 1,25,26
 306 881 306 881 363 886 c 0,27,28
 484 896 484 896 549 1116 c 1,29,30
 586 1158 586 1158 596 1112 c 0,31,32
 625 955 625 955 718 954 c 0,0,1
EndSplineSet
EndChar

StartChar: uni0664
Encoding: 1636 1636 53
Width: 900
VWidth: 2370
Flags: MW
LayerCount: 2
Fore
SplineSet
626 -104 m 1,0,-1
 620 -104 l 2,1,2
 567 -104 567 -104 418 -56 c 16,3,4
 210 12 210 12 211 96 c 0,5,6
 211 100 211 100 211 102 c 0,7,8
 211 193 211 193 415 436 c 1,9,10
 425 486 425 486 297 554 c 0,11,12
 203 605 203 605 203 678 c 0,13,14
 203 715 203 715 232 782 c 1,15,16
 360 1028 360 1028 547 1093 c 1,17,18
 523 927 l 1,19,20
 343 873 343 873 343 818 c 0,21,-1
 343 817 l 8,22,23
 343 788 343 788 564 676 c 0,24,25
 601 658 601 658 600 634 c 0,26,27
 596 564 596 564 426 388 c 16,28,29
 355 315 355 315 355 259 c 0,30,31
 355 245 355 245 360 231 c 1,32,-1
 364 224 l 1,33,34
 482 156 482 156 684 106 c 0,35,36
 690 104 690 104 697 102 c 1,37,-1
 626 -104 l 1,0,-1
EndSplineSet
EndChar

StartChar: uni0665
Encoding: 1637 1637 54
Width: 900
VWidth: 2365
Flags: MW
LayerCount: 2
Fore
SplineSet
654 472 m 0,0,1
 520 717 520 717 379 716 c 0,2,3
 377 716 l 0,4,5
 346 720 346 720 296 624 c 0,6,7
 248 530 248 530 248 464 c 0,8,9
 247 327 247 327 452 328 c 0,10,11
 563 328 563 328 627 366 c 0,12,13
 668 390 668 390 668 425 c 0,14,15
 667 448 667 448 654 472 c 0,0,1
773 549 m 0,16,17
 773 481 773 481 743 353 c 0,18,19
 715 238 715 238 679 205 c 1,20,21
 529 88 529 88 383 88 c 0,22,23
 250 88 250 88 175 174 c 0,24,25
 127 228 127 228 127 334 c 0,26,27
 127 513 127 513 251 737 c 0,28,29
 372 955 372 955 471 955 c 0,30,31
 541 955 541 955 630 852 c 0,32,33
 773 687 773 687 773 549 c 0,16,17
EndSplineSet
EndChar

StartChar: uni0666
Encoding: 1638 1638 55
Width: 900
VWidth: 2366
Flags: MW
LayerCount: 2
Fore
SplineSet
739 -97 m 1,0,1
 710 -79 710 -79 653 34 c 0,2,3
 567 203 567 203 541 419 c 0,4,5
 516 634 516 634 546 807 c 1,6,7
 302 763 302 763 222 798 c 0,8,9
 116 847 116 847 109 952 c 0,10,11
 106 990 106 990 140 1127 c 1,12,-1
 210 1083 l 2,13,14
 330 1006 330 1006 521 1041 c 0,15,16
 574 1051 574 1051 636 1067 c 1,17,-1
 638 1067 l 1,18,-1
 631 1032 l 1,19,20
 563 663 563 663 670 379 c 0,21,22
 719 250 719 250 791 155 c 1,23,-1
 739 -97 l 1,0,1
EndSplineSet
EndChar

StartChar: uni0667
Encoding: 1639 1639 56
Width: 900
VWidth: 2367
Flags: MW
LayerCount: 2
Fore
SplineSet
857 1075 m 1,0,-1
 878 886 l 1,1,2
 632 573 632 573 514 74 c 0,3,4
 483 -57 483 -57 460 -54.5 c 128,-1,5
 437 -52 437 -52 423 32 c 0,6,7
 317 542 317 542 22 822 c 1,8,-1
 53 911 l 2,9,10
 87 1007 87 1007 110 1037 c 1,11,12
 388 652 388 652 476 305 c 1,13,-1
 503 305 l 1,14,15
 631 763 631 763 772 959 c 2,16,-1
 838 1052 l 2,17,18
 851 1069 851 1069 857 1075 c 1,0,-1
EndSplineSet
EndChar

StartChar: uni0668
Encoding: 1640 1640 57
Width: 900
VWidth: 2377
Flags: MW
LayerCount: 2
Fore
SplineSet
43 -103 m 1,0,-1
 22 86 l 1,1,2
 268 399 268 399 386 898 c 0,3,4
 417 1029 417 1029 440 1026.5 c 128,-1,5
 463 1024 463 1024 477 940 c 0,6,7
 583 430 583 430 878 150 c 1,8,-1
 847 61 l 2,9,10
 813 -35 813 -35 790 -65 c 1,11,12
 512 320 512 320 424 667 c 1,13,-1
 397 667 l 1,14,15
 269 209 269 209 128 13 c 2,16,-1
 62 -80 l 2,17,18
 49 -97 49 -97 43 -103 c 1,0,-1
EndSplineSet
EndChar

StartChar: uni0669
Encoding: 1641 1641 58
Width: 900
VWidth: 2373
Flags: MW
LayerCount: 2
Fore
SplineSet
493 671 m 1,0,1
 466 879 466 879 369 878 c 0,2,3
 292 878 292 878 259 746 c 1,4,5
 261 654 261 654 493 671 c 1,0,1
718 -141 m 1,6,7
 552 -8 552 -8 521 413 c 1,8,9
 519 419 519 419 433 419 c 0,10,11
 367 419 367 419 298 430 c 0,12,13
 103 462 103 462 110 648 c 0,14,15
 114 759 114 759 226 929 c 0,16,17
 341 1103 341 1103 421 1103 c 128,-1,18
 501 1103 501 1103 562 982 c 0,19,20
 610 888 610 888 623 629 c 0,21,22
 643 249 643 249 790 117 c 1,23,24
 747 -37 747 -37 718 -141 c 1,6,7
EndSplineSet
EndChar

StartChar: uni066A
Encoding: 1642 1642 59
Width: 900
Flags: MW
LayerCount: 2
Fore
SplineSet
311.5 862 m 1,0,-1
 145.5 862 l 1,1,-1
 145.5 1042 l 1,2,-1
 311.5 1042 l 1,3,-1
 311.5 862 l 1,0,-1
754.5 1049 m 1,4,-1
 265.5 8 l 1,5,-1
 172.5 8 l 1,6,-1
 661.5 1049 l 1,7,-1
 754.5 1049 l 1,4,-1
752.5 -16 m 1,8,-1
 585.5 -16 l 1,9,-1
 585.5 163 l 1,10,-1
 752.5 163 l 1,11,-1
 752.5 -16 l 1,8,-1
EndSplineSet
EndChar

StartChar: uni066D
Encoding: 1645 1645 60
Width: 815
Flags: MW
LayerCount: 2
Fore
SplineSet
765 1190 m 1,0,-1
 547 1029 l 1,1,-1
 629 770 l 1,2,-1
 408 928 l 1,3,-1
 187 770 l 1,4,-1
 269 1029 l 1,5,-1
 51 1190 l 1,6,-1
 322 1190 l 1,7,-1
 408 1450 l 1,8,-1
 494 1190 l 1,9,-1
 765 1190 l 1,0,-1
EndSplineSet
EndChar

StartChar: uniFD3E
Encoding: 64830 64830 69
Width: 1135
Flags: MW
LayerCount: 2
Fore
SplineSet
1075 -612 m 0,0,1
 1075 -627 1075 -627 1051 -627 c 0,2,3
 975 -627 975 -627 822 -476 c 0,4,5
 621 -280 621 -280 508 23 c 1,6,7
 299 26 299 26 299 78 c 1,8,9
 436 222 436 222 436 301 c 1,10,11
 374 301 374 301 302.5 227.5 c 128,-1,12
 231 154 231 154 221 154 c 0,13,14
 183 154 183 154 166 317 c 1,15,16
 55 371 55 371 55 412 c 0,17,18
 55 458 55 458 160 520 c 1,19,20
 171 676 171 676 209 676 c 1,21,22
 362 532 362 532 436 532 c 1,23,24
 429 609 429 609 358 678 c 128,-1,25
 287 747 287 747 287 756 c 0,26,27
 287 772 287 772 348 791 c 0,28,29
 417 812 417 812 502 815 c 1,30,31
 574 1032 574 1032 697 1203 c 0,32,33
 792 1336 792 1336 901 1422 c 0,34,35
 988 1491 988 1491 1024 1491 c 0,36,37
 1044 1491 1044 1491 1044 1468 c 0,38,39
 1044 1458 1044 1458 971 1377 c 0,40,41
 881 1276 881 1276 824 1169 c 0,42,43
 735 1005 735 1005 705 805 c 1,44,45
 805 789 805 789 805 760 c 1,46,47
 664 618 664 618 664 539 c 1,48,49
 736 539 736 539 879 686 c 1,50,51
 897 686 897 686 916 633 c 128,-1,52
 935 580 935 580 938 522 c 1,53,54
 1044 467 1044 467 1044 422 c 0,55,56
 1044 385 1044 385 944 326 c 1,57,58
 936 166 936 166 889 166 c 1,59,-1
 821 231 l 2,60,61
 752 299 752 299 668 307 c 1,62,63
 668 236 668 236 741.5 164 c 128,-1,64
 815 92 815 92 815 80 c 0,65,66
 815 57 815 57 707 35 c 1,67,68
 739 -128 739 -128 837.5 -301.5 c 128,-1,69
 936 -475 936 -475 1055 -578 c 0,70,71
 1075 -595 1075 -595 1075 -612 c 0,0,1
956 1417 m 1,72,73
 678 1229 678 1229 528 768 c 1,74,75
 407 762 407 762 387 759 c 0,76,77
 362 755 362 755 362 743 c 1,78,-1
 401 705 l 2,79,80
 449 660 449 660 479 600 c 1,81,82
 524 682 524 682 553 682 c 0,83,84
 572 682 572 682 618 600 c 1,85,86
 628 624 628 624 683 673 c 0,87,88
 731 716 731 716 731 750 c 0,89,90
 731 760 731 760 701 766 c 2,91,-1
 655 774 l 1,92,93
 714 1018 714 1018 753 1109 c 0,94,95
 812 1247 812 1247 956 1417 c 1,72,73
989 428 m 0,96,97
 989 454 989 454 897 485 c 1,98,99
 886 612 886 612 872 612 c 0,100,101
 864 612 864 612 818 565 c 0,102,103
 766 512 766 512 713 492 c 1,104,105
 809 450 809 450 809 418 c 0,106,107
 809 385 809 385 717 350 c 1,108,109
 783 328 783 328 834 280 c 2,110,-1
 879 238 l 1,111,112
 897 238 897 238 897 354 c 1,113,114
 989 406 989 406 989 428 c 0,96,97
680 418 m 0,115,116
 680 471 680 471 642 509 c 128,-1,117
 604 547 604 547 551 547 c 0,118,119
 497 547 497 547 459.5 509 c 128,-1,120
 422 471 422 471 422 418 c 0,121,122
 422 366 422 366 459.5 329.5 c 128,-1,123
 497 293 497 293 551 293 c 0,124,125
 604 293 604 293 642 329.5 c 128,-1,126
 680 366 680 366 680 418 c 0,115,116
387 348 m 1,127,128
 293 390 293 390 293 422 c 0,129,130
 293 456 293 456 385 489 c 1,131,132
 358 498 358 498 304 553 c 0,133,134
 257 602 257 602 221 602 c 0,135,136
 203 602 203 602 203 485 c 1,137,138
 111 433 111 433 111 412 c 0,139,140
 111 387 111 387 203 354 c 1,141,142
 214 227 214 227 227 227 c 0,143,144
 235 227 235 227 282 274 c 0,145,146
 334 328 334 328 387 348 c 1,127,128
1001 -571 m 1,147,148
 888 -469 888 -469 800 -315 c 0,149,150
 694 -130 694 -130 664 68 c 1,151,152
 743 75 743 75 743 90 c 1,153,-1
 700 131 l 2,154,155
 649 178 649 178 618 240 c 1,156,157
 581 158 581 158 551 158 c 0,158,159
 511 158 511 158 483 240 c 1,160,161
 455 173 455 173 410 127 c 2,162,-1
 373 86 l 1,163,164
 373 78 373 78 465 68 c 0,165,166
 490 68 490 68 535 72 c 1,167,168
 672 -359 672 -359 1001 -571 c 1,147,148
EndSplineSet
EndChar

StartChar: uniFD3F
Encoding: 64831 64831 70
Width: 1135
Flags: MW
LayerCount: 2
Fore
SplineSet
1079 453 m 0,0,1
 1079 405 1079 405 975 344 c 1,2,3
 964 188 964 188 926 188 c 1,4,5
 773 332 773 332 698 332 c 1,6,7
 706 255 706 255 777 186.5 c 128,-1,8
 848 118 848 118 848 109 c 0,9,10
 848 93 848 93 787 73 c 0,11,12
 718 52 718 52 633 49 c 1,13,14
 561 -168 561 -168 438 -339 c 0,15,16
 343 -472 343 -472 234 -558 c 0,17,18
 147 -627 147 -627 111 -627 c 0,19,20
 90 -627 90 -627 90 -606 c 0,21,22
 90 -596 90 -596 163 -514 c 0,23,24
 253 -412 253 -412 311 -306 c 0,25,26
 399 -142 399 -142 430 59 c 1,27,28
 330 76 330 76 330 104 c 1,29,30
 471 247 471 247 471 326 c 1,31,32
 398 326 398 326 256 178 c 1,33,34
 237 178 237 178 218.5 230.5 c 128,-1,35
 200 283 200 283 197 342 c 1,36,37
 90 398 90 398 90 442 c 0,38,39
 90 480 90 480 190 539 c 1,40,41
 200 698 200 698 246 698 c 1,42,-1
 314 633 l 2,43,44
 383 565 383 565 467 557 c 1,45,46
 467 629 467 629 393 701 c 128,-1,47
 319 773 319 773 319 784 c 0,48,49
 319 807 319 807 428 829 c 1,50,51
 396 993 396 993 297.5 1166 c 128,-1,52
 199 1339 199 1339 80 1442 c 0,53,54
 59 1460 59 1460 59 1475 c 0,55,56
 59 1491 59 1491 84 1491 c 0,57,58
 160 1491 160 1491 313 1341 c 0,59,60
 514 1144 514 1144 627 842 c 1,61,62
 836 839 836 839 836 786 c 1,63,64
 698 642 698 642 698 563 c 1,65,66
 760 563 760 563 832 637 c 128,-1,67
 904 711 904 711 913 711 c 0,68,69
 951 711 951 711 969 547 c 1,70,71
 1079 493 1079 493 1079 453 c 0,0,1
762 778 m 1,72,73
 762 787 762 787 670 797 c 0,74,75
 645 797 645 797 600 793 c 1,76,77
 460 1223 460 1223 133 1436 c 1,78,79
 247 1331 247 1331 335 1178 c 0,80,81
 441 993 441 993 471 797 c 1,82,83
 391 790 391 790 391 774 c 1,84,-1
 434 733 l 2,85,86
 486 687 486 687 516 625 c 1,87,88
 555 707 555 707 584 707 c 0,89,90
 624 707 624 707 651 625 c 1,91,92
 679 691 679 691 724 737 c 2,93,-1
 762 778 l 1,72,73
1024 453 m 0,94,95
 1024 476 1024 476 932 510 c 1,96,97
 921 637 921 637 907 637 c 0,98,99
 899 637 899 637 853 590 c 0,100,101
 801 536 801 536 748 516 c 1,102,103
 842 474 842 474 842 442 c 0,104,105
 842 408 842 408 750 375 c 1,106,107
 777 366 777 366 830 311 c 0,108,109
 877 262 877 262 913 262 c 0,110,111
 932 262 932 262 932 379 c 1,112,113
 1024 433 1024 433 1024 453 c 0,94,95
713 446 m 0,114,115
 713 498 713 498 675 534.5 c 128,-1,116
 637 571 637 571 584 571 c 256,117,118
 531 571 531 571 493 534.5 c 128,-1,119
 455 498 455 498 455 446 c 0,120,121
 455 393 455 393 493 355 c 128,-1,122
 531 317 531 317 584 317 c 256,123,124
 637 317 637 317 675 355 c 128,-1,125
 713 393 713 393 713 446 c 0,114,115
422 373 m 1,126,127
 326 413 326 413 326 446 c 0,128,129
 326 481 326 481 418 514 c 1,130,131
 351 536 351 536 300 584 c 2,132,-1
 256 627 l 1,133,134
 238 627 238 627 238 510 c 1,135,136
 145 458 145 458 145 436 c 0,137,138
 145 410 145 410 238 379 c 1,139,140
 249 252 249 252 262 252 c 0,141,142
 270 252 270 252 317 299 c 0,143,144
 369 353 369 353 422 373 c 1,126,127
772 121 m 1,145,-1
 733 160 l 2,146,147
 686 204 686 204 655 264 c 1,148,149
 612 182 612 182 582 182 c 0,150,151
 562 182 562 182 516 264 c 1,152,153
 494 209 494 209 446 160 c 2,154,-1
 403 115 l 1,155,156
 403 105 403 105 434 98 c 0,157,158
 456 94 456 94 479 90 c 1,159,160
 422 -153 422 -153 382 -246 c 0,161,162
 323 -382 323 -382 178 -553 c 1,163,164
 458 -364 458 -364 606 96 c 1,165,166
 727 102 727 102 749.5 105.5 c 128,-1,167
 772 109 772 109 772 121 c 1,145,-1
EndSplineSet
EndChar

StartChar: uniFDF2
Encoding: 65010 65010 71
Width: 1918
Flags: MW
AnchorPoint: "Below" 156 -41 basechar 0
AnchorPoint: "Above" 296 1162 basechar 0
LayerCount: 2
Fore
SplineSet
867 1611 m 1,0,1
 901 1466 901 1466 881 1360 c 1,2,-1
 874 1357 l 9,3,4
 866 1461 866 1461 813 1527 c 1,5,-1
 867 1611 l 1,0,1
1068 1272 m 0,6,7
 1068 1096 1068 1096 959 1097 c 0,8,9
 921 1097 921 1097 892 1119 c 1,10,11
 884 1082 884 1082 851 1056 c 0,12,13
 817 1029 817 1029 782 1029 c 0,14,15
 697 1029 697 1029 697 1135 c 0,16,17
 697 1166 697 1166 721 1247 c 1,18,-1
 744 1252 l 1,19,20
 744 1136 744 1136 786 1136 c 0,21,22
 852 1136 852 1136 880 1305 c 1,23,-1
 898 1312 l 1,24,25
 922 1209 922 1209 960 1209 c 0,26,27
 1019 1209 1019 1209 1029 1362 c 1,28,-1
 1053 1373 l 1,29,30
 1068 1309 1068 1309 1068 1272 c 0,6,7
1421 -0 m 0,31,32
 1415 0 1415 0 645 -1 c 0,33,34
 573 -1 573 -1 533 78 c 0,35,36
 504 136 504 136 481 276 c 1,37,-1
 455 279 l 1,38,39
 386 116 386 116 365 110 c 1,40,41
 69 150 69 150 25 277 c 0,42,43
 17 301 17 301 81 439 c 0,44,45
 136 559 136 559 183 593 c 1,46,47
 245 624 245 624 438 702 c 1,48,-1
 446 715 l 1,49,-1
 440 808 l 1,50,51
 476 846 476 846 550 912 c 1,52,53
 552 898 552 898 558 782 c 0,54,55
 563 660 563 660 576 422 c 0,56,57
 582 307 582 307 602 269 c 0,58,59
 619 237 619 237 679 237 c 1,60,-1
 878 241 l 1,61,-1
 890 255 l 1,62,63
 839 800 839 800 839 802 c 1,64,-1
 983 959 l 1,65,-1
 1052 250 l 1,66,-1
 1065 237 l 1,67,-1
 1322 241 l 1,68,-1
 1334 255 l 1,69,-1
 1334 260 l 1,70,71
 1305 612 1305 612 1270 989 c 1,72,-1
 1426 1150 l 1,73,74
 1498 230 1498 230 1498 214 c 0,75,76
 1506 8 1506 8 1421 -0 c 0,31,32
461 330 m 1,77,-1
 475 343 l 1,78,-1
 457 599 l 1,79,-1
 445 610 l 1,80,81
 186 525 186 525 169 428 c 1,82,83
 264 330 264 330 461 330 c 1,77,-1
EndSplineSet
Refer: 10 1575 N 1 0 0 1 1560 0 2
EndChar

StartChar: uni0627.isol
Encoding: 65165 65165 99
Width: 440
Flags: MW
LayerCount: 2
Fore
SplineSet
168 4 m 1,0,-1
 172 127 l 1,1,2
 168 456 168 456 133 889 c 0,3,4
 126 987 126 987 124 1042 c 1,5,-1
 286 1241 l 1,6,7
 286 1232 286 1232 331 272 c 1,8,9
 296 112 296 112 168 4 c 1,0,-1
EndSplineSet
EndChar

StartChar: uni0627.fina
Encoding: 65166 65166 100
Width: 477
Flags: MW
AnchorPoint: "Below" 291 -249 basechar 0
AnchorPoint: "Above" 217 1229 basechar 0
LayerCount: 2
Fore
SplineSet
344 1 m 2,0,1
 187 1 187 1 169 236 c 1,2,-1
 114 1049 l 1,3,4
 276 1201 276 1201 279 1202 c 1,5,-1
 310 399 l 2,6,7
 316 237 316 237 446 237 c 2,8,-1
 477 237 l 1,9,-1
 477 1 l 1,10,-1
 344 1 l 2,0,1
EndSplineSet
EndChar

StartChar: uni062D.isol
Encoding: 65185 65185 119
Width: 1299
Flags: MW
LayerCount: 2
Fore
SplineSet
1183 -452 m 1,0,1
 1095 -530 1095 -530 1038 -576.5 c 128,-1,2
 981 -623 981 -623 952 -643 c 0,3,4
 807 -734 807 -734 635 -734 c 0,5,6
 444 -734 444 -734 319 -609 c 0,7,8
 174 -464 174 -464 174 -206 c 0,9,10
 174 126 174 126 445 418 c 1,11,-1
 434 440 l 1,12,13
 285 440 285 440 272 438 c 0,14,15
 186 425 186 425 121 368 c 1,16,17
 89 336 89 336 105 396 c 1,18,19
 204 679 204 679 397 679 c 0,20,21
 477 679 477 679 653 653 c 256,22,23
 836 626 836 626 915 626 c 2,24,-1
 1097 626 l 1,25,-1
 1102 626 l 1,26,-1
 991 401 l 1,27,28
 917 398 917 398 841 392 c 2,29,-1
 669 379 l 1,30,31
 535 340 535 340 408 205 c 0,32,33
 267 53 267 53 267 -106 c 0,34,35
 267 -499 267 -499 724 -499 c 0,36,37
 893 -499 893 -499 1165 -424 c 1,38,39
 1223 -412 1223 -412 1183 -452 c 1,0,1
EndSplineSet
EndChar

StartChar: uni062D.fina
Encoding: 65186 65186 120
Width: 1352
Flags: MW
AnchorPoint: "Below" 550 184 basechar 0
AnchorPoint: "Above" 637 924 basechar 0
LayerCount: 2
Fore
SplineSet
1073 1 m 2,0,1
 937 1 937 1 866 33 c 0,2,3
 783 71 783 71 783 196 c 0,4,5
 783 241 783 241 802 395 c 1,6,-1
 788 410 l 1,7,8
 575 390 575 390 434 250 c 0,9,10
 288 106 288 106 288 -106 c 0,11,12
 288 -512 288 -512 795 -512 c 0,13,14
 1040 -512 1040 -512 1236 -454 c 1,15,16
 1312 -441 1312 -441 1255 -479 c 1,17,18
 983 -672 l 1,19,20
 848 -750 848 -750 676 -750 c 0,21,22
 487 -750 487 -750 350 -616 c 0,23,24
 194 -465 194 -465 194 -206 c 0,25,26
 194 -29 194 -29 276 141 c 1,27,-1
 276 142 l 1,28,29
 313 221 313 221 362 295.5 c 128,-1,30
 411 370 411 370 475 440 c 1,31,-1
 465 462 l 1,32,-1
 462 462 l 1,33,34
 255 476 255 476 132 368 c 0,35,36
 107 347 107 347 101 353 c 256,37,38
 88 366 88 366 196 510 c 0,39,40
 232 558 232 558 260 585 c 0,41,42
 355 674 355 674 474 674 c 0,43,44
 544 674 544 674 723 645 c 24,45,46
 908 615 908 615 976 615 c 1,47,-1
 1142 626 l 2,48,49
 1141 626 1141 626 1141 623 c 2,50,-1
 1141 622 l 1,51,-1
 1076 442 l 1,52,-1
 1069 442 l 2,53,54
 1006 442 1006 442 956.5 437 c 128,-1,55
 907 432 907 432 867 423 c 1,56,-1
 857 411 l 1,57,58
 851 379 851 379 851 355 c 0,59,60
 851 237 851 237 1050 237 c 2,61,-1
 1352 237 l 1,62,-1
 1352 1 l 1,63,-1
 1073 1 l 2,0,1
EndSplineSet
EndChar

StartChar: uni062D.init
Encoding: 65187 65187 121
Width: 1371
Flags: MW
AnchorPoint: "Below" 586 -250 basechar 0
AnchorPoint: "Above" 577 917 basechar 0
LayerCount: 2
Fore
SplineSet
1271 31 m 2,0,1
 1271 7 1271 7 1226 3 c 0,2,3
 1191 0 1191 0 1122 0 c 2,4,-1
 -53 1 l 2,5,6
 -100 1 -100 1 -100 49 c 2,7,-1
 -100 239 l 1,8,-1
 894 239 l 1,9,-1
 904 261 l 1,10,11
 699 513 699 513 486 513 c 0,12,13
 416 513 416 513 311 471 c 0,14,15
 277 457 277 457 277 472 c 0,16,17
 277 486 277 486 290 502 c 1,18,-1
 291 502 l 1,19,20
 411 667 411 667 578 667 c 0,21,22
 719 667 719 667 867 559 c 0,23,24
 877 551 877 551 1083 352 c 0,25,26
 1201 237 1201 237 1271 237 c 1,27,-1
 1271 31 l 2,0,1
EndSplineSet
EndChar

StartChar: uni062D.medi
Encoding: 65188 65188 122
Width: 1233
Flags: MW
AnchorPoint: "Below" 566 -250 basechar 0
AnchorPoint: "Above" 536 918 basechar 0
LayerCount: 2
Fore
SplineSet
-52 0 m 2,0,1
 -100 0 -100 0 -100 50 c 2,2,-1
 -100 240 l 1,3,-1
 860 240 l 1,4,-1
 870 262 l 1,5,6
 813 332 813 332 758 380 c 0,7,8
 604 514 604 514 451 514 c 0,9,10
 423 514 423 514 276 472 c 0,11,12
 240 462 240 462 242 473 c 0,13,14
 246 487 246 487 257 503 c 1,15,16
 375 668 375 668 544 668 c 0,17,18
 681 668 681 668 832 560 c 0,19,20
 845 550 845 550 1048 353 c 0,21,22
 1166 238 1166 238 1233 238 c 1,23,-1
 1233 0 l 1,24,-1
 -52 0 l 2,0,1
EndSplineSet
EndChar

StartChar: uni062F.isol
Encoding: 65193 65193 127
Width: 848
Flags: MW
LayerCount: 2
Fore
SplineSet
714 41 m 1,0,1
 713 22 713 22 668 13 c 0,2,3
 651 10 651 10 618 8 c 0,4,5
 348 -8 348 -8 243 4 c 1,6,7
 100 24 100 24 100 164 c 0,8,9
 100 187 100 187 104 215 c 0,10,11
 110 264 110 264 137 350 c 0,12,13
 183 500 183 500 169 373 c 1,14,15
 169 253 169 253 300 235 c 0,16,17
 365 226 365 226 456 226 c 0,18,19
 587 226 587 226 620 244 c 1,20,-1
 626 257 l 1,21,22
 611 475 611 475 515 652 c 1,23,-1
 649 828 l 1,24,-1
 650 829 l 1,25,26
 650 830 650 830 650.5 830.5 c 128,-1,27
 651 831 651 831 651.5 830.5 c 128,-1,28
 652 830 652 830 653 828 c 0,29,30
 686 771 686 771 706 692 c 0,31,32
 772 439 772 439 743 243 c 2,33,-1
 714 41 l 1,0,1
EndSplineSet
EndChar

StartChar: uni062F.fina
Encoding: 65194 65194 128
Width: 723
Flags: MW
AnchorPoint: "Below" 412 -250 basechar 0
AnchorPoint: "Above" 403 1286 basechar 0
LayerCount: 2
Fore
SplineSet
725 93 m 1,0,1
 714 9 714 9 713 0 c 1,2,-1
 326 0 l 2,3,4
 270 0 270 0 242 4 c 0,5,6
 100 23 100 23 100 164 c 0,7,8
 100 230 100 230 137 350 c 1,9,10
 190 531 190 531 170 373 c 1,11,12
 170 253 170 253 300 235 c 0,13,14
 368 226 368 226 456 226 c 0,15,16
 587 226 587 226 620 244 c 1,17,-1
 626 257 l 1,18,19
 619 366 619 366 591 463.5 c 128,-1,20
 563 561 563 561 515 652 c 1,21,-1
 649 828 l 1,22,-1
 650 829 l 1,23,24
 650 830 650 830 650.5 830.5 c 128,-1,25
 651 831 651 831 651.5 830.5 c 128,-1,26
 652 830 652 830 653 828 c 0,27,28
 716 715 716 715 738 507 c 1,29,30
 754 337 754 337 725 93 c 1,0,1
EndSplineSet
EndChar

StartChar: uni0631.isol
Encoding: 65197 65197 131
Width: 820
Flags: MW
LayerCount: 2
Fore
SplineSet
720 78 m 0,0,1
 720 -48 720 -48 692.5 -157.5 c 128,-1,2
 665 -267 665 -267 605 -370 c 0,3,4
 473 -604 473 -604 269 -604 c 0,5,6
 178 -604 178 -604 63 -495 c 0,7,8
 -42 -396 -42 -396 -85 -295 c 1,9,-1
 -85 -294 l 1,10,11
 -108 -246 -108 -246 -70 -273 c 0,12,13
 65 -366 65 -366 209 -366 c 0,14,15
 353 -366 353 -366 472 -259 c 0,16,17
 578 -162 578 -162 621 -15 c 1,18,19
 622 26 622 26 552 120 c 0,20,21
 506 184 506 184 435 249 c 1,22,-1
 533 465 l 1,23,24
 720 341 720 341 720 78 c 0,0,1
EndSplineSet
EndChar

StartChar: uni0633.isol
Encoding: 65201 65201 135
Width: 2034
Flags: MW
LayerCount: 2
Fore
SplineSet
1919 44 m 1,0,1
 1918 -2 1918 -2 1769 -2 c 0,2,3
 1551 -2 1551 -2 1390 90 c 1,4,-1
 1374 88 l 1,5,6
 1323 32 1323 32 1277 22 c 24,7,8
 1185 1 1185 1 1089 1 c 1,9,-1
 1076 -9 l 1,10,11
 1052 -120 1052 -120 988 -246 c 1,12,13
 938 -350 938 -350 898 -384 c 1,14,15
 760 -509 760 -509 503 -509 c 0,16,17
 100 -509 100 -509 100 -74 c 0,18,19
 100 147 100 147 226 332 c 0,20,21
 276 405 276 405 243 327 c 1,22,-1
 243 326 l 1,23,24
 157 136 157 136 157 13 c 0,25,26
 157 -278 157 -278 522 -278 c 0,27,28
 820 -278 820 -278 958 -148 c 1,29,-1
 962 -139 l 1,30,31
 962 84 962 84 814 334 c 1,32,33
 960 533 960 533 960 532 c 0,34,35
 994 488 994 488 1024 408 c 0,36,37
 1050 340 1050 340 1070 246 c 1,38,-1
 1083 236 l 1,39,40
 1131 237 1131 237 1191.5 241.5 c 128,-1,41
 1252 246 1252 246 1333 257 c 1,42,-1
 1342 263 l 1,43,44
 1385 327 1385 327 1358 415 c 1,45,-1
 1504 574 l 1,46,47
 1521 450 1521 450 1461 294 c 1,48,-1
 1465 278 l 1,49,50
 1548 216 1548 216 1689 216 c 0,51,52
 1774 216 1774 216 1802 241 c 1,53,-1
 1806 253 l 1,54,55
 1801 358 1801 358 1747 457 c 1,56,-1
 1885 616 l 1,57,58
 1946 512 1946 512 1919 44 c 1,0,1
EndSplineSet
EndChar

StartChar: uni0633.init
Encoding: 65203 65203 137
Width: 1482
Flags: MW
AnchorPoint: "Below" 800 -225 basechar 0
AnchorPoint: "Above" 800 850 basechar 0
LayerCount: 2
Fore
SplineSet
1368 44 m 0,0,1
 1363 -2 1363 -2 1217 -2 c 0,2,3
 1001 -2 1001 -2 838 90 c 1,4,-1
 823 88 l 1,5,6
 777 42 777 42 722 23 c 0,7,8
 656 1 656 1 538 1 c 0,9,10
 404 1 404 1 318 51 c 1,11,-1
 305 51 l 1,12,13
 225 1 225 1 85 1 c 2,14,-1
 -52 1 l 2,15,16
 -69 1 -69 1 -84.5 16 c 128,-1,17
 -100 31 -100 31 -100 49 c 2,18,-1
 -100 237 l 1,19,-1
 132 237 l 2,20,21
 282 237 282 237 325 265 c 1,22,-1
 330 272 l 1,23,24
 340 299 340 299 340 339 c 0,25,26
 340 374 340 374 326 427 c 1,27,-1
 466 586 l 1,28,29
 474 562 474 562 474 499 c 0,30,31
 474 448 474 448 461.5 393 c 128,-1,32
 449 338 449 338 426 275 c 1,33,-1
 434 258 l 1,34,35
 627 198 627 198 795 258 c 1,36,-1
 802 264 l 1,37,38
 821 301 821 301 821 345 c 0,39,40
 821 392 821 392 808 417 c 1,41,-1
 953 574 l 1,42,43
 959 559 959 559 959 508 c 0,44,45
 959 454 959 454 946.5 401 c 128,-1,46
 934 348 934 348 910 294 c 1,47,-1
 914 278 l 1,48,49
 997 216 997 216 1138 216 c 0,50,51
 1223 216 1223 216 1251 241 c 1,52,-1
 1255 253 l 1,53,54
 1250 358 1250 358 1196 457 c 1,55,-1
 1333 616 l 1,56,57
 1401 393 1401 393 1368 44 c 0,0,1
EndSplineSet
EndChar

StartChar: uni0635.isol
Encoding: 65209 65209 143
Width: 2361
Flags: MW
LayerCount: 2
Fore
SplineSet
2153 294 m 0,0,1
 2153 344 2153 344 2046 406 c 1,2,-1
 2045 406 l 1,3,4
 1923 475 1923 475 1805 475 c 0,5,6
 1682 475 1682 475 1526 358 c 0,7,8
 1480 323 1480 323 1404 266 c 1,9,-1
 1411 242 l 1,10,11
 1675 226 1675 226 1824 226 c 2,12,-1
 1874 226 l 1,13,14
 2153 236 2153 236 2153 294 c 0,0,1
2246 463 m 0,15,16
 2261 429 2261 429 2261 352 c 0,17,18
 2261 97 2261 97 2142 41 c 1,19,20
 2035 -11 2035 -11 1612 -11 c 0,21,22
 1406 -11 1406 -11 1090 1 c 1,23,-1
 1076 -9 l 1,24,25
 1063 -69 1063 -69 1041 -127 c 0,26,27
 965 -327 965 -327 898 -384 c 1,28,29
 760 -509 760 -509 503 -509 c 0,30,31
 100 -509 100 -509 100 -74 c 0,32,33
 100 147 100 147 226 332 c 0,34,35
 276 404 276 404 245 327 c 1,36,-1
 245 326 l 1,37,38
 159 137 159 137 159 13 c 0,39,40
 159 -278 159 -278 522 -278 c 0,41,42
 820 -278 820 -278 958 -148 c 1,43,-1
 962 -139 l 1,44,45
 962 84 962 84 814 334 c 1,46,-1
 960 530 l 1,47,48
 1024 451 1024 451 1073 246 c 1,49,-1
 1086 236 l 1,50,51
 1239 236 1239 236 1375 363 c 1,52,-1
 1375 364 l 1,53,-1
 1626 587 l 2,54,55
 1760 706 1760 706 1869 706 c 0,56,57
 1957 706 1957 706 2090 612 c 0,58,59
 2219 525 2219 525 2246 463 c 0,15,16
EndSplineSet
EndChar

StartChar: uni0635.fina
Encoding: 65210 65210 144
Width: 2241
Flags: MW
AnchorPoint: "Below" 1376 -250 basechar 0
AnchorPoint: "Above" 1476 1000 basechar 0
LayerCount: 2
Fore
SplineSet
2153 294 m 0,0,1
 2153 344 2153 344 2046 406 c 1,2,-1
 2045 406 l 1,3,4
 1923 475 1923 475 1805 475 c 0,5,6
 1681 475 1681 475 1590 406 c 0,7,8
 1556 380 1556 380 1404 266 c 1,9,-1
 1411 242 l 1,10,11
 1675 226 1675 226 1824 226 c 2,12,-1
 1874 226 l 1,13,14
 2153 236 2153 236 2153 294 c 0,0,1
2246 463 m 0,15,16
 2261 429 2261 429 2261 352 c 0,17,18
 2261 93 2261 93 2193 1 c 1,19,-1
 1089 1 l 1,20,-1
 1076 -9 l 1,21,22
 1063 -69 1063 -69 1041 -127 c 0,23,24
 965 -327 965 -327 898 -384 c 1,25,26
 760 -509 760 -509 503 -509 c 0,27,28
 100 -509 100 -509 100 -74 c 0,29,30
 100 147 100 147 226 332 c 0,31,32
 280 411 280 411 259 361 c 0,33,34
 253 347 253 347 245 327 c 1,35,-1
 245 326 l 1,36,37
 159 137 159 137 159 13 c 0,38,39
 159 -278 159 -278 522 -278 c 0,40,41
 820 -278 820 -278 958 -148 c 1,42,-1
 962 -139 l 1,43,44
 962 84 962 84 814 334 c 1,45,-1
 960 530 l 1,46,47
 1024 451 1024 451 1073 246 c 1,48,-1
 1086 236 l 1,49,50
 1239 236 1239 236 1375 363 c 1,51,-1
 1375 364 l 1,52,-1
 1626 587 l 2,53,54
 1760 706 1760 706 1869 706 c 0,55,56
 1957 706 1957 706 2090 612 c 0,57,58
 2219 525 2219 525 2246 463 c 0,15,16
EndSplineSet
EndChar

StartChar: uni0635.init
Encoding: 65211 65211 145
Width: 1990
Flags: MW
AnchorPoint: "Above" 1116 1000 basechar 0
AnchorPoint: "Below" 800 -250 basechar 0
LayerCount: 2
Fore
SplineSet
1782 293 m 0,0,1
 1782 338 1782 338 1673 402 c 0,2,3
 1612 437 1612 437 1552.5 455.5 c 128,-1,4
 1493 474 1493 474 1435 474 c 0,5,6
 1311 474 1311 474 1220 405 c 0,7,8
 1203 392 1203 392 1156.5 357 c 128,-1,9
 1110 322 1110 322 1034 265 c 1,10,-1
 1041 241 l 1,11,12
 1170 233 1170 233 1269.5 229 c 128,-1,13
 1369 225 1369 225 1452 225 c 2,14,-1
 1503 225 l 2,15,16
 1572 227 1572 227 1651 237 c 0,17,18
 1782 257 1782 257 1782 293 c 0,0,1
1876 462 m 0,19,20
 1890 425 1890 425 1890 351 c 0,21,22
 1890 90 1890 90 1763 38 c 0,23,24
 1663 -3 1663 -3 1382 -3 c 0,25,26
 1079 -3 1079 -3 899 -1.5 c 128,-1,27
 719 0 719 0 661 2 c 0,28,29
 543 7 543 7 471 21.5 c 128,-1,30
 399 36 399 36 370 58 c 1,31,-1
 353 58 l 1,32,33
 284 1 284 1 116 1 c 2,34,-1
 -51 1 l 2,35,36
 -100 1 -100 1 -100 49 c 2,37,-1
 -100 237 l 1,38,-1
 93 237 l 2,39,40
 335 237 335 237 363 265 c 2,41,-1
 366 268 l 1,42,43
 379 293 379 293 379 334 c 0,44,45
 379 368 379 368 362 424 c 1,46,-1
 497 589 l 1,47,48
 506 560 506 560 506 499 c 0,49,50
 506 382 506 382 461 277 c 1,51,-1
 470 260 l 1,52,53
 533 235 533 235 716 235 c 0,54,55
 873 235 873 235 1009 362 c 1,56,-1
 1257 586 l 2,57,58
 1389 705 1389 705 1499 705 c 0,59,60
 1584 705 1584 705 1720 611 c 0,61,62
 1855 518 1855 518 1876 462 c 0,19,20
EndSplineSet
EndChar

StartChar: uni0635.medi
Encoding: 65212 65212 146
Width: 1758
Flags: MW
AnchorPoint: "Above" 946 1000 basechar 0
AnchorPoint: "Below" 800 -250 basechar 0
LayerCount: 2
Fore
SplineSet
1670 293 m 0,0,1
 1670 338 1670 338 1561 402 c 0,2,3
 1500 437 1500 437 1440.5 455.5 c 128,-1,4
 1381 474 1381 474 1323 474 c 0,5,6
 1199 474 1199 474 1108 405 c 0,7,8
 1074 379 1074 379 922 265 c 1,9,-1
 929 241 l 1,10,11
 1058 233 1058 233 1157.5 229 c 128,-1,12
 1257 225 1257 225 1340 225 c 2,13,-1
 1391 225 l 2,14,15
 1460 227 1460 227 1539 237 c 0,16,17
 1670 257 1670 257 1670 293 c 0,0,1
1764 462 m 0,18,19
 1778 425 1778 425 1778 351 c 0,20,21
 1778 89 1778 89 1674 -3 c 1,22,-1
 1270 -3 l 2,23,24
 967 -3 967 -3 787 -1.5 c 128,-1,25
 607 0 607 0 549 2 c 0,26,27
 431 7 431 7 359 21.5 c 128,-1,28
 287 36 287 36 258 58 c 1,29,-1
 241 58 l 1,30,31
 172 1 172 1 4 1 c 2,32,-1
 -51 1 l 2,33,34
 -100 1 -100 1 -100 49 c 2,35,-1
 -100 237 l 1,36,-1
 -58 237 l 2,37,38
 223 237 223 237 251 265 c 2,39,-1
 254 268 l 1,40,41
 267 293 267 293 267 334 c 0,42,43
 267 368 267 368 250 424 c 1,44,-1
 385 589 l 1,45,46
 390 573 390 573 392 551.5 c 128,-1,47
 394 530 394 530 394 499 c 0,48,49
 394 382 394 382 349 277 c 1,50,-1
 357 260 l 1,51,52
 422 235 422 235 604 235 c 0,53,54
 761 235 761 235 897 362 c 1,55,56
 920 380 920 380 1017 470 c 0,57,58
 1070 518 1070 518 1145 586 c 0,59,60
 1276 705 1276 705 1387 705 c 0,61,62
 1472 705 1472 705 1608 611 c 0,63,64
 1743 518 1743 518 1764 462 c 0,18,19
EndSplineSet
EndChar

StartChar: uni0637.isol
Encoding: 65217 65217 151
Width: 1573
Flags: MW
LayerCount: 2
Fore
SplineSet
1379 253 m 1,0,1
 1379 371 1379 371 1230 422 c 0,2,3
 1173 443 1173 443 1126 453 c 128,-1,4
 1079 463 1079 463 1043 463 c 0,5,6
 972 463 972 463 845 387 c 2,7,-1
 622 264 l 1,8,-1
 628 239 l 1,9,-1
 1366 239 l 1,10,-1
 1379 253 l 1,0,1
1473 0 m 1,11,-1
 363 -1 l 1,12,-1
 309 1 l 2,13,14
 132 1 132 1 100 237 c 1,15,-1
 162 237 l 2,16,17
 459 237 459 237 482 302 c 0,18,19
 504 361 504 361 504 488 c 0,20,21
 504 632 504 632 486 771 c 128,-1,22
 468 910 468 910 433 1056 c 1,23,-1
 570 1236 l 1,24,25
 604 1069 604 1069 726 1001 c 1,26,27
 713 980 713 980 693 951 c 128,-1,28
 673 922 673 922 645 887 c 1,29,-1
 642 877 l 1,30,31
 647 840 647 840 650 803.5 c 128,-1,32
 653 767 653 767 653 729 c 0,33,34
 653 488 653 488 562 334 c 1,35,-1
 579 315 l 1,36,37
 605 326 605 326 674.5 376.5 c 128,-1,38
 744 427 744 427 861 518 c 0,39,40
 1058 673 1058 673 1136 673 c 0,41,42
 1285 673 1285 673 1375 580 c 0,43,44
 1466 483 1466 483 1467 335 c 2,45,-1
 1467 334 l 1,46,-1
 1473 254 l 1,47,-1
 1473 0 l 1,11,-1
EndSplineSet
EndChar

StartChar: uni0637.fina
Encoding: 65218 65218 152
Width: 1474
Flags: MW
AnchorPoint: "Above" 1100 1219 basechar 0
AnchorPoint: "Below" 759 -251 basechar 0
LayerCount: 2
Fore
SplineSet
1379 253 m 1,0,1
 1379 371 1379 371 1230 422 c 0,2,3
 1173 443 1173 443 1126 453 c 128,-1,4
 1079 463 1079 463 1043 463 c 0,5,6
 972 463 972 463 845 387 c 2,7,-1
 622 264 l 1,8,-1
 628 239 l 1,9,-1
 1366 239 l 1,10,-1
 1379 253 l 1,0,1
1375 580 m 0,11,12
 1465 483 1465 483 1474 254 c 2,13,-1
 1474 0 l 1,14,-1
 363 -1 l 1,15,-1
 309 1 l 2,16,17
 132 1 132 1 100 237 c 1,18,-1
 162 237 l 2,19,20
 459 237 459 237 482 302 c 0,21,22
 504 361 504 361 504 488 c 0,23,24
 504 632 504 632 486 771 c 128,-1,25
 468 910 468 910 433 1056 c 1,26,-1
 570 1236 l 1,27,28
 604 1069 604 1069 726 1001 c 1,29,30
 713 980 713 980 693 951 c 128,-1,31
 673 922 673 922 645 887 c 1,32,-1
 642 877 l 1,33,34
 647 840 647 840 650 803.5 c 128,-1,35
 653 767 653 767 653 729 c 0,36,37
 653 488 653 488 562 334 c 1,38,-1
 579 315 l 1,39,40
 605 326 605 326 674.5 376.5 c 128,-1,41
 744 427 744 427 861 518 c 0,42,43
 1058 673 1058 673 1136 673 c 0,44,45
 1285 673 1285 673 1375 580 c 0,11,12
EndSplineSet
EndChar

StartChar: uni0637.init
Encoding: 65219 65219 153
Width: 1362
Flags: MW
AnchorPoint: "Above" 889 1219 basechar 0
AnchorPoint: "Below" 648 -251 basechar 0
LayerCount: 2
Fore
SplineSet
1167 253 m 1,0,1
 1167 371 1167 371 1018 422 c 0,2,3
 961 443 961 443 914 453 c 128,-1,4
 867 463 867 463 831 463 c 0,5,6
 760 463 760 463 633 387 c 2,7,-1
 410 264 l 1,8,-1
 417 239 l 1,9,-1
 1154 239 l 1,10,-1
 1167 253 l 1,0,1
-100 -1 m 1,11,-1
 -100 237 l 1,12,13
 246 237 246 237 270 302 c 0,14,15
 292 361 292 361 292 488 c 0,16,17
 292 632 292 632 274 771 c 128,-1,18
 256 910 256 910 221 1056 c 1,19,-1
 359 1236 l 1,20,21
 392 1069 392 1069 514 1001 c 1,22,23
 501 980 501 980 481.5 951 c 128,-1,24
 462 922 462 922 433 887 c 1,25,-1
 430 877 l 1,26,27
 435 840 435 840 438 803.5 c 128,-1,28
 441 767 441 767 441 729 c 0,29,30
 441 488 441 488 350 334 c 1,31,-1
 367 315 l 1,32,33
 393 326 393 326 462.5 376.5 c 128,-1,34
 532 427 532 427 649 518 c 0,35,36
 846 673 846 673 924 673 c 0,37,38
 1071 673 1071 673 1163 580 c 0,39,40
 1262 480 1262 480 1262 334 c 2,41,-1
 1262 0 l 1,42,-1
 -100 -1 l 1,11,-1
EndSplineSet
EndChar

StartChar: uni0637.medi
Encoding: 65220 65220 154
Width: 1261
Flags: MW
AnchorPoint: "Above" 849 1219 basechar 0
AnchorPoint: "Below" 630 -251 basechar 0
LayerCount: 2
Fore
SplineSet
1167 253 m 1,0,1
 1167 371 1167 371 1018 422 c 0,2,3
 961 443 961 443 914 453 c 128,-1,4
 867 463 867 463 831 463 c 0,5,6
 760 463 760 463 633 387 c 2,7,-1
 410 264 l 1,8,-1
 417 239 l 1,9,-1
 1154 239 l 1,10,-1
 1167 253 l 1,0,1
1261 0 m 1,11,-1
 -100 -1 l 1,12,-1
 -100 237 l 1,13,14
 246 237 246 237 270 302 c 0,15,16
 292 361 292 361 292 488 c 0,17,18
 292 632 292 632 274 771 c 128,-1,19
 256 910 256 910 221 1056 c 1,20,-1
 359 1236 l 1,21,22
 392 1069 392 1069 514 1001 c 1,23,24
 501 980 501 980 481.5 951 c 128,-1,25
 462 922 462 922 433 887 c 1,26,-1
 430 877 l 1,27,28
 435 840 435 840 438 803.5 c 128,-1,29
 441 767 441 767 441 729 c 0,30,31
 441 488 441 488 350 334 c 1,32,-1
 367 315 l 1,33,34
 393 326 393 326 462.5 376.5 c 128,-1,35
 532 427 532 427 649 518 c 0,36,37
 846 673 846 673 924 673 c 0,38,39
 1076 673 1076 673 1163 580 c 0,40,41
 1236 502 1236 502 1261 254 c 1,42,-1
 1261 0 l 1,11,-1
EndSplineSet
EndChar

StartChar: uni0639.isol
Encoding: 65225 65225 159
Width: 1205
Flags: MW
LayerCount: 2
Fore
SplineSet
1039 -615 m 0,0,1
 812 -788 812 -788 592 -788 c 0,2,3
 474 -788 474 -788 385.5 -754.5 c 128,-1,4
 297 -721 297 -721 231 -655 c 0,5,6
 100 -521 100 -521 100 -291 c 0,7,8
 100 -12 100 -12 330 197 c 1,9,-1
 328 217 l 1,10,11
 247 290 247 290 245 293 c 0,12,13
 216 328 216 328 216 375 c 0,14,15
 216 470 216 470 309 617 c 0,16,17
 409 780 409 780 506 780 c 0,18,19
 681 780 681 780 797 612 c 0,20,21
 813 587 813 587 797 587 c 0,22,23
 792 587 792 587 791 588 c 1,24,25
 724 609 724 609 678 619 c 128,-1,26
 632 629 632 629 606 629 c 0,27,28
 540 629 540 629 471 581 c 0,29,30
 416 543 416 543 374 477 c 1,31,-1
 377 459 l 1,32,-1
 532 339 l 1,33,-1
 544 337 l 1,34,35
 679 379 679 379 773 404 c 128,-1,36
 867 429 867 429 934 436 c 0,37,38
 937 436 937 436 938.5 436.5 c 128,-1,39
 940 437 940 437 942 437 c 2,40,-1
 943 437 l 1,41,42
 941 433 941 433 935.5 416.5 c 128,-1,43
 930 400 930 400 918 356 c 0,44,45
 910 330 910 330 900.5 297 c 128,-1,46
 891 264 891 264 874 213 c 1,47,48
 498 161 498 161 318 -13 c 0,49,50
 203 -127 203 -127 203 -252 c 0,51,52
 203 -534 203 -534 772 -566 c 1,53,54
 1083 -562 l 2,55,56
 1103 -562 1103 -562 1105 -559 c 1,57,58
 1103 -567 1103 -567 1039 -615 c 0,0,1
EndSplineSet
EndChar

StartChar: uni0639.fina
Encoding: 65226 65226 160
Width: 1095
Flags: MW
AnchorPoint: "Below" 618 20 basechar 0
AnchorPoint: "Above" 505 971 basechar 0
LayerCount: 2
Fore
SplineSet
1020 1 m 2,0,1
 654 1 654 1 528 231 c 1,2,-1
 509 236 l 1,3,4
 237 39 237 39 237 -225 c 0,5,6
 237 -542 237 -542 652 -542 c 0,7,8
 703 -542 703 -542 748 -539 c 0,9,10
 803 -535 803 -535 833 -531 c 2,11,-1
 984 -509 l 2,12,13
 989 -508 989 -508 993 -508 c 0,14,15
 1023 -504 1023 -504 996 -537 c 0,16,17
 799 -776 799 -776 531 -776 c 0,18,19
 321 -776 321 -776 207 -636 c 0,20,21
 100 -505 100 -505 100 -289 c 0,22,23
 100 -125 100 -125 189 55 c 0,24,25
 271 221 271 221 399 346 c 1,26,-1
 400 365 l 1,27,28
 347 425 347 425 222 433 c 1,29,30
 345 661 345 661 378 687 c 0,31,32
 392 698 392 698 449 710 c 1,33,34
 613 736 613 736 701 679 c 1,35,36
 782 632 782 632 782 539 c 0,37,38
 782 474 782 474 762 436 c 0,39,40
 748 411 748 411 688 357 c 1,41,-1
 687 339 l 1,42,43
 768 237 768 237 1030 237 c 2,44,-1
 1095 237 l 1,45,-1
 1095 1 l 1,46,-1
 1020 1 l 2,0,1
EndSplineSet
EndChar

StartChar: uni0639.init
Encoding: 65227 65227 161
Width: 1136
Flags: MW
AnchorPoint: "Below" 536 -250 basechar 0
AnchorPoint: "Above" 536 1043 basechar 0
LayerCount: 2
Fore
SplineSet
1024 251 m 2,0,1
 1036 253 l 1,2,3
 1036 251 1036 251 1035 246 c 1,4,-1
 924 17 l 2,5,6
 916 0 916 0 888 0 c 2,7,-1
 -99 0 l 1,8,9
 -100 237 l 1,10,-1
 339 237 l 1,11,-1
 348 260 l 1,12,13
 246 364 246 364 246 453 c 0,14,15
 246 455 246 455 246 458 c 0,16,17
 246 557 246 557 370 681 c 0,18,19
 430 741 430 741 480 766 c 0,20,21
 534 793 534 793 588 793 c 0,22,23
 594 793 l 0,24,25
 788 793 788 793 881 521 c 1,26,27
 885 500 885 500 877 508 c 0,28,29
 686 670 686 670 470 562 c 1,30,31
 441 550 441 550 441 532 c 2,32,-1
 441 530 l 2,33,34
 441 488 441 488 534 376 c 0,35,36
 656 227 656 227 783 227 c 0,37,38
 820 227 820 227 878 232 c 0,39,40
 944 238 944 238 1024 251 c 2,0,1
EndSplineSet
EndChar

StartChar: uni0639.medi
Encoding: 65228 65228 162
Width: 1011
Flags: MW
AnchorPoint: "Below" 505 -249 basechar 0
AnchorPoint: "Above" 565 1006 basechar 0
LayerCount: 2
Fore
SplineSet
940 1 m 2,0,1
 719 1 719 1 614 125 c 1,2,-1
 596 127 l 1,3,4
 431 1 431 1 136 1 c 2,5,-1
 -52 1 l 2,6,7
 -100 1 -100 1 -100 49 c 2,8,-1
 -100 237 l 1,9,-1
 186 237 l 2,10,11
 289 237 289 237 367.5 253 c 128,-1,12
 446 269 446 269 504 299 c 1,13,-1
 508 319 l 1,14,15
 386 460 386 460 283 460 c 1,16,17
 222 454 l 2,18,19
 220 454 220 454 220 455 c 1,20,-1
 219 454 l 1,21,-1
 218 454 l 1,22,23
 264 547 264 547 367 717 c 1,24,25
 406 756 406 756 535 756 c 0,26,27
 634 756 634 756 732 694 c 0,28,29
 840 626 840 626 840 535 c 0,30,31
 840 522 840 522 830 496 c 0,32,33
 788 378 788 378 742 317 c 1,34,-1
 743 298 l 1,35,36
 810 237 810 237 950 237 c 2,37,-1
 1011 237 l 1,38,-1
 1011 1 l 1,39,-1
 940 1 l 2,0,1
EndSplineSet
EndChar

StartChar: uni0643.isol
Encoding: 65241 65241 175
Width: 1517
Flags: MW
LayerCount: 2
Fore
SplineSet
863 702 m 1,0,1
 874 706 874 706 917 722 c 0,2,3
 954 736 954 736 1012 754 c 1,4,5
 998 702 998 702 977 650 c 1,6,7
 806 612 806 612 641 504 c 0,8,9
 586 468 586 468 582 468 c 0,10,11
 556 470 556 470 556 476 c 0,12,13
 556 478 556 478 555 476 c 1,14,15
 573 512 573 512 607 546 c 0,16,17
 642 582 642 582 698 624 c 1,18,-1
 699 648 l 1,19,20
 589 734 589 734 571 800 c 1,21,22
 617 930 617 930 656 960 c 0,23,24
 735 1012 735 1012 807 1012 c 0,25,26
 845 1012 845 1012 864 1010 c 0,27,28
 889 1006 889 1006 902 1000 c 1,29,-1
 902 900 l 1,30,31
 834 926 834 926 777 926 c 0,32,33
 707 926 707 926 655 896 c 1,34,-1
 648 874 l 1,35,36
 690 792 690 792 707 776 c 0,37,38
 756 728 756 728 850 702 c 1,39,-1
 863 702 l 1,0,1
1299 10 m 1,40,41
 1253 7 1253 7 1198 5 c 128,-1,42
 1143 3 1143 3 1071 2 c 0,43,44
 976 0 976 0 387 0 c 0,45,46
 277 0 277 0 201 66 c 0,47,48
 100 152 100 152 100 299 c 2,49,-1
 100 313 l 2,50,51
 100 516 100 516 191 697 c 1,52,53
 221 753 221 753 209 698 c 1,54,55
 193 644 193 644 186 590 c 0,56,57
 158 371 158 371 263 281 c 0,58,59
 339 217 339 217 565 209 c 0,60,61
 648 206 648 206 799 206 c 0,62,63
 892 206 892 206 1004.5 207 c 128,-1,64
 1117 208 1117 208 1265 211 c 1,65,-1
 1278 226 l 1,66,-1
 1155 1110 l 1,67,68
 1317 1266 1317 1266 1320 1268 c 1,69,-1
 1417 168 l 1,70,-1
 1363 50 l 1,71,-1
 1299 10 l 1,40,41
EndSplineSet
EndChar

StartChar: uni0643.fina
Encoding: 65242 65242 176
Width: 1414
Flags: MW
AnchorPoint: "Above" 673 1130 basechar 0
AnchorPoint: "Below" 707 -250 basechar 0
LayerCount: 2
Fore
SplineSet
863 702 m 1,0,1
 874 706 874 706 917 722 c 0,2,3
 954 736 954 736 1012 754 c 1,4,5
 998 702 998 702 977 650 c 1,6,7
 806 612 806 612 641 504 c 0,8,9
 586 468 586 468 582 468 c 0,10,11
 556 470 556 470 556 476 c 0,12,13
 556 478 556 478 555 476 c 1,14,15
 573 512 573 512 607 546 c 0,16,17
 642 582 642 582 698 624 c 1,18,-1
 699 648 l 1,19,20
 589 734 589 734 571 800 c 1,21,22
 617 930 617 930 656 960 c 0,23,24
 735 1012 735 1012 807 1012 c 0,25,26
 845 1012 845 1012 864 1010 c 0,27,28
 889 1006 889 1006 902 1000 c 1,29,-1
 902 900 l 1,30,31
 834 926 834 926 777 926 c 0,32,33
 707 926 707 926 655 896 c 1,34,-1
 648 874 l 1,35,36
 690 792 690 792 707 776 c 0,37,38
 756 728 756 728 850 702 c 1,39,-1
 863 702 l 1,0,1
387 0 m 2,40,41
 277 0 277 0 201 66 c 0,42,43
 103 152 103 152 100 299 c 2,44,-1
 100 313 l 2,45,46
 100 516 100 516 191 697 c 1,47,48
 223 759 223 759 209 698 c 1,49,50
 193 644 193 644 186 590 c 128,-1,51
 179 536 179 536 179 482 c 2,52,-1
 179 471 l 2,53,54
 180 352 180 352 263 281 c 0,55,56
 352 206 352 206 470 206 c 2,57,-1
 1265 206 l 1,58,-1
 1278 221 l 1,59,-1
 1155 1110 l 1,60,-1
 1305 1255 l 2,61,62
 1309 1259 1309 1259 1310.5 1261 c 128,-1,63
 1312 1263 1312 1263 1313 1264 c 1,64,-1
 1369 775 l 2,65,66
 1385 580 1385 580 1395.5 454.5 c 128,-1,67
 1406 329 1406 329 1414 257 c 2,68,-1
 1414 0 l 1,69,-1
 387 0 l 2,40,41
EndSplineSet
EndChar

StartChar: uni0643.init
Encoding: 65243 65243 177
Width: 939
Flags: MW
AnchorPoint: "Below" 433 -250 basechar 0
AnchorPoint: "Above" 433 1286 basechar 0
LayerCount: 2
Fore
SplineSet
839 261 m 0,0,1
 839 158 839 158 830.5 89.5 c 128,-1,2
 822 21 822 21 805 4 c 0,3,4
 801 0 801 0 775 0 c 2,5,-1
 -52 0 l 2,6,7
 -75 0 -75 0 -87.5 8 c 128,-1,8
 -100 16 -100 16 -100 39 c 2,9,-1
 -100 237 l 1,10,-1
 622 237 l 2,11,12
 646 237 646 237 646 261 c 1,13,14
 606 300 606 300 560 336 c 0,15,16
 458 416 458 416 101 632 c 1,17,18
 97 636 97 636 105 679 c 0,19,20
 112 719 112 719 119 729 c 0,21,22
 140 754 140 754 212 794 c 0,23,24
 362 877 362 877 639 980 c 0,25,26
 754 1023 754 1023 820 1036 c 1,27,28
 818 1020 818 1020 807.5 982 c 128,-1,29
 797 944 797 944 779 883 c 1,30,31
 686 853 686 853 632 835 c 0,32,33
 437 771 437 771 322 712 c 1,34,-1
 322 688 l 1,35,36
 434 629 434 629 617 491 c 24,37,38
 839 324 839 324 839 261 c 0,0,1
EndSplineSet
EndChar

StartChar: uni0643.medi
Encoding: 65244 65244 178
Width: 839
Flags: MW
AnchorPoint: "Below" 417 -250 basechar 0
AnchorPoint: "Above" 417 1100 basechar 0
LayerCount: 2
Fore
SplineSet
837 0 m 1,0,-1
 -100 0 l 1,1,-1
 -100 239 l 1,2,-1
 637 239 l 1,3,-1
 646 262 l 1,4,5
 537 363 537 363 101 632 c 1,6,7
 97 632 97 632 105 679 c 0,8,9
 112 719 112 719 119 729 c 0,10,11
 140 755 140 755 212 794.5 c 128,-1,12
 284 834 284 834 417 891 c 0,13,14
 602 970 602 970 807 1033 c 2,15,-1
 820 1037 l 1,16,17
 817 1020 817 1020 806.5 981.5 c 128,-1,18
 796 943 796 943 779 883 c 1,19,20
 447 776 447 776 322 712 c 1,21,-1
 322 688 l 1,22,23
 434 629 434 629 617 491 c 24,24,25
 841 322 841 322 839 261 c 2,26,-1
 837 211 l 1,27,-1
 837 0 l 1,0,-1
EndSplineSet
EndChar

StartChar: uni0644.isol
Encoding: 65245 65245 179
Width: 1068
Flags: MW
LayerCount: 2
Fore
SplineSet
968 -53 m 2,0,1
 968 -140 968 -140 843 -260 c 0,2,3
 680 -414 680 -414 442 -414 c 0,4,5
 295 -414 295 -414 198 -326 c 0,6,7
 100 -237 100 -237 100 -91 c 0,8,9
 100 12 100 12 125 110 c 128,-1,10
 150 208 150 208 199 305 c 1,11,12
 240 390 240 390 217 307 c 1,13,14
 183 198 183 198 183 78 c 0,15,16
 183 -43 183 -43 262 -112 c 0,17,18
 338 -179 338 -179 459 -179 c 0,19,20
 530 -179 530 -179 677 -137 c 1,21,-1
 677 -136 l 1,22,23
 847 -85 847 -85 847 -22 c 2,24,-1
 847 -21 l 1,25,-1
 742 1037 l 1,26,-1
 911 1196 l 1,27,-1
 962 288 l 1,28,29
 966 154 966 154 968 -51 c 2,30,-1
 968 -53 l 2,0,1
EndSplineSet
EndChar

StartChar: uni0644.init
Encoding: 65247 65247 181
Width: 637
Flags: MW
AnchorPoint: "Below" 250 -250 basechar 0
AnchorPoint: "Above" 288 1300 basechar 0
LayerCount: 2
Fore
SplineSet
-46 0 m 2,0,1
 -100 0 -100 0 -100 49 c 2,2,-1
 -100 237 l 1,3,-1
 319 238 l 1,4,5
 374 235 374 235 374 261 c 0,6,7
 374 376 374 376 372 382 c 1,8,9
 343 694 343 694 328.5 855.5 c 128,-1,10
 314 1017 314 1017 311 1038 c 1,11,-1
 465 1198 l 1,12,-1
 537 241 l 2,13,14
 544 146 544 146 526 82 c 0,15,16
 514 36 514 36 491 1 c 1,17,-1
 465 0 l 1,18,-1
 -46 0 l 2,0,1
EndSplineSet
EndChar

StartChar: uni0644.medi
Encoding: 65248 65248 182
Width: 577
Flags: MW
AnchorPoint: "Below" 250 -250 basechar 0
AnchorPoint: "Above" 288 1300 basechar 0
LayerCount: 2
Fore
SplineSet
578 -2 m 1,0,1
 576 0 576 0 560 0 c 2,2,-1
 -52 0 l 2,3,4
 -100 0 -100 0 -100 49 c 2,5,-1
 -100 237 l 1,6,-1
 431 237 l 1,7,-1
 444 253 l 1,8,-1
 349 1038 l 1,9,-1
 522 1210 l 1,10,11
 522 1207 522 1207 578 247 c 1,12,-1
 578 -2 l 1,0,1
EndSplineSet
EndChar

StartChar: uni0645.isol
Encoding: 65249 65249 183
Width: 942
Flags: MW
LayerCount: 2
Fore
SplineSet
780 34 m 2,0,1
 770 0 770 0 654 0 c 2,2,-1
 303 0 l 2,3,4
 221 -3 221 -3 194 -40 c 1,5,-1
 192 -52 l 1,6,7
 304 -382 304 -382 304 -557 c 0,8,9
 304 -662 304 -662 270 -757 c 0,10,11
 257 -794 257 -794 251 -744 c 0,12,13
 248 -720 248 -720 243 -689 c 128,-1,14
 238 -658 238 -658 231 -616.5 c 128,-1,15
 224 -575 224 -575 215 -521 c 1,16,-1
 215 -520 l 1,17,18
 204 -478 204 -478 188 -406 c 0,19,20
 172 -340 172 -340 150.5 -252.5 c 128,-1,21
 129 -165 129 -165 100 -44 c 1,22,23
 110 7 110 7 131.5 63 c 128,-1,24
 153 119 153 119 185 182 c 1,25,26
 200 197 200 197 362 211 c 0,27,28
 531 225 531 225 544 243 c 1,29,-1
 546 257 l 1,30,31
 539 275 539 275 521 300 c 128,-1,32
 503 325 503 325 471 357 c 0,33,34
 404 427 404 427 368 427 c 0,35,36
 319 427 319 427 198 339 c 0,37,38
 153 305 153 305 181 366 c 1,39,40
 320 646 320 646 444 646 c 0,41,42
 512 646 512 646 558 603 c 0,43,44
 595 571 595 571 654 471 c 0,45,46
 705 386 705 386 733 340 c 0,47,48
 796 238 796 238 842 238 c 1,49,-1
 841 232 l 1,50,-1
 780 34 l 2,0,1
EndSplineSet
EndChar

StartChar: uni0645.fina
Encoding: 65250 65250 184
Width: 822
Flags: MW
AnchorPoint: "Above" 451 1016 basechar 0
AnchorPoint: "Below" 495 -354 basechar 0
LayerCount: 2
Fore
SplineSet
822 239 m 1,0,1
 822 0 l 1,2,-1
 303 0 l 2,3,4
 223 0 223 0 194 -40 c 1,5,-1
 192 -52 l 1,6,7
 304 -382 304 -382 304 -557 c 0,8,9
 304 -662 304 -662 270 -757 c 0,10,11
 257 -794 257 -794 251 -744 c 0,12,13
 248 -720 248 -720 243 -689 c 128,-1,14
 238 -658 238 -658 231 -616.5 c 128,-1,15
 224 -575 224 -575 215 -521 c 1,16,-1
 215 -520 l 1,17,18
 205 -478 205 -478 188 -406 c 0,19,20
 172 -340 172 -340 150.5 -252.5 c 128,-1,21
 129 -165 129 -165 100 -44 c 1,22,23
 110 7 110 7 131.5 63 c 128,-1,24
 153 119 153 119 185 182 c 1,25,26
 200 197 200 197 362 211 c 0,27,28
 531 225 531 225 544 243 c 1,29,-1
 546 257 l 1,30,31
 539 275 539 275 521 300 c 128,-1,32
 503 325 503 325 471 357 c 0,33,34
 404 427 404 427 368 427 c 0,35,36
 319 427 319 427 198 339 c 0,37,38
 153 305 153 305 181 366 c 1,39,40
 320 646 320 646 444 646 c 0,41,42
 508 646 508 646 558 603 c 0,43,44
 595 571 595 571 654 471 c 0,45,46
 705 386 705 386 733 340 c 0,47,48
 792 244 792 244 822 239 c 1,0,1
EndSplineSet
EndChar

StartChar: uni0645.medi
Encoding: 65252 65252 186
Width: 791
Flags: MW
AnchorPoint: "Below" 300 -249 basechar 0
AnchorPoint: "Above" 400 1000 basechar 0
LayerCount: 2
Fore
SplineSet
711 230 m 1,0,1
 671 444 671 444 556 444 c 0,2,3
 482 444 482 444 432 378 c 0,4,5
 415 356 415 356 393 323 c 1,6,-1
 392 311 l 1,7,8
 426 235 426 235 697 215 c 1,9,-1
 711 230 l 1,0,1
818 314 m 0,10,11
 834 258 834 258 834 227 c 1,12,13
 827 167 827 167 811 111 c 128,-1,14
 795 55 795 55 768 1 c 1,15,-1
 663 1 l 2,16,17
 464 1 464 1 289 69 c 1,18,-1
 277 68 l 1,19,-1
 197 17 l 2,20,21
 172 1 172 1 75 1 c 2,22,-1
 -52 1 l 2,23,24
 -100 1 -100 1 -100 50 c 2,25,-1
 -100 238 l 1,26,-1
 215 238 l 1,27,28
 292 249 292 249 323 315 c 0,29,30
 368 408 368 408 392 460 c 0,31,32
 490 666 490 666 630 667 c 0,33,34
 678 667 678 667 718 591 c 1,35,36
 769 490 769 490 818 314 c 0,10,11
EndSplineSet
EndChar

StartChar: uni0647.isol
Encoding: 65257 65257 191
Width: 909
Flags: MW
LayerCount: 2
Fore
SplineSet
658 319 m 1,0,1
 629 333 629 333 553.5 392 c 128,-1,2
 478 451 478 451 351 555 c 1,3,-1
 332 552 l 1,4,5
 213 382 213 382 213 315 c 0,6,7
 213 265 213 265 271 234 c 0,8,9
 314 214 314 214 367 214 c 0,10,11
 430 214 430 214 517 235 c 0,12,13
 622 262 622 262 662 296 c 1,14,-1
 658 319 l 1,0,1
809 434 m 0,15,16
 809 412 809 412 799.5 379 c 128,-1,17
 790 346 790 346 771 298 c 0,18,19
 737 211 737 211 705 168 c 1,20,21
 497 -4 497 -4 273 -4 c 0,22,23
 198 -4 198 -4 149 44 c 0,24,25
 100 90 100 90 100 166 c 0,26,27
 100 324 100 324 400 708 c 0,28,29
 422 736 422 736 451 775 c 1,30,31
 507 710 507 710 642 615 c 1,32,-1
 643 615 l 1,33,34
 724 562 724 562 761 522 c 0,35,36
 809 475 809 475 809 434 c 0,15,16
EndSplineSet
EndChar

StartChar: uni0647.fina
Encoding: 65258 65258 192
Width: 827
Flags: MW
AnchorPoint: "Below" 231 -41 basechar 0
AnchorPoint: "Above" 371 1162 basechar 0
LayerCount: 2
Fore
SplineSet
549 343 m 1,0,1
 548 401 548 401 537 599 c 1,2,-1
 520 610 l 1,3,4
 309 545 309 545 242 444 c 1,5,-1
 244 428 l 1,6,7
 339 330 339 330 536 330 c 1,8,-1
 549 343 l 1,0,1
720 1 m 2,9,10
 647 1 647 1 608 78 c 0,11,12
 579 136 579 136 556 276 c 1,13,-1
 530 279 l 1,14,15
 460 114 460 114 439 110 c 1,16,17
 305 110 305 110 213 156 c 0,18,-1
 212 156 l 0,19,20
 100 205 100 205 100 277 c 0,21,22
 100 314 100 314 156 439 c 24,23,24
 210 558 210 558 258 593 c 1,25,26
 285 610 285 610 513 702 c 1,27,-1
 521 715 l 1,28,-1
 515 808 l 1,29,30
 551 846 551 846 625 912 c 1,31,32
 628 904 628 904 634 782 c 0,33,34
 645 569 645 569 651 422 c 0,35,36
 656 305 656 305 677 269 c 0,37,38
 696 237 696 237 754 237 c 2,39,-1
 827 237 l 1,40,-1
 827 1 l 1,41,-1
 720 1 l 2,9,10
EndSplineSet
EndChar

StartChar: uni0647.init
Encoding: 65259 65259 193
Width: 1142
Flags: MW
AnchorPoint: "Below" 536 -250 basechar 0
AnchorPoint: "Above" 536 1149 basechar 0
LayerCount: 2
Fore
SplineSet
666 395 m 0,0,1
 666 433 666 433 649 475 c 0,2,3
 632 523 632 523 599 523 c 0,4,5
 511 523 511 523 444 444 c 0,6,7
 384 373 384 373 384 300 c 1,8,-1
 395 287 l 1,9,-1
 595 249 l 1,10,-1
 604 251 l 1,11,12
 666 292 666 292 666 395 c 0,0,1
945 146 m 1,13,14
 945 409 945 409 742 546 c 1,15,-1
 722 532 l 1,16,17
 729 507 729 507 729 457 c 0,18,19
 729 323 729 323 652 251 c 1,20,-1
 658 228 l 1,21,22
 700 220 700 220 767 196.5 c 128,-1,23
 834 173 834 173 927 133 c 1,24,-1
 945 146 l 1,13,14
1042 245 m 0,25,26
 1042 114 1042 114 996 11 c 0,27,28
 959 -73 959 -73 942 -73 c 0,29,30
 914 -73 914 -73 589 70 c 1,31,-1
 578 70 l 1,32,33
 411 1 411 1 333 1 c 2,34,-1
 -52 1 l 2,35,36
 -70 1 -70 1 -85 15.5 c 128,-1,37
 -100 30 -100 30 -100 49 c 2,38,-1
 -100 237 l 1,39,-1
 301 237 l 1,40,-1
 315 251 l 1,41,42
 315 513 315 513 549 630 c 1,43,-1
 551 653 l 1,44,45
 466 702 l 1,46,47
 466 724 466 724 508 796 c 0,48,49
 533 839 533 839 553.5 865 c 128,-1,50
 574 891 574 891 592 899 c 1,51,52
 789 792 789 792 921 600 c 0,53,54
 1042 425 1042 425 1042 245 c 0,25,26
EndSplineSet
EndChar

StartChar: uni0647.medi
Encoding: 65260 65260 194
Width: 754
Flags: MW
AnchorPoint: "Below" 377 -745 basechar 0
AnchorPoint: "Above" 377 1063 basechar 0
LayerCount: 2
Fore
SplineSet
505 323 m 1,0,1
 505 459 505 459 449 563 c 1,2,-1
 429 567 l 1,3,4
 308 461 308 461 254 255 c 1,5,-1
 267 238 l 1,6,7
 339 240 339 240 396.5 259 c 128,-1,8
 454 278 454 278 500 312 c 1,9,-1
 505 323 l 1,0,1
574 -227 m 0,10,11
 574 -118 574 -118 469 -47 c 0,12,13
 377 12 377 12 266 12 c 1,14,-1
 253 -3 l 1,15,16
 262 -60 262 -60 284 -106 c 0,17,18
 364 -278 364 -278 527 -279 c 0,19,20
 574 -279 574 -279 574 -227 c 0,10,11
622 1 m 1,21,-1
 612 -20 l 1,22,23
 642 -59 642 -59 646 -100 c 1,24,25
 590 -495 590 -495 512 -495 c 0,26,27
 420 -495 420 -495 316 -391 c 0,28,29
 178 -254 178 -254 152 -11 c 1,30,-1
 139 1 l 1,31,-1
 -52 1 l 2,32,33
 -70 1 -70 1 -85 15.5 c 128,-1,34
 -100 30 -100 30 -100 49 c 2,35,-1
 -100 237 l 1,36,-1
 172 237 l 1,37,-1
 185 249 l 1,38,39
 195 312 195 312 219 378 c 0,40,41
 278 540 278 540 387 682 c 0,42,43
 440 750 440 750 498 800 c 0,44,45
 513 813 513 813 520 803 c 0,46,47
 543 770 543 770 568 688 c 0,48,49
 601 575 601 575 601 492 c 0,50,51
 601 340 601 340 521 260 c 1,52,-1
 531 237 l 1,53,-1
 754 237 l 1,54,-1
 754 1 l 1,55,-1
 622 1 l 1,21,-1
EndSplineSet
EndChar

StartChar: uni0648.isol
Encoding: 65261 65261 195
Width: 908
Flags: MW
LayerCount: 2
Fore
SplineSet
674 252 m 1,0,1
 637 449 637 449 496 448 c 0,2,3
 438 448 438 448 388 323 c 1,4,-1
 393 307 l 1,5,6
 508 232 508 232 662 232 c 1,7,-1
 674 252 l 1,0,1
808 109 m 2,8,9
 808 -6 808 -6 774 -118.5 c 128,-1,10
 740 -231 740 -231 671 -340 c 0,11,12
 525 -573 525 -573 330 -573 c 0,13,14
 214 -573 214 -573 93 -479 c 0,15,16
 39 -437 39 -437 -5.5 -390.5 c 128,-1,17
 -50 -344 -50 -344 -92 -287 c 1,18,-1
 -93 -287 l 1,19,20
 -114 -254 -114 -254 -76 -277 c 0,21,22
 44 -352 44 -352 202 -352 c 0,23,24
 362 -352 362 -352 493 -263 c 0,25,26
 623 -175 623 -175 685 -29 c 1,27,-1
 674 -10 l 1,28,29
 285 16 285 16 285 216 c 0,30,31
 285 343 285 343 362 518 c 0,32,33
 446 709 446 709 547 709 c 0,34,35
 607 709 607 709 698 584 c 0,36,37
 808 433 808 433 808 245 c 2,38,-1
 808 109 l 2,8,9
EndSplineSet
EndChar

StartChar: uni0649.isol
Encoding: 65263 65263 197
Width: 1400
Flags: MW
LayerCount: 2
Fore
SplineSet
1300 692 m 0,0,1
 1300 654 1300 654 1268 548 c 0,2,3
 1260 522 1260 522 1254 516 c 1,4,5
 1252 518 1252 518 1244.5 525 c 128,-1,6
 1237 532 1237 532 1225 540 c 0,7,8
 1161 577 1161 577 1129 577 c 0,9,10
 1016 577 1016 577 904 483 c 0,11,12
 826 421 826 421 778 340 c 1,13,-1
 781 323 l 1,14,15
 822 291 822 291 1041 230 c 0,16,17
 1231 180 1231 180 1232 167 c 2,18,-1
 1232 156 l 2,19,20
 1232 119 1232 119 1219 39 c 0,21,22
 1201 -64 1201 -64 1190 -75 c 0,23,24
 1130 -136 1130 -136 1061.5 -187.5 c 128,-1,25
 993 -239 993 -239 915 -287 c 0,26,27
 684 -425 684 -425 482 -425 c 0,28,29
 293 -425 293 -425 194 -301 c 0,30,31
 88 -174 88 -174 101 7 c 0,32,33
 121 294 121 294 258 498 c 0,34,35
 270 516 270 516 280 526 c 0,36,37
 297 544 297 544 287 518 c 0,38,39
 282 504 282 504 271 488 c 1,40,-1
 270 488 l 1,41,42
 166 288 166 288 166 135 c 0,43,44
 166 -22 166 -22 280 -110 c 0,45,46
 383 -191 383 -191 541 -191 c 0,47,48
 827 -191 827 -191 1073 -20 c 1,49,-1
 1072 3 l 1,50,51
 1070 4 1070 4 1030 18 c 2,52,-1
 835 81 l 2,53,54
 660 139 660 139 660 181 c 0,55,56
 660 347 660 347 845 553 c 0,57,58
 1032 764 1032 764 1194 764 c 0,59,60
 1300 764 1300 764 1300 692 c 0,0,1
EndSplineSet
EndChar

StartChar: uni0649.fina
Encoding: 65264 65264 198
Width: 1235
Flags: MW
AnchorPoint: "Below" 575 -550 basechar 0
AnchorPoint: "Above" 575 487 basechar 0
LayerCount: 2
Fore
SplineSet
869 0 m 2,0,1
 849 0 849 0 831.5 -1 c 128,-1,2
 814 -2 814 -2 800 -9 c 1,3,-1
 801 -34 l 1,4,5
 1123 -157 1123 -157 1123 -177 c 0,6,7
 1122 -246 1122 -246 1096 -336 c 0,8,9
 1090 -358 1090 -358 1084 -367 c 0,10,11
 1010 -472 1010 -472 800 -534 c 0,12,13
 621 -587 621 -587 461 -587 c 0,14,15
 295 -587 295 -587 200 -501 c 0,16,17
 100 -410 100 -410 100 -250 c 0,18,19
 100 -22 100 -22 270 178 c 1,20,21
 278 179 l 1,22,23
 162 0 162 0 162 -123 c 0,24,25
 162 -257 162 -257 311 -319 c 0,26,27
 422 -365 422 -365 563 -365 c 0,28,29
 822 -365 822 -365 936 -310 c 1,30,-1
 936 -285 l 1,31,32
 911 -273 911 -273 863.5 -256 c 128,-1,33
 816 -239 816 -239 742 -208 c 0,34,35
 624 -159 624 -159 630 -129 c 0,36,37
 650 -30 650 -30 722 112 c 1,38,39
 750 174 750 174 826 198 c 0,40,41
 866 212 866 212 927 222 c 0,42,43
 1023 237 1023 237 1113 237 c 2,44,-1
 1235 237 l 1,45,-1
 1235 0 l 1,46,-1
 869 0 l 2,0,1
EndSplineSet
EndChar

StartChar: uni06440627.isol
Encoding: 65275 65275 209
Width: 1129
Flags: MW
AnchorPoint: "BelowLig" 300 -227 baselig 1
AnchorPoint: "BelowLig" 790 -218 baselig 0
AnchorPoint: "AboveLig" 156 1300 baselig 1
AnchorPoint: "AboveLig" 853 1300 baselig 0
LayerCount: 2
Fore
SplineSet
737 129 m 1,0,1
 745 208 745 208 722 280 c 1,2,-1
 700 284 l 1,3,4
 671 244 671 244 624.5 200 c 128,-1,5
 578 156 578 156 512 107 c 1,6,-1
 521 84 l 1,7,8
 599 90 599 90 726 114 c 1,9,-1
 737 127 l 1,10,-1
 737 129 l 1,0,1
856 1278 m 1,11,12
 887 1223 887 1223 929.5 1163 c 128,-1,13
 972 1103 972 1103 1029 1037 c 1,14,15
 1026 1034 1026 1034 968 962 c 0,16,17
 944 932 944 932 907 886 c 1,18,-1
 871 901 l 1,19,-1
 852 889 l 1,20,21
 852 591 852 591 765 360 c 1,22,-1
 764 351 l 1,23,24
 796 212 796 212 796 123 c 0,25,26
 796 -30 796 -30 781 -69 c 1,27,28
 766 -78 766 -78 724 -88 c 0,29,30
 558 -127 558 -127 398 -127 c 2,31,-1
 297 -127 l 1,32,33
 327 72 327 72 329 86 c 1,34,35
 522 96 522 96 674 344 c 1,36,-1
 674 359 l 1,37,38
 497 635 497 635 337 759 c 1,39,-1
 318 756 l 1,40,-1
 289 709 l 1,41,42
 100 859 100 859 100 920 c 0,43,44
 100 1005 100 1005 209 1147 c 1,45,46
 437 988 437 988 708 484 c 1,47,-1
 731 486 l 1,48,49
 771 606 771 606 771 811 c 0,50,51
 771 892 771 892 765 971.5 c 128,-1,52
 759 1051 759 1051 747 1139 c 1,53,54
 766 1160 766 1160 793.5 1194.5 c 128,-1,55
 821 1229 821 1229 856 1278 c 1,11,12
EndSplineSet
Ligature2: "'rlig' Lam Alef Ligatures subtable" uni0644.init uni0627.fina
EndChar

StartChar: uni06440627.fina
Encoding: 65276 65276 210
Width: 1221
Flags: MW
AnchorPoint: "BelowLig" 297 -143 baselig 1
AnchorPoint: "BelowLig" 955 -149 baselig 0
AnchorPoint: "AboveLig" 210 1300 baselig 1
AnchorPoint: "AboveLig" 967 1300 baselig 0
LayerCount: 2
Fore
SplineSet
1166 1 m 2,0,1
 1048 1 1048 1 975 145 c 0,2,3
 946 202 946 202 929.5 269 c 128,-1,4
 913 336 913 336 905 414 c 1,5,-1
 880 418 l 1,6,7
 850 332 850 332 789 219 c 0,8,9
 716 83 716 83 671 46 c 0,10,11
 597 -15 597 -15 513 -31 c 0,12,13
 451 -43 451 -43 249 -43 c 0,14,15
 100 -43 100 -43 100 -38 c 0,16,17
 100 -32 100 -32 185 -8 c 0,18,19
 496 83 496 83 608 186 c 1,20,-1
 612 197 l 1,21,-1
 612 388 l 2,22,23
 612 519 612 519 389 742 c 1,24,-1
 369 740 l 1,25,26
 329 676 329 676 324 676 c 0,27,28
 303 676 303 676 208 795 c 0,29,30
 137 884 137 884 137 930 c 0,31,32
 137 959 137 959 169 1041 c 0,33,34
 206 1135 206 1135 243 1135 c 0,35,36
 302 1135 302 1135 511 877 c 0,37,38
 648 707 648 707 663 560 c 0,39,40
 665 540 665 540 666 518.5 c 128,-1,41
 667 497 667 497 667 474 c 0,42,43
 667 420 667 420 663 364.5 c 128,-1,44
 659 309 659 309 651 243 c 1,45,-1
 672 231 l 1,46,47
 780 317 780 317 819 437 c 0,48,49
 846 520 846 520 846 642 c 2,50,-1
 846 665 l 1,51,-1
 838 1074 l 1,52,-1
 969 1196 l 2,53,54
 968 1195 968 1195 982 630 c 0,55,56
 992 237 992 237 1173 237 c 2,57,-1
 1221 237 l 1,58,-1
 1221 1 l 1,59,-1
 1166 1 l 2,0,1
EndSplineSet
Ligature2: "'rlig' Lam Alef Ligatures subtable" uni0644.medi uni0627.fina
EndChar

StartChar: uni0621.small
Encoding: 65536 -1 211
Width: 457
Flags: W
LayerCount: 2
Fore
SplineSet
328 405 m 1,0,1
 339 410 339 410 382 425 c 0,2,3
 419 438 419 438 477 456 c 1,4,5
 463 404 463 404 442 352 c 1,6,7
 271 315 271 315 106 207 c 0,8,9
 51 171 51 171 47 171 c 0,10,11
 21 173 21 173 21 178 c 0,12,13
 21 179 21 179 20 178 c 1,14,15
 38 214 38 214 72 248 c 0,16,17
 107 283 107 283 163 326 c 1,18,-1
 164 351 l 1,19,20
 54 436 54 436 36 502 c 1,21,22
 82 632 82 632 121 663 c 0,23,24
 200 715 200 715 272 715 c 0,25,26
 310 715 310 715 329 712 c 0,27,28
 354 708 354 708 367 703 c 1,29,-1
 367 603 l 1,30,31
 299 629 299 629 242 629 c 0,32,33
 172 629 172 629 120 598 c 1,34,-1
 113 576 l 1,35,36
 155 494 155 494 172 478 c 0,37,38
 221 430 221 430 315 405 c 1,39,-1
 328 405 l 1,0,1
EndSplineSet
EndChar

StartChar: madda.small
Encoding: 65537 -1 212
Width: 544
Flags: W
LayerCount: 2
Fore
SplineSet
258 44 m 128,-1,1
 173 68 173 68 113 68 c 0,2,3
 107 68 107 68 100 68 c 0,4,5
 57 68 57 68 0 11 c 1,6,7
 12 60 12 60 38 91 c 0,8,9
 82 143 82 143 146 143 c 0,10,11
 183 143 183 143 271 120 c 24,12,13
 355 98 355 98 419 98 c 0,14,15
 495 98 495 98 544 153 c 1,16,-1
 544 150 l 1,17,18
 501 20 501 20 422 20 c 128,-1,0
 343 20 343 20 258 44 c 128,-1,1
EndSplineSet
EndChar

StartChar: zero
Encoding: 48 48 213
Width: 1024
Flags: W
LayerCount: 2
Fore
SplineSet
512 -29 m 128,-1,1
 373 -29 373 -29 267 64 c 128,-1,2
 161 157 161 157 105 319.5 c 128,-1,3
 49 482 49 482 49 688 c 0,4,5
 49 881 49 881 103.5 1037.5 c 128,-1,6
 158 1194 158 1194 266.5 1289 c 128,-1,7
 375 1384 375 1384 520 1384 c 0,8,9
 721 1384 721 1384 848 1187 c 128,-1,10
 975 990 975 990 975 676 c 0,11,12
 975 472 975 472 919 312 c 128,-1,13
 863 152 863 152 757 61.5 c 128,-1,0
 651 -29 651 -29 512 -29 c 128,-1,1
514 1331 m 0,14,15
 382 1331 382 1331 314 1163.5 c 128,-1,16
 246 996 246 996 246 670 c 0,17,18
 246 25 246 25 512 25 c 128,-1,19
 778 25 778 25 778 672 c 0,20,21
 778 993 778 993 710.5 1162 c 128,-1,22
 643 1331 643 1331 514 1331 c 0,14,15
EndSplineSet
Substitution2: "'locl' Arabic Localized Forms subtable" uni0660
EndChar

StartChar: one
Encoding: 49 49 214
Width: 1024
Flags: W
LayerCount: 2
Fore
SplineSet
375 1214 m 0,0,1
 336 1214 336 1214 227 1169 c 1,2,-1
 227 1198 l 1,3,-1
 596 1384 l 1,4,-1
 612 1380 l 1,5,-1
 612 152 l 2,6,7
 612 78 612 78 649 55 c 128,-1,8
 686 32 686 32 807 31 c 1,9,-1
 807 0 l 1,10,-1
 242 0 l 1,11,-1
 242 31 l 1,12,13
 356 34 356 34 396 64 c 128,-1,14
 436 94 436 94 436 190 c 2,15,-1
 436 1118 l 2,16,17
 436 1168 436 1168 421.5 1191 c 128,-1,18
 407 1214 407 1214 375 1214 c 0,0,1
EndSplineSet
Substitution2: "'locl' Arabic Localized Forms subtable" uni0661
EndChar

StartChar: two
Encoding: 50 50 215
Width: 1024
Flags: W
LayerCount: 2
Fore
SplineSet
63 977 m 1,0,1
 71 1010 71 1010 76.5 1031 c 128,-1,2
 82 1052 82 1052 99.5 1099 c 128,-1,3
 117 1146 117 1146 136.5 1178.5 c 128,-1,4
 156 1211 156 1211 190 1253 c 128,-1,5
 224 1295 224 1295 264 1321 c 128,-1,6
 304 1347 304 1347 362.5 1365.5 c 128,-1,7
 421 1384 421 1384 489 1384 c 0,8,9
 649 1384 649 1384 758.5 1279.5 c 128,-1,10
 868 1175 868 1175 868 1022 c 0,11,12
 868 902 868 902 805 780 c 128,-1,13
 742 658 742 658 606 516 c 2,14,-1
 262 156 l 1,15,-1
 752 156 l 2,16,17
 821 156 821 156 855 179.5 c 128,-1,18
 889 203 889 203 946 291 c 1,19,-1
 973 281 l 1,20,-1
 860 0 l 1,21,-1
 61 0 l 1,22,-1
 61 25 l 1,23,-1
 426 412 l 2,24,25
 555 548 555 548 623.5 686 c 128,-1,26
 692 824 692 824 692 944 c 0,27,28
 692 1073 692 1073 612 1153 c 128,-1,29
 532 1233 532 1233 403 1233 c 0,30,31
 297 1233 297 1233 232 1175 c 128,-1,32
 167 1117 167 1117 106 967 c 1,33,-1
 63 977 l 1,0,1
EndSplineSet
Substitution2: "'locl' Arabic Localized Forms subtable" uni0662
EndChar

StartChar: three
Encoding: 51 51 216
Width: 1024
Flags: W
LayerCount: 2
Fore
SplineSet
166 160 m 0,0,1
 199 160 199 160 237 142 c 128,-1,2
 275 124 275 124 305.5 102.5 c 128,-1,3
 336 81 336 81 380.5 63 c 128,-1,4
 425 45 425 45 469 45 c 0,5,6
 583 45 583 45 660 133 c 128,-1,7
 737 221 737 221 737 350 c 0,8,9
 737 431 737 431 709 491.5 c 128,-1,10
 681 552 681 552 638.5 586.5 c 128,-1,11
 596 621 596 621 536.5 642 c 128,-1,12
 477 663 477 663 424.5 669.5 c 128,-1,13
 372 676 372 676 313 676 c 1,14,-1
 313 702 l 1,15,16
 368 721 368 721 408.5 738 c 128,-1,17
 449 755 449 755 498 785 c 128,-1,18
 547 815 547 815 578.5 849 c 128,-1,19
 610 883 610 883 631.5 933 c 128,-1,20
 653 983 653 983 653 1042 c 0,21,22
 653 1139 653 1139 590.5 1200.5 c 128,-1,23
 528 1262 528 1262 428 1262 c 0,24,25
 332 1262 332 1262 259 1209.5 c 128,-1,26
 186 1157 186 1157 123 1044 c 1,27,-1
 92 1053 l 1,28,29
 111 1105 111 1105 131.5 1147 c 128,-1,30
 152 1189 152 1189 186 1235.5 c 128,-1,31
 220 1282 220 1282 261.5 1312.5 c 128,-1,32
 303 1343 303 1343 363.5 1363.5 c 128,-1,33
 424 1384 424 1384 496 1384 c 0,34,35
 637 1384 637 1384 726 1306 c 128,-1,36
 815 1228 815 1228 815 1104 c 0,37,38
 815 1021 815 1021 772 957 c 128,-1,39
 729 893 729 893 623 821 c 1,40,41
 681 796 681 796 723 768 c 128,-1,42
 765 740 765 740 804.5 697.5 c 128,-1,43
 844 655 844 655 864.5 592 c 128,-1,44
 885 529 885 529 885 449 c 0,45,46
 885 305 885 305 809.5 195 c 128,-1,47
 734 85 734 85 606 28 c 128,-1,48
 478 -29 478 -29 319 -29 c 0,49,50
 212 -29 212 -29 150 2.5 c 128,-1,51
 88 34 88 34 88 88 c 0,52,53
 88 120 88 120 109.5 140 c 128,-1,54
 131 160 131 160 166 160 c 0,0,1
EndSplineSet
Substitution2: "'locl' Arabic Localized Forms subtable" uni0663
EndChar

StartChar: four
Encoding: 52 52 217
Width: 1024
Flags: W
LayerCount: 2
Fore
SplineSet
967 473 m 1,0,-1
 967 342 l 1,1,-1
 758 342 l 1,2,-1
 758 0 l 1,3,-1
 600 0 l 1,4,-1
 600 342 l 1,5,-1
 25 342 l 1,6,-1
 25 473 l 1,7,-1
 668 1384 l 1,8,-1
 758 1384 l 1,9,-1
 758 473 l 1,10,-1
 967 473 l 1,0,-1
598 473 m 1,11,-1
 598 1176 l 1,12,-1
 106 473 l 1,13,-1
 598 473 l 1,11,-1
EndSplineSet
Substitution2: "'locl' Arabic Localized Forms subtable" uni0664
EndChar

StartChar: five
Encoding: 53 53 218
Width: 1024
Flags: W
LayerCount: 2
Fore
SplineSet
731 397 m 0,0,1
 731 475 731 475 705.5 541.5 c 128,-1,2
 680 608 680 608 639.5 652.5 c 128,-1,3
 599 697 599 697 544.5 732.5 c 128,-1,4
 490 768 490 768 436 788.5 c 128,-1,5
 382 809 382 809 325.5 822 c 128,-1,6
 269 835 269 835 228 839.5 c 128,-1,7
 187 844 187 844 156 844 c 0,8,9
 131 844 131 844 131 860 c 0,10,11
 131 866 131 866 133 870 c 2,12,-1
 356 1356 l 1,13,-1
 784 1356 l 2,14,15
 817 1356 817 1356 836.5 1366.5 c 128,-1,16
 856 1377 856 1377 879 1409 c 1,17,-1
 897 1395 l 1,18,-1
 819 1212 l 2,19,20
 814 1201 814 1201 805 1197.5 c 128,-1,21
 796 1194 796 1194 772 1194 c 2,22,-1
 371 1194 l 1,23,-1
 285 1020 l 1,24,25
 584 967 584 967 729 846.5 c 128,-1,26
 874 726 874 726 874 496 c 0,27,28
 874 376 874 376 836 281 c 128,-1,29
 798 186 798 186 740 129.5 c 128,-1,30
 682 73 682 73 605 35.5 c 128,-1,31
 528 -2 528 -2 457 -15.5 c 128,-1,32
 386 -29 386 -29 315 -29 c 0,33,34
 200 -29 200 -29 133 5 c 128,-1,35
 66 39 66 39 66 98 c 0,36,37
 66 174 66 174 154 174 c 0,38,39
 192 174 192 174 232.5 154 c 128,-1,40
 273 134 273 134 302 110.5 c 128,-1,41
 331 87 331 87 370.5 67 c 128,-1,42
 410 47 410 47 446 47 c 0,43,44
 566 47 566 47 648.5 148 c 128,-1,45
 731 249 731 249 731 397 c 0,0,1
EndSplineSet
Substitution2: "'locl' Arabic Localized Forms subtable" uni0665
EndChar

StartChar: six
Encoding: 54 54 219
Width: 1024
Flags: W
LayerCount: 2
Fore
SplineSet
528 -29 m 0,0,1
 322 -29 322 -29 196 136 c 128,-1,2
 70 301 70 301 70 571 c 0,3,4
 70 629 70 629 78 689.5 c 128,-1,5
 86 750 86 750 110 828.5 c 128,-1,6
 134 907 134 907 172 978.5 c 128,-1,7
 210 1050 210 1050 276 1122.5 c 128,-1,8
 342 1195 342 1195 427 1250.5 c 128,-1,9
 512 1306 512 1306 637.5 1347 c 128,-1,10
 763 1388 763 1388 913 1401 c 1,11,-1
 918 1368 l 1,12,13
 677 1328 677 1328 514.5 1172 c 128,-1,14
 352 1016 352 1016 311 784 c 1,15,16
 408 842 408 842 456.5 859.5 c 128,-1,17
 505 877 505 877 573 877 c 0,18,19
 750 877 750 877 854 761.5 c 128,-1,20
 958 646 958 646 958 449 c 0,21,22
 958 237 958 237 838.5 104 c 128,-1,23
 719 -29 719 -29 528 -29 c 0,0,1
496 782 m 0,24,25
 423 782 423 782 375 765 c 128,-1,26
 327 748 327 748 302.5 713.5 c 128,-1,27
 278 679 278 679 269 638.5 c 128,-1,28
 260 598 260 598 260 539 c 0,29,30
 260 302 260 302 338 165.5 c 128,-1,31
 416 29 416 29 551 29 c 0,32,33
 658 29 658 29 716 119.5 c 128,-1,34
 774 210 774 210 774 379 c 0,35,36
 774 571 774 571 701 676.5 c 128,-1,37
 628 782 628 782 496 782 c 0,24,25
EndSplineSet
Substitution2: "'locl' Arabic Localized Forms subtable" uni0666
EndChar

StartChar: seven
Encoding: 55 55 220
Width: 1024
Flags: W
LayerCount: 2
Fore
SplineSet
920 1356 m 1,0,-1
 920 1323 l 1,1,-1
 485 -16 l 1,2,-1
 352 -16 l 1,3,-1
 758 1204 l 1,4,-1
 313 1204 l 2,5,6
 229 1204 229 1204 185.5 1173.5 c 128,-1,7
 142 1143 142 1143 76 1038 c 1,8,-1
 41 1055 l 1,9,-1
 162 1356 l 1,10,-1
 920 1356 l 1,0,-1
EndSplineSet
Substitution2: "'locl' Arabic Localized Forms subtable" uni0667
EndChar

StartChar: eight
Encoding: 56 56 221
Width: 1024
Flags: W
LayerCount: 2
Fore
SplineSet
594 760 m 1,0,1
 779 623 779 623 845 529.5 c 128,-1,2
 911 436 911 436 911 317 c 0,3,4
 911 159 911 159 801.5 65 c 128,-1,5
 692 -29 692 -29 508 -29 c 0,6,7
 335 -29 335 -29 225 65.5 c 128,-1,8
 115 160 115 160 115 309 c 0,9,10
 115 414 115 414 165.5 484 c 128,-1,11
 216 554 216 554 381 680 c 1,12,13
 220 821 220 821 173.5 891 c 128,-1,14
 127 961 127 961 127 1061 c 0,15,16
 127 1200 127 1200 238 1292 c 128,-1,17
 349 1384 349 1384 516 1384 c 0,18,19
 670 1384 670 1384 769 1302 c 128,-1,20
 868 1220 868 1220 868 1094 c 0,21,22
 868 990 868 990 807 916 c 128,-1,23
 746 842 746 842 594 760 c 1,0,1
434 639 m 1,24,25
 345 567 345 567 307.5 495.5 c 128,-1,26
 270 424 270 424 270 326 c 0,27,28
 270 192 270 192 341.5 110.5 c 128,-1,29
 413 29 413 29 530 29 c 0,30,31
 630 29 630 29 693 91.5 c 128,-1,32
 756 154 756 154 756 254 c 0,33,34
 756 283 756 283 752 307.5 c 128,-1,35
 748 332 748 332 737.5 356 c 128,-1,36
 727 380 727 380 717.5 398 c 128,-1,37
 708 416 708 416 686.5 438 c 128,-1,38
 665 460 665 460 650.5 474.5 c 128,-1,39
 636 489 636 489 605 513 c 128,-1,40
 574 537 574 537 555.5 551 c 128,-1,41
 537 565 537 565 497 593.5 c 128,-1,42
 457 622 457 622 434 639 c 1,24,25
535 797 m 1,43,44
 538 799 538 799 563 817 c 128,-1,45
 588 835 588 835 599 844.5 c 128,-1,46
 610 854 610 854 633.5 875.5 c 128,-1,47
 657 897 657 897 670 917 c 128,-1,48
 683 937 683 937 698 965 c 128,-1,49
 713 993 713 993 720 1026 c 128,-1,50
 727 1059 727 1059 727 1096 c 0,51,52
 727 1202 727 1202 665.5 1264.5 c 128,-1,53
 604 1327 604 1327 500 1327 c 0,54,55
 403 1327 403 1327 341 1270 c 128,-1,56
 279 1213 279 1213 279 1124 c 0,57,58
 279 1038 279 1038 338.5 962.5 c 128,-1,59
 398 887 398 887 535 797 c 1,43,44
EndSplineSet
Substitution2: "'locl' Arabic Localized Forms subtable" uni0668
EndChar

StartChar: nine
Encoding: 57 57 222
Width: 1024
Flags: W
LayerCount: 2
Fore
SplineSet
121 -45 m 1,0,-1
 115 -4 l 1,1,2
 349 36 349 36 511.5 194 c 128,-1,3
 674 352 674 352 737 602 c 1,4,5
 655 539 655 539 584.5 512 c 128,-1,6
 514 485 514 485 430 485 c 0,7,8
 264 485 264 485 162.5 599.5 c 128,-1,9
 61 714 61 714 61 901 c 0,10,11
 61 1108 61 1108 182.5 1246 c 128,-1,12
 304 1384 304 1384 487 1384 c 0,13,14
 685 1384 685 1384 812.5 1222 c 128,-1,15
 940 1060 940 1060 940 807 c 0,16,17
 940 751 940 751 933 692.5 c 128,-1,18
 926 634 926 634 904 554.5 c 128,-1,19
 882 475 882 475 846.5 403 c 128,-1,20
 811 331 811 331 747.5 255 c 128,-1,21
 684 179 684 179 601 120.5 c 128,-1,22
 518 62 518 62 394.5 17 c 128,-1,23
 271 -28 271 -28 121 -45 c 1,0,-1
504 573 m 0,24,25
 530 573 530 573 566 580.5 c 128,-1,26
 602 588 602 588 643.5 603.5 c 128,-1,27
 685 619 685 619 713 651.5 c 128,-1,28
 741 684 741 684 741 727 c 2,29,-1
 741 807 l 2,30,31
 741 1065 741 1065 673 1196 c 128,-1,32
 605 1327 605 1327 471 1327 c 0,33,34
 408 1327 408 1327 362.5 1293.5 c 128,-1,35
 317 1260 317 1260 294 1205 c 128,-1,36
 271 1150 271 1150 260.5 1092 c 128,-1,37
 250 1034 250 1034 250 971 c 0,38,39
 250 788 250 788 318.5 680.5 c 128,-1,40
 387 573 387 573 504 573 c 0,24,25
EndSplineSet
Substitution2: "'locl' Arabic Localized Forms subtable" uni0669
EndChar

StartChar: guillemotleft
Encoding: 171 171 223
Width: 909
Flags: W
LayerCount: 2
Fore
SplineSet
219 459 m 1,0,1
 400 229 400 229 481 86 c 0,2,3
 477 72 477 72 463 68 c 0,4,5
 448 76 448 76 29 455 c 1,6,7
 461 851 461 851 463 852 c 0,8,9
 478 846 478 846 483 831 c 0,10,11
 399 678 399 678 219 459 c 1,0,1
616 459 m 1,12,13
 797 229 797 229 878 86 c 0,14,15
 874 72 874 72 860 68 c 0,16,17
 845 76 845 76 426 455 c 1,18,19
 858 851 858 851 860 852 c 0,20,21
 875 846 875 846 880 831 c 0,22,23
 796 678 796 678 616 459 c 1,12,13
EndSplineSet
Substitution2: "'locl' Arabic Localized Forms subtable" guillemotleft.locl
EndChar

StartChar: guillemotright
Encoding: 187 187 224
Width: 903
Flags: W
LayerCount: 2
Fore
SplineSet
293 461 m 1,0,1
 255 519 255 519 184.5 604.5 c 128,-1,2
 114 690 114 690 72.5 747.5 c 128,-1,3
 31 805 31 805 31 834 c 0,4,5
 31 842 31 842 36.5 847 c 128,-1,6
 42 852 42 852 49 852 c 0,7,8
 55 852 55 852 61.5 847 c 128,-1,9
 68 842 68 842 92 819 c 0,10,11
 235 681 235 681 483 465 c 1,12,13
 226 231 226 231 81 95 c 0,14,15
 52 67 52 67 49 68 c 0,16,17
 42 68 42 68 35.5 74.5 c 128,-1,18
 29 81 29 81 29 89 c 0,19,20
 29 117 29 117 70 176 c 128,-1,21
 111 235 111 235 188.5 329.5 c 128,-1,22
 266 424 266 424 293 461 c 1,0,1
684 461 m 1,23,24
 646 519 646 519 575.5 604.5 c 128,-1,25
 505 690 505 690 463.5 747.5 c 128,-1,26
 422 805 422 805 422 834 c 0,27,28
 422 842 422 842 427 847 c 128,-1,29
 432 852 432 852 440 852 c 0,30,31
 446 852 446 852 452.5 847 c 128,-1,32
 459 842 459 842 483 819 c 0,33,34
 626 681 626 681 874 465 c 1,35,36
 617 231 617 231 472 95 c 0,37,38
 443 67 443 67 440 68 c 0,39,40
 433 68 433 68 426.5 74.5 c 128,-1,41
 420 81 420 81 420 89 c 0,42,43
 420 117 420 117 461 176 c 128,-1,44
 502 235 502 235 579.5 329.5 c 128,-1,45
 657 424 657 424 684 461 c 1,23,24
EndSplineSet
Substitution2: "'locl' Arabic Localized Forms subtable" guillemotright.locl
EndChar

StartChar: exclam.locl
Encoding: 65538 -1 225
Width: 641
Flags: W
LayerCount: 2
Fore
SplineSet
463 83 m 1,0,-1
 387 -90 l 1,1,-1
 261 37 l 1,2,-1
 336 210 l 1,3,-1
 463 83 l 1,0,-1
385 374 m 1,4,-1
 343 371 l 1,5,6
 343 420 343 420 301 734 c 0,7,8
 268 983 268 983 220 1211 c 1,9,10
 361 1382 l 1,11,12
 392 1040 392 1040 397 776 c 0,13,14
 401 556 401 556 385 374 c 1,4,-1
EndSplineSet
EndChar

StartChar: period.locl
Encoding: 65539 -1 226
Width: 732
Flags: W
LayerCount: 2
Fore
SplineSet
493 139 m 1,0,-1
 423 -105 l 1,1,-1
 229 15 l 1,2,-1
 299 259 l 1,3,-1
 493 139 l 1,0,-1
EndSplineSet
Substitution2: "Decimal separator subtable" uni066B
EndChar

StartChar: period
Encoding: 46 46 227
Width: 512
Flags: W
LayerCount: 2
Fore
SplineSet
256 205 m 128,-1,1
 302 205 302 205 336.5 170 c 128,-1,2
 371 135 371 135 371 88 c 0,3,4
 371 44 371 44 336 10.5 c 128,-1,5
 301 -23 301 -23 254 -23 c 0,6,7
 210 -23 210 -23 176.5 10.5 c 128,-1,8
 143 44 143 44 143 88 c 0,9,10
 143 135 143 135 176.5 170 c 128,-1,0
 210 205 210 205 256 205 c 128,-1,1
EndSplineSet
Substitution2: "'locl' Arabic Localized Forms subtable" period.locl
EndChar

StartChar: colon.locl
Encoding: 65540 -1 228
Width: 733
Flags: W
LayerCount: 2
Fore
SplineSet
218 778 m 1,0,-1
 345 997 l 1,1,-1
 504 834 l 1,2,-1
 377 614 l 1,3,-1
 218 778 l 1,0,-1
223 49 m 1,4,-1
 350 268 l 1,5,-1
 509 105 l 1,6,-1
 382 -115 l 1,7,-1
 223 49 l 1,4,-1
EndSplineSet
EndChar

StartChar: exclam
Encoding: 33 33 229
Width: 681
Flags: W
LayerCount: 2
Fore
SplineSet
387 360 m 1,0,-1
 360 360 l 1,1,2
 339 609 339 609 315 800.5 c 128,-1,3
 291 992 291 992 278.5 1079.5 c 128,-1,4
 266 1167 266 1167 266 1227 c 0,5,6
 266 1299 266 1299 295 1341.5 c 128,-1,7
 324 1384 324 1384 375 1384 c 0,8,9
 428 1384 428 1384 455.5 1342 c 128,-1,10
 483 1300 483 1300 483 1221 c 0,11,12
 483 1163 483 1163 470.5 1077 c 128,-1,13
 458 991 458 991 433.5 799.5 c 128,-1,14
 409 608 409 608 387 360 c 1,0,-1
375 201 m 0,15,16
 420 201 420 201 452.5 167.5 c 128,-1,17
 485 134 485 134 485 88 c 128,-1,18
 485 42 485 42 453.5 12 c 128,-1,19
 422 -18 422 -18 373 -18 c 0,20,21
 327 -18 327 -18 296.5 12 c 128,-1,22
 266 42 266 42 266 88 c 0,23,24
 266 135 266 135 297.5 168 c 128,-1,25
 329 201 329 201 375 201 c 0,15,16
EndSplineSet
Substitution2: "'locl' Arabic Localized Forms subtable" exclam.locl
EndChar

StartChar: quotedbl
Encoding: 34 34 230
Width: 835
Flags: W
LayerCount: 2
Fore
SplineSet
266 883 m 1,0,-1
 223 883 l 1,1,2
 157 1230 157 1230 157 1300 c 0,3,4
 157 1335 157 1335 182.5 1359.5 c 128,-1,5
 208 1384 208 1384 245 1384 c 0,6,7
 280 1384 280 1384 305.5 1360.5 c 128,-1,8
 331 1337 331 1337 331 1303 c 0,9,10
 331 1274 331 1274 311 1144.5 c 128,-1,11
 291 1015 291 1015 266 883 c 1,0,-1
613 883 m 1,12,-1
 570 883 l 1,13,14
 504 1230 504 1230 504 1300 c 0,15,16
 504 1335 504 1335 529.5 1359.5 c 128,-1,17
 555 1384 555 1384 592 1384 c 0,18,19
 627 1384 627 1384 652.5 1360.5 c 128,-1,20
 678 1337 678 1337 678 1303 c 0,21,22
 678 1274 678 1274 658 1144.5 c 128,-1,23
 638 1015 638 1015 613 883 c 1,12,-1
EndSplineSet
EndChar

StartChar: numbersign
Encoding: 35 35 231
Width: 1024
Flags: W
LayerCount: 2
Fore
SplineSet
965 555 m 1,0,-1
 965 442 l 1,1,-1
 741 442 l 1,2,-1
 678 0 l 1,3,-1
 559 0 l 1,4,-1
 623 442 l 1,5,-1
 348 442 l 1,6,-1
 281 0 l 1,7,-1
 162 0 l 1,8,-1
 229 442 l 1,9,-1
 10 442 l 1,10,-1
 10 555 l 1,11,-1
 248 555 l 1,12,-1
 291 829 l 1,13,-1
 66 829 l 1,14,-1
 66 942 l 1,15,-1
 307 942 l 1,16,-1
 371 1356 l 1,17,-1
 489 1356 l 1,18,-1
 426 942 l 1,19,-1
 698 942 l 1,20,-1
 760 1356 l 1,21,-1
 879 1356 l 1,22,-1
 817 942 l 1,23,-1
 1016 942 l 1,24,-1
 1016 829 l 1,25,-1
 801 829 l 1,26,-1
 760 555 l 1,27,-1
 965 555 l 1,0,-1
682 829 m 1,28,-1
 410 829 l 1,29,-1
 367 555 l 1,30,-1
 641 555 l 1,31,-1
 682 829 l 1,28,-1
EndSplineSet
EndChar

StartChar: dollar
Encoding: 36 36 232
Width: 1024
Flags: W
LayerCount: 2
Fore
SplineSet
106 1049 m 0,0,1
 106 1180 106 1180 198 1260 c 128,-1,2
 290 1340 290 1340 471 1360 c 1,3,-1
 471 1489 l 1,4,-1
 541 1489 l 1,5,-1
 541 1360 l 1,6,7
 667 1345 667 1345 741.5 1320 c 128,-1,8
 816 1295 816 1295 870 1251 c 1,9,-1
 870 1024 l 1,10,-1
 840 1024 l 1,11,12
 814 1155 814 1155 742 1222.5 c 128,-1,13
 670 1290 670 1290 541 1305 c 1,14,-1
 541 801 l 1,15,16
 564 788 564 788 605.5 764 c 128,-1,17
 647 740 647 740 667.5 728 c 128,-1,18
 688 716 688 716 723 694.5 c 128,-1,19
 758 673 758 673 776 659 c 128,-1,20
 794 645 794 645 820.5 622 c 128,-1,21
 847 599 847 599 861 580 c 128,-1,22
 875 561 875 561 892 534 c 128,-1,23
 909 507 909 507 917 480 c 128,-1,24
 925 453 925 453 930.5 419.5 c 128,-1,25
 936 386 936 386 936 348 c 0,26,27
 936 195 936 195 836.5 113.5 c 128,-1,28
 737 32 737 32 541 0 c 1,29,-1
 541 -178 l 1,30,-1
 471 -178 l 1,31,-1
 471 0 l 1,32,33
 341 5 341 5 261 26.5 c 128,-1,34
 181 48 181 48 90 104 c 1,35,-1
 90 371 l 1,36,-1
 121 371 l 1,37,38
 158 210 158 210 242 134 c 128,-1,39
 326 58 326 58 471 57 c 1,40,-1
 471 635 l 1,41,42
 269 748 269 748 187.5 836.5 c 128,-1,43
 106 925 106 925 106 1049 c 0,0,1
469 834 m 1,44,-1
 469 1305 l 1,45,46
 258 1262 258 1262 258 1094 c 0,47,48
 258 1023 258 1023 300 971.5 c 128,-1,49
 342 920 342 920 469 834 c 1,44,-1
541 600 m 1,50,-1
 541 57 l 1,51,52
 661 80 661 80 717.5 139 c 128,-1,53
 774 198 774 198 774 299 c 0,54,55
 774 394 774 394 729 452.5 c 128,-1,56
 684 511 684 511 541 600 c 1,50,-1
EndSplineSet
EndChar

StartChar: percent
Encoding: 37 37 233
Width: 1705
Flags: W
LayerCount: 2
Fore
SplineSet
1370 760 m 0,0,1
 1470 760 1470 760 1525.5 702.5 c 128,-1,2
 1581 645 1581 645 1581 541 c 0,3,4
 1581 421 1581 421 1534 304 c 128,-1,5
 1487 187 1487 187 1405 104 c 0,6,7
 1301 0 1301 0 1165 0 c 0,8,9
 1054 0 1054 0 987 72 c 128,-1,10
 920 144 920 144 920 264 c 0,11,12
 920 389 920 389 984 504.5 c 128,-1,13
 1048 620 1048 620 1152.5 690 c 128,-1,14
 1257 760 1257 760 1370 760 c 0,0,1
1200 61 m 0,15,16
 1287 61 1287 61 1365 139 c 128,-1,17
 1443 217 1443 217 1485.5 325 c 128,-1,18
 1528 433 1528 433 1528 530 c 0,19,20
 1528 597 1528 597 1485.5 645.5 c 128,-1,21
 1443 694 1443 694 1384 694 c 128,-1,22
 1325 694 1325 694 1272.5 652 c 128,-1,23
 1220 610 1220 610 1185.5 547.5 c 128,-1,24
 1151 485 1151 485 1125 414 c 128,-1,25
 1099 343 1099 343 1087 285 c 128,-1,26
 1075 227 1075 227 1075 193 c 0,27,28
 1075 134 1075 134 1110 97.5 c 128,-1,29
 1145 61 1145 61 1200 61 c 0,15,16
578 1356 m 0,30,31
 621 1356 621 1356 651.5 1344.5 c 128,-1,32
 682 1333 682 1333 701.5 1316.5 c 128,-1,33
 721 1300 721 1300 743 1284 c 128,-1,34
 765 1268 765 1268 804 1256.5 c 128,-1,35
 843 1245 843 1245 899 1245 c 0,36,37
 995 1245 995 1245 1065.5 1275.5 c 128,-1,38
 1136 1306 1136 1306 1219 1384 c 1,39,-1
 1298 1384 l 1,40,-1
 510 -27 l 1,41,-1
 412 -27 l 1,42,-1
 1130 1255 l 1,43,44
 1069 1220 1069 1220 1021 1207 c 128,-1,45
 973 1194 973 1194 905 1194 c 0,46,47
 825 1194 825 1194 772 1214 c 1,48,49
 786 1162 786 1162 786 1124 c 0,50,51
 786 1054 786 1054 767 979.5 c 128,-1,52
 748 905 748 905 710.5 836 c 128,-1,53
 673 767 673 767 623 712.5 c 128,-1,54
 573 658 573 658 506 625 c 128,-1,55
 439 592 439 592 367 592 c 0,56,57
 267 592 267 592 196 668.5 c 128,-1,58
 125 745 125 745 125 852 c 0,59,60
 125 947 125 947 163.5 1040 c 128,-1,61
 202 1133 202 1133 264 1202 c 128,-1,62
 326 1271 326 1271 409.5 1313.5 c 128,-1,63
 493 1356 493 1356 578 1356 c 0,30,31
578 1294 m 0,64,65
 513 1294 513 1294 442 1206.5 c 128,-1,66
 371 1119 371 1119 326 999.5 c 128,-1,67
 281 880 281 880 281 786 c 0,68,69
 281 730 281 730 314 696 c 128,-1,70
 347 662 347 662 401 662 c 0,71,72
 482 662 482 662 560 729.5 c 128,-1,73
 638 797 638 797 686.5 906 c 128,-1,74
 735 1015 735 1015 735 1128 c 0,75,76
 735 1168 735 1168 717 1229 c 1,77,78
 676 1240 676 1240 648.5 1253 c 128,-1,79
 621 1266 621 1266 612.5 1274.5 c 128,-1,80
 604 1283 604 1283 595.5 1288.5 c 128,-1,81
 587 1294 587 1294 578 1294 c 0,64,65
EndSplineSet
Substitution2: "'locl' Arabic Localized Forms subtable" uni066A
EndChar

StartChar: ampersand
Encoding: 38 38 234
Width: 1593
Flags: W
LayerCount: 2
Fore
SplineSet
1006 1137 m 0,0,1
 1006 1030 1006 1030 934 949 c 128,-1,2
 862 868 862 868 688 786 c 1,3,4
 757 651 757 651 815 560 c 128,-1,5
 873 469 873 469 958 365 c 1,6,7
 1057 496 1057 496 1101 583.5 c 128,-1,8
 1145 671 1145 671 1145 737 c 0,9,10
 1145 783 1145 783 1117.5 802.5 c 128,-1,11
 1090 822 1090 822 1014 829 c 1,12,-1
 1014 872 l 1,13,-1
 1456 872 l 1,14,-1
 1456 829 l 1,15,16
 1379 820 1379 820 1339.5 795.5 c 128,-1,17
 1300 771 1300 771 1264 709 c 0,18,19
 1257 696 1257 696 1238 662.5 c 128,-1,20
 1219 629 1219 629 1213 618.5 c 128,-1,21
 1207 608 1207 608 1191 580.5 c 128,-1,22
 1175 553 1175 553 1167.5 541 c 128,-1,23
 1160 529 1160 529 1144.5 504 c 128,-1,24
 1129 479 1129 479 1116.5 461 c 128,-1,25
 1104 443 1104 443 1086 417 c 128,-1,26
 1068 391 1068 391 1048.5 364.5 c 128,-1,27
 1029 338 1029 338 1006 307 c 1,28,29
 1147 119 1147 119 1321 119 c 0,30,31
 1376 119 1376 119 1415.5 142 c 128,-1,32
 1455 165 1455 165 1505 227 c 1,33,-1
 1536 205 l 1,34,35
 1490 96 1490 96 1407.5 34.5 c 128,-1,36
 1325 -27 1325 -27 1227 -27 c 0,37,38
 1138 -27 1138 -27 1057 16.5 c 128,-1,39
 976 60 976 60 879 160 c 1,40,41
 763 59 763 59 661.5 16 c 128,-1,42
 560 -27 560 -27 436 -27 c 0,43,44
 273 -27 273 -27 179.5 56 c 128,-1,45
 86 139 86 139 86 285 c 0,46,47
 86 339 86 339 99.5 389 c 128,-1,48
 113 439 113 439 132.5 477.5 c 128,-1,49
 152 516 152 516 186.5 554.5 c 128,-1,50
 221 593 221 593 251 620 c 128,-1,51
 281 647 281 647 327 677.5 c 128,-1,52
 373 708 373 708 404.5 726.5 c 128,-1,53
 436 745 436 745 485 772 c 1,54,55
 443 888 443 888 428.5 949.5 c 128,-1,56
 414 1011 414 1011 414 1069 c 0,57,58
 414 1201 414 1201 505.5 1292.5 c 128,-1,59
 597 1384 597 1384 729 1384 c 0,60,61
 851 1384 851 1384 928.5 1315 c 128,-1,62
 1006 1246 1006 1246 1006 1137 c 0,0,1
657 852 m 1,63,64
 783 919 783 919 840 989 c 128,-1,65
 897 1059 897 1059 897 1145 c 0,66,67
 897 1220 897 1220 850.5 1269.5 c 128,-1,68
 804 1319 804 1319 733 1319 c 0,69,70
 663 1319 663 1319 619 1272 c 128,-1,71
 575 1225 575 1225 575 1151 c 0,72,73
 575 1082 575 1082 593 1015 c 128,-1,74
 611 948 611 948 657 852 c 1,63,64
516 702 m 1,75,76
 382 616 382 616 328 541.5 c 128,-1,77
 274 467 274 467 274 369 c 0,78,79
 274 251 274 251 352.5 165.5 c 128,-1,80
 431 80 431 80 539 80 c 0,81,82
 604 80 604 80 670 110.5 c 128,-1,83
 736 141 736 141 827 213 c 1,84,85
 740 319 740 319 674.5 422.5 c 128,-1,86
 609 526 609 526 516 702 c 1,75,76
EndSplineSet
EndChar

StartChar: quotesingle
Encoding: 39 39 235
Width: 368
Flags: W
LayerCount: 2
Fore
SplineSet
207 883 m 1,0,-1
 164 883 l 1,1,2
 98 1230 98 1230 98 1300 c 0,3,4
 98 1335 98 1335 123.5 1359.5 c 128,-1,5
 149 1384 149 1384 186 1384 c 0,6,7
 221 1384 221 1384 246.5 1360.5 c 128,-1,8
 272 1337 272 1337 272 1303 c 0,9,10
 272 1274 272 1274 252 1144.5 c 128,-1,11
 232 1015 232 1015 207 883 c 1,0,-1
EndSplineSet
EndChar

StartChar: parenleft
Encoding: 40 40 236
Width: 681
Flags: W
LayerCount: 2
Fore
SplineSet
598 -362 m 1,0,1
 554 -336 554 -336 507.5 -298.5 c 128,-1,2
 461 -261 461 -261 401.5 -204 c 128,-1,3
 342 -147 342 -147 290.5 -73 c 128,-1,4
 239 1 239 1 194.5 88.5 c 128,-1,5
 150 176 150 176 124 287 c 128,-1,6
 98 398 98 398 98 516 c 0,7,8
 98 623 98 623 118 722 c 128,-1,9
 138 821 138 821 168 896 c 128,-1,10
 198 971 198 971 245 1042 c 128,-1,11
 292 1113 292 1113 333.5 1160.5 c 128,-1,12
 375 1208 375 1208 431 1255.5 c 128,-1,13
 487 1303 487 1303 522.5 1328.5 c 128,-1,14
 558 1354 558 1354 604 1384 c 1,15,-1
 623 1352 l 1,16,17
 551 1294 551 1294 504.5 1248 c 128,-1,18
 458 1202 458 1202 410 1131.5 c 128,-1,19
 362 1061 362 1061 335 981 c 128,-1,20
 308 901 308 901 291 785 c 128,-1,21
 274 669 274 669 274 522 c 0,22,23
 274 369 274 369 291 248.5 c 128,-1,24
 308 128 308 128 335 45 c 128,-1,25
 362 -38 362 -38 410 -109 c 128,-1,26
 458 -180 458 -180 505 -227 c 128,-1,27
 552 -274 552 -274 623 -330 c 1,28,-1
 598 -362 l 1,0,1
EndSplineSet
EndChar

StartChar: parenright
Encoding: 41 41 237
Width: 681
Flags: W
LayerCount: 2
Fore
SplineSet
84 1384 m 1,0,1
 121 1362 121 1362 160 1332.5 c 128,-1,2
 199 1303 199 1303 249.5 1256 c 128,-1,3
 300 1209 300 1209 345 1155.5 c 128,-1,4
 390 1102 390 1102 434.5 1030 c 128,-1,5
 479 958 479 958 511.5 880 c 128,-1,6
 544 802 544 802 564 705 c 128,-1,7
 584 608 584 608 584 506 c 0,8,9
 584 399 584 399 564 300 c 128,-1,10
 544 201 544 201 514 126 c 128,-1,11
 484 51 484 51 437 -20 c 128,-1,12
 390 -91 390 -91 348.5 -138.5 c 128,-1,13
 307 -186 307 -186 251 -233.5 c 128,-1,14
 195 -281 195 -281 159.5 -306.5 c 128,-1,15
 124 -332 124 -332 78 -362 c 1,16,-1
 59 -330 l 1,17,18
 109 -289 109 -289 145 -256.5 c 128,-1,19
 181 -224 181 -224 220 -179.5 c 128,-1,20
 259 -135 259 -135 285.5 -90 c 128,-1,21
 312 -45 312 -45 337 16 c 128,-1,22
 362 77 362 77 376.5 146 c 128,-1,23
 391 215 391 215 399.5 304.5 c 128,-1,24
 408 394 408 394 408 500 c 0,25,26
 408 610 408 610 399.5 703 c 128,-1,27
 391 796 391 796 376.5 868 c 128,-1,28
 362 940 362 940 337 1002.5 c 128,-1,29
 312 1065 312 1065 285.5 1111 c 128,-1,30
 259 1157 259 1157 220 1202 c 128,-1,31
 181 1247 181 1247 145 1280 c 128,-1,32
 109 1313 109 1313 59 1352 c 1,33,-1
 84 1384 l 1,0,1
EndSplineSet
EndChar

StartChar: asterisk
Encoding: 42 42 238
Width: 1024
Flags: W
LayerCount: 2
Fore
SplineSet
438 618 m 0,0,1
 438 644 438 644 452 682 c 128,-1,2
 466 720 466 720 480 783.5 c 128,-1,3
 494 847 494 847 494 934 c 1,4,5
 429 894 429 894 382.5 850 c 128,-1,6
 336 806 336 806 318.5 780 c 128,-1,7
 301 754 301 754 276 736.5 c 128,-1,8
 251 719 251 719 215 719 c 0,9,10
 181 719 181 719 161 738 c 128,-1,11
 141 757 141 757 141 791 c 128,-1,12
 141 825 141 825 167 843 c 128,-1,13
 193 861 193 861 232.5 868 c 128,-1,14
 272 875 272 875 343 900 c 128,-1,15
 414 925 414 925 479 965 c 1,16,17
 425 993 425 993 366 1012.5 c 128,-1,18
 307 1032 307 1032 270.5 1040 c 128,-1,19
 234 1048 234 1048 202 1058.5 c 128,-1,20
 170 1069 170 1069 155.5 1087 c 128,-1,21
 141 1105 141 1105 141 1137 c 0,22,23
 141 1168 141 1168 161.5 1189 c 128,-1,24
 182 1210 182 1210 211 1210 c 0,25,26
 244 1210 244 1210 269 1192 c 128,-1,27
 294 1174 294 1174 313 1147.5 c 128,-1,28
 332 1121 332 1121 380 1077.5 c 128,-1,29
 428 1034 428 1034 494 995 c 1,30,31
 494 1083 494 1083 481 1146.5 c 128,-1,32
 468 1210 468 1210 455 1248 c 128,-1,33
 442 1286 442 1286 442 1313 c 0,34,35
 442 1344 442 1344 462.5 1364 c 128,-1,36
 483 1384 483 1384 514 1384 c 128,-1,37
 545 1384 545 1384 566.5 1362.5 c 128,-1,38
 588 1341 588 1341 588 1309 c 128,-1,39
 588 1277 588 1277 574 1240 c 128,-1,40
 560 1203 560 1203 546 1142.5 c 128,-1,41
 532 1082 532 1082 532 991 c 1,42,43
 580 1021 580 1021 619.5 1056 c 128,-1,44
 659 1091 659 1091 681 1117 c 128,-1,45
 703 1143 703 1143 723.5 1166 c 128,-1,46
 744 1189 744 1189 764 1201.5 c 128,-1,47
 784 1214 784 1214 809 1214 c 0,48,49
 841 1214 841 1214 862 1192 c 128,-1,50
 883 1170 883 1170 883 1135 c 0,51,52
 883 1102 883 1102 855 1082 c 128,-1,53
 827 1062 827 1062 786 1053 c 128,-1,54
 745 1044 745 1044 676 1020.5 c 128,-1,55
 607 997 607 997 549 963 c 1,56,57
 611 924 611 924 680 900.5 c 128,-1,58
 749 877 749 877 789.5 870.5 c 128,-1,59
 830 864 830 864 857.5 845.5 c 128,-1,60
 885 827 885 827 885 793 c 128,-1,61
 885 759 885 759 865 738 c 128,-1,62
 845 717 845 717 813 717 c 0,63,64
 779 717 779 717 752 734.5 c 128,-1,65
 725 752 725 752 704.5 778 c 128,-1,66
 684 804 684 804 637 849 c 128,-1,67
 590 894 590 894 532 934 c 1,68,69
 532 848 532 848 546.5 783 c 128,-1,70
 561 718 561 718 575.5 681 c 128,-1,71
 590 644 590 644 590 625 c 0,72,73
 590 593 590 593 566 568 c 128,-1,74
 542 543 542 543 510 543 c 0,75,76
 481 543 481 543 459.5 565 c 128,-1,77
 438 587 438 587 438 618 c 0,0,1
EndSplineSet
EndChar

StartChar: plus
Encoding: 43 43 239
Width: 1155
Flags: W
LayerCount: 2
Fore
SplineSet
510 586 m 1,0,-1
 510 1036 l 1,1,-1
 645 1036 l 1,2,-1
 645 586 l 1,3,-1
 1094 586 l 1,4,-1
 1094 451 l 1,5,-1
 645 451 l 1,6,-1
 645 0 l 1,7,-1
 510 0 l 1,8,-1
 510 451 l 1,9,-1
 61 451 l 1,10,-1
 61 586 l 1,11,-1
 510 586 l 1,0,-1
EndSplineSet
EndChar

StartChar: comma
Encoding: 44 44 240
Width: 512
Flags: W
LayerCount: 2
Fore
SplineSet
291 -4 m 0,0,1
 290 -4 290 -4 273.5 -8 c 128,-1,2
 257 -12 257 -12 236 -12 c 0,3,4
 180 -12 180 -12 147.5 15.5 c 128,-1,5
 115 43 115 43 115 92 c 0,6,7
 115 144 115 144 148.5 176.5 c 128,-1,8
 182 209 182 209 236 209 c 0,9,10
 305 209 305 209 352 156.5 c 128,-1,11
 399 104 399 104 399 27 c 0,12,13
 399 -65 399 -65 336 -151.5 c 128,-1,14
 273 -238 273 -238 170 -289 c 1,15,-1
 152 -250 l 1,16,17
 319 -136 319 -136 319 -33 c 0,18,19
 319 -21 319 -21 311 -12.5 c 128,-1,20
 303 -4 303 -4 291 -4 c 0,0,1
EndSplineSet
EndChar

StartChar: hyphen
Encoding: 45 45 241
Width: 681
Flags: W
LayerCount: 2
Fore
SplineSet
80 526 m 1,0,-1
 584 526 l 1,1,-1
 584 397 l 1,2,-1
 80 397 l 1,3,-1
 80 526 l 1,0,-1
EndSplineSet
EndChar

StartChar: slash
Encoding: 47 47 242
Width: 569
Flags: W
LayerCount: 2
Fore
SplineSet
588 1384 m 1,0,-1
 121 -29 l 1,1,-1
 -18 -29 l 1,2,-1
 451 1384 l 1,3,-1
 588 1384 l 1,0,-1
EndSplineSet
EndChar

StartChar: colon
Encoding: 58 58 243
Width: 569
Flags: W
LayerCount: 2
Fore
SplineSet
278.5 205 m 128,-1,1
 324 205 324 205 359 170 c 128,-1,2
 394 135 394 135 394 88 c 0,3,4
 394 44 394 44 359 10.5 c 128,-1,5
 324 -23 324 -23 277 -23 c 0,6,7
 233 -23 233 -23 199.5 10.5 c 128,-1,8
 166 44 166 44 166 88 c 0,9,10
 166 135 166 135 199.5 170 c 128,-1,0
 233 205 233 205 278.5 205 c 128,-1,1
278.5 940 m 128,-1,12
 324 940 324 940 359 905 c 128,-1,13
 394 870 394 870 394 823 c 0,14,15
 394 779 394 779 359 745.5 c 128,-1,16
 324 712 324 712 277 712 c 0,17,18
 233 712 233 712 199.5 745.5 c 128,-1,19
 166 779 166 779 166 823 c 0,20,21
 166 870 166 870 199.5 905 c 128,-1,11
 233 940 233 940 278.5 940 c 128,-1,12
EndSplineSet
Substitution2: "'locl' Arabic Localized Forms subtable" colon.locl
EndChar

StartChar: semicolon
Encoding: 59 59 244
Width: 569
Flags: W
LayerCount: 2
Fore
SplineSet
278.5 940 m 128,-1,1
 324 940 324 940 359 905 c 128,-1,2
 394 870 394 870 394 823 c 0,3,4
 394 779 394 779 359 745.5 c 128,-1,5
 324 712 324 712 277 712 c 0,6,7
 233 712 233 712 199.5 745.5 c 128,-1,8
 166 779 166 779 166 823 c 0,9,10
 166 870 166 870 199.5 905 c 128,-1,0
 233 940 233 940 278.5 940 c 128,-1,1
340 -4 m 0,11,12
 339 -4 339 -4 322.5 -8 c 128,-1,13
 306 -12 306 -12 285 -12 c 0,14,15
 229 -12 229 -12 196.5 15.5 c 128,-1,16
 164 43 164 43 164 92 c 0,17,18
 164 144 164 144 197.5 176.5 c 128,-1,19
 231 209 231 209 285 209 c 0,20,21
 354 209 354 209 401 156.5 c 128,-1,22
 448 104 448 104 448 27 c 0,23,24
 448 -65 448 -65 385 -151.5 c 128,-1,25
 322 -238 322 -238 219 -289 c 1,26,-1
 201 -250 l 1,27,28
 368 -136 368 -136 368 -33 c 0,29,30
 368 -21 368 -21 360 -12.5 c 128,-1,31
 352 -4 352 -4 340 -4 c 0,11,12
EndSplineSet
EndChar

StartChar: less
Encoding: 60 60 245
Width: 1155
Flags: W
LayerCount: 2
Fore
SplineSet
1098 -20 m 1,0,-1
 57 451 l 1,1,-1
 57 586 l 1,2,-1
 1098 1057 l 1,3,-1
 1098 909 l 1,4,-1
 238 518 l 1,5,-1
 1098 127 l 1,6,-1
 1098 -20 l 1,0,-1
EndSplineSet
EndChar

StartChar: equal
Encoding: 61 61 246
Width: 1155
Flags: W
LayerCount: 2
Fore
SplineSet
1094 791 m 1,0,-1
 1094 655 l 1,1,-1
 61 655 l 1,2,-1
 61 791 l 1,3,-1
 1094 791 l 1,0,-1
1094 381 m 1,4,-1
 1094 246 l 1,5,-1
 61 246 l 1,6,-1
 61 381 l 1,7,-1
 1094 381 l 1,4,-1
EndSplineSet
EndChar

StartChar: greater
Encoding: 62 62 247
Width: 1155
Flags: W
LayerCount: 2
Fore
SplineSet
57 1056 m 1,0,-1
 1098 585 l 1,1,-1
 1098 450 l 1,2,-1
 57 -21 l 1,3,-1
 57 127 l 1,4,-1
 917 518 l 1,5,-1
 57 909 l 1,6,-1
 57 1056 l 1,0,-1
EndSplineSet
EndChar

StartChar: question
Encoding: 63 63 248
Width: 909
Flags: W
LayerCount: 2
Fore
SplineSet
471 1384 m 0,0,1
 627 1384 627 1384 737.5 1297.5 c 128,-1,2
 848 1211 848 1211 848 1067 c 0,3,4
 848 1022 848 1022 835.5 976 c 128,-1,5
 823 930 823 930 807 895 c 128,-1,6
 791 860 791 860 757 811 c 128,-1,7
 723 762 723 762 700.5 734 c 128,-1,8
 678 706 678 706 633 651 c 1,9,10
 576 579 576 579 546.5 509 c 128,-1,11
 517 439 517 439 500 336 c 1,12,-1
 465 336 l 1,13,14
 466 374 466 374 468.5 407 c 128,-1,15
 471 440 471 440 479 474.5 c 128,-1,16
 487 509 487 509 491.5 529 c 128,-1,17
 496 549 496 549 511 587 c 128,-1,18
 526 625 526 625 531 637.5 c 128,-1,19
 536 650 536 650 557 697.5 c 128,-1,20
 578 745 578 745 584 758 c 0,21,22
 659 931 659 931 659 1077 c 0,23,24
 659 1180 659 1180 594.5 1251.5 c 128,-1,25
 530 1323 530 1323 438 1323 c 0,26,27
 363 1323 363 1323 303.5 1284 c 128,-1,28
 244 1245 244 1245 244 1196 c 0,29,30
 244 1177 244 1177 283 1127.5 c 128,-1,31
 322 1078 322 1078 322 1044 c 0,32,33
 322 1007 322 1007 298.5 984 c 128,-1,34
 275 961 275 961 238 961 c 0,35,36
 190 961 190 961 164.5 993.5 c 128,-1,37
 139 1026 139 1026 139 1087 c 0,38,39
 139 1214 139 1214 234.5 1299 c 128,-1,40
 330 1384 330 1384 471 1384 c 0,0,1
485 203 m 0,41,42
 529 203 529 203 562.5 169.5 c 128,-1,43
 596 136 596 136 596 90 c 128,-1,44
 596 44 596 44 564 14 c 128,-1,45
 532 -16 532 -16 483 -16 c 0,46,47
 437 -16 437 -16 407 14 c 128,-1,48
 377 44 377 44 377 88 c 0,49,50
 377 137 377 137 408 170 c 128,-1,51
 439 203 439 203 485 203 c 0,41,42
EndSplineSet
EndChar

StartChar: at
Encoding: 64 64 249
Width: 1886
Flags: W
LayerCount: 2
Fore
SplineSet
987 1321 m 0,0,1
 858 1321 858 1321 748.5 1268 c 128,-1,2
 639 1215 639 1215 565.5 1125 c 128,-1,3
 492 1035 492 1035 451 915 c 128,-1,4
 410 795 410 795 410 662 c 0,5,6
 410 395 410 395 578.5 223 c 128,-1,7
 747 51 747 51 1008 51 c 0,8,9
 1110 51 1110 51 1199 73 c 128,-1,10
 1288 95 1288 95 1409 150 c 1,11,-1
 1434 88 l 1,12,13
 1285 21 1285 21 1190.5 -4 c 128,-1,14
 1096 -29 1096 -29 989 -29 c 0,15,16
 833 -29 833 -29 693.5 25 c 128,-1,17
 554 79 554 79 454 171.5 c 128,-1,18
 354 264 354 264 296 393.5 c 128,-1,19
 238 523 238 523 238 668 c 0,20,21
 238 864 238 864 337.5 1029 c 128,-1,22
 437 1194 437 1194 608.5 1289 c 128,-1,23
 780 1384 780 1384 985 1384 c 0,24,25
 1172 1384 1172 1384 1326 1305 c 128,-1,26
 1480 1226 1480 1226 1568.5 1088.5 c 128,-1,27
 1657 951 1657 951 1657 784 c 0,28,29
 1657 654 1657 654 1605.5 540.5 c 128,-1,30
 1554 427 1554 427 1467 360 c 128,-1,31
 1380 293 1380 293 1280 293 c 0,32,33
 1206 293 1206 293 1154.5 334 c 128,-1,34
 1103 375 1103 375 1094 442 c 1,35,36
 1042 373 1042 373 974 334 c 128,-1,37
 906 295 906 295 838 295 c 0,38,39
 763 295 763 295 710 361.5 c 128,-1,40
 657 428 657 428 657 524 c 0,41,42
 657 609 657 609 686.5 699.5 c 128,-1,43
 716 790 716 790 766.5 866 c 128,-1,44
 817 942 817 942 894.5 991 c 128,-1,45
 972 1040 972 1040 1059 1040 c 0,46,47
 1113 1040 1113 1040 1142.5 1018.5 c 128,-1,48
 1172 997 1172 997 1206 934 c 1,49,-1
 1227 1012 l 1,50,-1
 1368 1012 l 1,51,-1
 1235 492 l 1,52,53
 1231 468 1231 468 1231 455 c 0,54,55
 1231 360 1231 360 1311 360 c 0,56,57
 1377 360 1377 360 1438.5 418 c 128,-1,58
 1500 476 1500 476 1537.5 570 c 128,-1,59
 1575 664 1575 664 1575 764 c 0,60,61
 1575 876 1575 876 1528 979 c 128,-1,62
 1481 1082 1481 1082 1402 1157 c 128,-1,63
 1323 1232 1323 1232 1214.5 1276.5 c 128,-1,64
 1106 1321 1106 1321 987 1321 c 0,0,1
1171 831 m 0,65,66
 1171 895 1171 895 1144 922.5 c 128,-1,67
 1117 950 1117 950 1081 950 c 0,68,69
 1044 950 1044 950 997.5 922 c 128,-1,70
 951 894 951 894 907 846 c 128,-1,71
 863 798 863 798 833 720.5 c 128,-1,72
 803 643 803 643 803 557 c 0,73,74
 803 477 803 477 836 430 c 128,-1,75
 869 383 869 383 926 383 c 0,76,77
 976 383 976 383 1023 429.5 c 128,-1,78
 1070 476 1070 476 1101.5 545 c 128,-1,79
 1133 614 1133 614 1152 691 c 128,-1,80
 1171 768 1171 768 1171 831 c 0,65,66
EndSplineSet
EndChar

StartChar: bracketleft
Encoding: 91 91 250
Width: 681
Flags: W
LayerCount: 2
Fore
SplineSet
612 -268 m 1,0,-1
 612 -319 l 1,1,-1
 180 -319 l 1,2,-1
 180 1356 l 1,3,-1
 612 1356 l 1,4,-1
 612 1305 l 1,5,-1
 428 1305 l 2,6,7
 379 1305 379 1305 357.5 1283.5 c 128,-1,8
 336 1262 336 1262 336 1214 c 2,9,-1
 336 -162 l 2,10,11
 336 -268 336 -268 436 -268 c 2,12,-1
 612 -268 l 1,0,-1
EndSplineSet
EndChar

StartChar: backslash
Encoding: 92 92 251
Width: 606
Flags: W
LayerCount: 2
Fore
SplineSet
0 1384 m 1,0,-1
 137 1384 l 1,1,-1
 606 -29 l 1,2,-1
 467 -29 l 1,3,-1
 0 1384 l 1,0,-1
EndSplineSet
EndChar

StartChar: bracketright
Encoding: 93 93 252
Width: 681
Flags: W
LayerCount: 2
Fore
SplineSet
70 1304 m 1,0,-1
 70 1355 l 1,1,-1
 502 1355 l 1,2,-1
 502 -320 l 1,3,-1
 70 -320 l 1,4,-1
 70 -269 l 1,5,-1
 254 -269 l 2,6,7
 303 -269 303 -269 324.5 -247 c 128,-1,8
 346 -225 346 -225 346 -178 c 2,9,-1
 346 1198 l 2,10,11
 346 1252 346 1252 321.5 1278 c 128,-1,12
 297 1304 297 1304 246 1304 c 2,13,-1
 70 1304 l 1,0,-1
EndSplineSet
EndChar

StartChar: asciicircum
Encoding: 94 94 253
Width: 960
Flags: W
LayerCount: 2
Fore
SplineSet
188 608 m 1,0,-1
 49 608 l 1,1,-1
 420 1356 l 1,2,-1
 543 1356 l 1,3,-1
 913 608 l 1,4,-1
 774 608 l 1,5,-1
 481 1200 l 1,6,-1
 188 608 l 1,0,-1
EndSplineSet
EndChar

StartChar: underscore
Encoding: 95 95 254
Width: 1024
Flags: W
LayerCount: 2
Fore
SplineSet
1024 -256 m 1,0,-1
 0 -256 l 1,1,-1
 0 -154 l 1,2,-1
 1024 -154 l 1,3,-1
 1024 -256 l 1,0,-1
EndSplineSet
EndChar

StartChar: braceleft
Encoding: 123 123 255
Width: 983
Flags: W
LayerCount: 2
Fore
SplineSet
717 -371 m 1,0,1
 646 -370 646 -370 597.5 -363 c 128,-1,2
 549 -356 549 -356 504.5 -338.5 c 128,-1,3
 460 -321 460 -321 434.5 -289.5 c 128,-1,4
 409 -258 409 -258 394 -207 c 128,-1,5
 379 -156 379 -156 379 -84 c 2,6,-1
 379 279 l 2,7,8
 379 385 379 385 343.5 432.5 c 128,-1,9
 308 480 308 480 205 512 c 1,10,11
 308 543 308 543 343.5 589.5 c 128,-1,12
 379 636 379 636 379 743 c 2,13,-1
 379 1108 l 2,14,15
 379 1160 379 1160 386.5 1200.5 c 128,-1,16
 394 1241 394 1241 407.5 1270.5 c 128,-1,17
 421 1300 421 1300 444 1321.5 c 128,-1,18
 467 1343 467 1343 492.5 1356 c 128,-1,19
 518 1369 518 1369 555 1377 c 128,-1,20
 592 1385 592 1385 629.5 1388.5 c 128,-1,21
 667 1392 667 1392 717 1393 c 1,22,-1
 717 1370 l 1,23,24
 611 1342 611 1342 570.5 1287.5 c 128,-1,25
 530 1233 530 1233 530 1118 c 2,26,-1
 530 774 l 2,27,28
 530 646 530 646 491.5 593.5 c 128,-1,29
 453 541 453 541 338 510 c 1,30,31
 453 481 453 481 491.5 428.5 c 128,-1,32
 530 376 530 376 530 248 c 2,33,-1
 530 -96 l 2,34,35
 530 -211 530 -211 570.5 -265.5 c 128,-1,36
 611 -320 611 -320 717 -348 c 1,37,-1
 717 -371 l 1,0,1
EndSplineSet
EndChar

StartChar: bar
Encoding: 124 124 256
Width: 409
Flags: W
LayerCount: 2
Fore
SplineSet
137 -29 m 1,0,-1
 137 1384 l 1,1,-1
 272 1384 l 1,2,-1
 272 -29 l 1,3,-1
 137 -29 l 1,0,-1
EndSplineSet
EndChar

StartChar: braceright
Encoding: 125 125 257
Width: 983
Flags: W
LayerCount: 2
Fore
SplineSet
266 1393 m 1,0,1
 325 1392 325 1392 367.5 1387 c 128,-1,2
 410 1382 410 1382 450.5 1371 c 128,-1,3
 491 1360 491 1360 517.5 1339.5 c 128,-1,4
 544 1319 544 1319 564.5 1288 c 128,-1,5
 585 1257 585 1257 594.5 1211.5 c 128,-1,6
 604 1166 604 1166 604 1106 c 2,7,-1
 604 743 l 2,8,9
 604 637 604 637 639.5 589.5 c 128,-1,10
 675 542 675 542 778 510 c 1,11,12
 675 479 675 479 639.5 432.5 c 128,-1,13
 604 386 604 386 604 279 c 2,14,-1
 604 -86 l 2,15,16
 604 -138 604 -138 596.5 -178.5 c 128,-1,17
 589 -219 589 -219 575.5 -248.5 c 128,-1,18
 562 -278 562 -278 539 -299.5 c 128,-1,19
 516 -321 516 -321 490.5 -334 c 128,-1,20
 465 -347 465 -347 428 -355.5 c 128,-1,21
 391 -364 391 -364 353.5 -367 c 128,-1,22
 316 -370 316 -370 266 -371 c 1,23,-1
 266 -348 l 1,24,25
 372 -320 372 -320 412.5 -265.5 c 128,-1,26
 453 -211 453 -211 453 -96 c 2,27,-1
 453 248 l 2,28,29
 453 335 453 335 469.5 384 c 128,-1,30
 486 433 486 433 526 462 c 128,-1,31
 566 491 566 491 645 512 c 1,32,33
 566 532 566 532 526 560.5 c 128,-1,34
 486 589 486 589 469.5 637.5 c 128,-1,35
 453 686 453 686 453 774 c 2,36,-1
 453 1118 l 2,37,38
 453 1233 453 1233 412.5 1287.5 c 128,-1,39
 372 1342 372 1342 266 1370 c 1,40,-1
 266 1393 l 1,0,1
EndSplineSet
EndChar

StartChar: asciitilde
Encoding: 126 126 258
Width: 1107
Flags: W
LayerCount: 2
Fore
SplineSet
334 655 m 0,0,1
 388 655 388 655 438 640.5 c 128,-1,2
 488 626 488 626 527 606 c 128,-1,3
 566 586 566 586 602.5 565.5 c 128,-1,4
 639 545 639 545 681.5 530.5 c 128,-1,5
 724 516 724 516 766 516 c 0,6,7
 813 516 813 516 845.5 538.5 c 128,-1,8
 878 561 878 561 918 621 c 1,9,-1
 1028 555 l 1,10,11
 958 457 958 457 902.5 419 c 128,-1,12
 847 381 847 381 776 381 c 0,13,14
 722 381 722 381 672 395.5 c 128,-1,15
 622 410 622 410 583 430 c 128,-1,16
 544 450 544 450 507.5 470.5 c 128,-1,17
 471 491 471 491 428.5 505.5 c 128,-1,18
 386 520 386 520 344 520 c 0,19,20
 297 520 297 520 265 498 c 128,-1,21
 233 476 233 476 193 416 c 1,22,-1
 82 481 l 1,23,24
 152 579 152 579 207.5 617 c 128,-1,25
 263 655 263 655 334 655 c 0,0,1
EndSplineSet
EndChar

StartChar: plusminus
Encoding: 177 177 259
Width: 1155
Flags: W
LayerCount: 2
Fore
SplineSet
510 846 m 1,0,-1
 510 1296 l 1,1,-1
 645 1296 l 1,2,-1
 645 846 l 1,3,-1
 1094 846 l 1,4,-1
 1094 711 l 1,5,-1
 645 711 l 1,6,-1
 645 260 l 1,7,-1
 510 260 l 1,8,-1
 510 711 l 1,9,-1
 61 711 l 1,10,-1
 61 846 l 1,11,-1
 510 846 l 1,0,-1
61 0 m 1,12,-1
 61 135 l 1,13,-1
 1094 135 l 1,14,-1
 1094 0 l 1,15,-1
 61 0 l 1,12,-1
EndSplineSet
EndChar

StartChar: paragraph
Encoding: 182 182 260
Width: 989
Flags: W
LayerCount: 2
Fore
SplineSet
414 559 m 1,0,1
 320 562 320 562 250.5 584 c 128,-1,2
 181 606 181 606 126.5 653 c 128,-1,3
 72 700 72 700 44 781 c 128,-1,4
 16 862 16 862 16 977 c 0,5,6
 16 1177 16 1177 117 1266.5 c 128,-1,7
 218 1356 218 1356 444 1356 c 2,8,-1
 983 1356 l 1,9,-1
 983 1317 l 1,10,11
 920 1311 920 1311 887.5 1303.5 c 128,-1,12
 855 1296 855 1296 834.5 1274.5 c 128,-1,13
 814 1253 814 1253 808.5 1222.5 c 128,-1,14
 803 1192 803 1192 803 1133 c 2,15,-1
 803 -86 l 2,16,17
 803 -144 803 -144 808.5 -175 c 128,-1,18
 814 -206 814 -206 835 -227.5 c 128,-1,19
 856 -249 856 -249 888.5 -257 c 128,-1,20
 921 -265 921 -265 983 -270 c 1,21,-1
 983 -315 l 1,22,-1
 668 -315 l 1,23,-1
 668 1311 l 1,24,-1
 549 1311 l 1,25,-1
 549 -315 l 1,26,-1
 233 -315 l 1,27,-1
 233 -270 l 1,28,29
 297 -266 297 -266 329.5 -258.5 c 128,-1,30
 362 -251 362 -251 383 -226.5 c 128,-1,31
 404 -202 404 -202 409 -167 c 128,-1,32
 414 -132 414 -132 414 -63 c 2,33,-1
 414 559 l 1,0,1
414 1311 m 1,34,35
 351 1306 351 1306 311 1292 c 128,-1,36
 271 1278 271 1278 237 1244 c 128,-1,37
 203 1210 203 1210 187.5 1146 c 128,-1,38
 172 1082 172 1082 172 985 c 0,39,40
 172 791 172 791 227 704 c 128,-1,41
 282 617 282 617 414 604 c 1,42,-1
 414 1311 l 1,34,35
EndSplineSet
Substitution2: "'rtlm' Mirrored forms subtable" paragraph.rtlm
EndChar

StartChar: divide
Encoding: 247 247 261
Width: 1155
Flags: W
LayerCount: 2
Fore
SplineSet
1094 451 m 1,0,-1
 61 451 l 1,1,-1
 61 586 l 1,2,-1
 1094 586 l 1,3,-1
 1094 451 l 1,0,-1
578 1057 m 128,-1,5
 624 1057 624 1057 658 1022 c 128,-1,6
 692 987 692 987 692 940 c 0,7,8
 692 896 692 896 657 862.5 c 128,-1,9
 622 829 622 829 575 829 c 0,10,11
 531 829 531 829 498 862.5 c 128,-1,12
 465 896 465 896 465 940 c 0,13,14
 465 987 465 987 498.5 1022 c 128,-1,4
 532 1057 532 1057 578 1057 c 128,-1,5
578 207 m 128,-1,16
 624 207 624 207 658 172 c 128,-1,17
 692 137 692 137 692 90 c 0,18,19
 692 46 692 46 657 13 c 128,-1,20
 622 -20 622 -20 575 -20 c 0,21,22
 531 -20 531 -20 498 13 c 128,-1,23
 465 46 465 46 465 90 c 0,24,25
 465 137 465 137 498.5 172 c 128,-1,15
 532 207 532 207 578 207 c 128,-1,16
EndSplineSet
EndChar

StartChar: multiply
Encoding: 215 215 262
Width: 1155
Flags: W
LayerCount: 2
Fore
SplineSet
479 518 m 1,0,-1
 78 920 l 1,1,-1
 176 1018 l 1,2,-1
 578 614 l 1,3,-1
 979 1018 l 1,4,-1
 1077 920 l 1,5,-1
 676 518 l 1,6,-1
 1077 115 l 1,7,-1
 979 16 l 1,8,-1
 578 420 l 1,9,-1
 176 16 l 1,10,-1
 78 115 l 1,11,-1
 479 518 l 1,0,-1
EndSplineSet
EndChar

StartChar: paragraph.rtlm
Encoding: 65541 -1 263
Width: 989
Flags: W
LayerCount: 2
Fore
SplineSet
575 559 m 1,0,1
 575 -63 l 2,2,3
 575 -132 575 -132 580 -167 c 128,-1,4
 585 -202 585 -202 606 -226.5 c 128,-1,5
 627 -251 627 -251 659.5 -258.5 c 128,-1,6
 692 -266 692 -266 756 -270 c 1,7,-1
 756 -315 l 1,8,-1
 440 -315 l 1,9,-1
 440 1311 l 1,10,-1
 321 1311 l 1,11,-1
 321 -315 l 1,12,-1
 6 -315 l 1,13,-1
 6 -270 l 1,14,15
 68 -265 68 -265 100.5 -257 c 128,-1,16
 133 -249 133 -249 154 -227.5 c 128,-1,17
 175 -206 175 -206 180.5 -175 c 128,-1,18
 186 -144 186 -144 186 -86 c 2,19,-1
 186 1133 l 2,20,21
 186 1192 186 1192 180.5 1222.5 c 128,-1,22
 175 1253 175 1253 154.5 1274.5 c 128,-1,23
 134 1296 134 1296 101.5 1303.5 c 128,-1,24
 69 1311 69 1311 6 1317 c 1,25,-1
 6 1356 l 1,26,-1
 545 1356 l 2,27,28
 771 1356 771 1356 872 1266.5 c 128,-1,29
 973 1177 973 1177 973 977 c 0,30,31
 973 862 973 862 945 781 c 128,-1,32
 917 700 917 700 862.5 653 c 128,-1,33
 808 606 808 606 738.5 584 c 128,-1,34
 669 562 669 562 575 559 c 1,0,1
575 1311 m 1,35,-1
 575 604 l 1,36,37
 707 617 707 617 762 704 c 128,-1,38
 817 791 817 791 817 985 c 0,39,40
 817 1082 817 1082 801.5 1146 c 128,-1,41
 786 1210 786 1210 752 1244 c 128,-1,42
 718 1278 718 1278 678 1292 c 128,-1,43
 638 1306 638 1306 575 1311 c 1,35,-1
EndSplineSet
EndChar

StartChar: guillemotleft.locl
Encoding: 65542 -1 264
Width: 557
Flags: W
LayerCount: 2
Fore
SplineSet
225 849 m 1,0,1
 130 699 130 699 130 470 c 128,-1,2
 130 241 130 241 235 63 c 1,3,-1
 203 44 l 1,4,5
 112 124 112 124 80 207 c 0,6,7
 29 340 29 340 29 437 c 0,8,9
 29 614 29 614 94 745 c 0,10,11
 131 820 131 820 190 871 c 1,12,-1
 225 849 l 1,0,1
519 849 m 1,13,14
 424 699 424 699 424 470 c 128,-1,15
 424 241 424 241 528 62 c 1,16,-1
 497 44 l 1,17,18
 407 120 407 120 373 208 c 0,19,20
 324 333 324 333 324 471 c 0,21,22
 324 617 324 617 388 745 c 0,23,24
 425 820 425 820 484 870 c 1,25,-1
 519 849 l 1,13,14
EndSplineSet
EndChar

StartChar: guillemotright.locl
Encoding: 65543 -1 265
Width: 581
Flags: W
LayerCount: 2
Fore
SplineSet
364 838 m 1,0,1
 399 860 l 1,2,3
 458 809 458 809 495 734 c 0,4,5
 560 602 560 602 560 426 c 0,6,7
 560 330 560 330 509 196 c 0,8,9
 477 113 477 113 386 33 c 1,10,-1
 354 52 l 1,11,12
 459 230 459 230 459 459 c 128,-1,13
 459 688 459 688 364 838 c 1,0,1
70 837 m 1,14,-1
 105 858 l 1,15,16
 164 808 164 808 201 733 c 0,17,18
 265 605 265 605 265 459 c 0,19,20
 265 321 265 321 216 196 c 0,21,22
 182 108 182 108 92 32 c 1,23,-1
 61 50 l 1,24,25
 165 229 165 229 165 458 c 128,-1,26
 165 687 165 687 70 837 c 1,14,-1
EndSplineSet
EndChar

StartChar: ellipsis
Encoding: 8230 8230 266
Width: 2048
Flags: W
LayerCount: 2
Fore
SplineSet
338 205 m 0,0,1
 380 205 380 205 411 174.5 c 128,-1,2
 442 144 442 144 442 102 c 0,3,4
 442 61 442 61 411.5 31.5 c 128,-1,5
 381 2 381 2 338 2 c 0,6,7
 297 2 297 2 268.5 31.5 c 128,-1,8
 240 61 240 61 240 104 c 0,9,10
 240 144 240 144 270 174.5 c 128,-1,11
 300 205 300 205 338 205 c 0,0,1
1022 205 m 0,12,13
 1064 205 1064 205 1095 174.5 c 128,-1,14
 1126 144 1126 144 1126 102 c 0,15,16
 1126 61 1126 61 1095.5 31.5 c 128,-1,17
 1065 2 1065 2 1022 2 c 0,18,19
 981 2 981 2 952.5 31.5 c 128,-1,20
 924 61 924 61 924 104 c 0,21,22
 924 144 924 144 954 174.5 c 128,-1,23
 984 205 984 205 1022 205 c 0,12,13
1702 205 m 0,24,25
 1744 205 1744 205 1775 174.5 c 128,-1,26
 1806 144 1806 144 1806 102 c 0,27,28
 1806 61 1806 61 1775.5 31.5 c 128,-1,29
 1745 2 1745 2 1702 2 c 0,30,31
 1661 2 1661 2 1632.5 31.5 c 128,-1,32
 1604 61 1604 61 1604 104 c 0,33,34
 1604 144 1604 144 1634 174.5 c 128,-1,35
 1664 205 1664 205 1702 205 c 0,24,25
EndSplineSet
Substitution2: "'locl' Arabic Localized Forms subtable" ellipsis.locl
EndChar

StartChar: ellipsis.locl
Encoding: 65544 -1 267
Width: 2166
Flags: W
LayerCount: 2
Fore
SplineSet
496 138 m 1,0,-1
 426 -106 l 1,1,-1
 232 14 l 1,2,-1
 302 258 l 1,3,-1
 496 138 l 1,0,-1
1956 139 m 1,4,-1
 1886 -105 l 1,5,-1
 1692 15 l 1,6,-1
 1762 259 l 1,7,-1
 1956 139 l 1,4,-1
1234 139 m 1,8,-1
 1164 -105 l 1,9,-1
 970 15 l 1,10,-1
 1040 259 l 1,11,-1
 1234 139 l 1,8,-1
EndSplineSet
EndChar

StartChar: uni066B
Encoding: 1643 1643 268
Width: 900
Flags: W
LayerCount: 2
Fore
SplineSet
484 19 m 0,0,1
 483 19 483 19 466.5 15 c 128,-1,2
 450 11 450 11 429 11 c 0,3,4
 373 11 373 11 340.5 38.5 c 128,-1,5
 308 66 308 66 308 115 c 0,6,7
 308 167 308 167 341.5 199.5 c 128,-1,8
 375 232 375 232 429 232 c 0,9,10
 498 232 498 232 545 179.5 c 128,-1,11
 592 127 592 127 592 50 c 0,12,13
 592 -126 592 -126 506 -244 c 0,14,15
 443 -330 443 -330 340 -381 c 1,16,-1
 322 -342 l 1,17,18
 512 -228 512 -228 512 -10 c 0,19,20
 512 2 512 2 504 10.5 c 128,-1,21
 496 19 496 19 484 19 c 0,0,1
EndSplineSet
EndChar

StartChar: twodots
Encoding: 65545 -1 269
Width: 734
Flags: W
LayerCount: 2
Fore
SplineSet
655 76 m 25,0,-1
 540 -60 l 1,1,-1
 399 66 l 1,2,-1
 509 200 l 1,3,-1
 655 76 l 25,0,-1
336 78 m 25,4,-1
 220 -58 l 1,5,-1
 80 68 l 1,6,-1
 190 202 l 1,7,-1
 336 78 l 25,4,-1
EndSplineSet
EndChar

StartChar: onedot
Encoding: 65546 -1 270
Width: 729
Flags: W
LayerCount: 2
Fore
SplineSet
440 -60 m 1,0,-1
 220 28 l 1,1,-1
 295 199 l 1,2,-1
 517 115 l 1,3,-1
 440 -60 l 1,0,-1
EndSplineSet
EndChar

StartChar: threedots
Encoding: 65547 -1 271
Width: 732
Flags: W
LayerCount: 2
Fore
SplineSet
396 250 m 1,0,-1
 237 376 l 1,1,-1
 335 491 l 1,2,-1
 492 371 l 1,3,-1
 396 250 l 1,0,-1
EndSplineSet
Refer: 269 -1 N 1 0 0 1 0 0 2
EndChar

StartChar: threedots.reversed
Encoding: 65548 -1 272
Width: 732
Flags: W
LayerCount: 2
Fore
SplineSet
655 215 m 25,0,-1
 509 91 l 1,1,-1
 399 225 l 1,2,-1
 540 351 l 1,3,-1
 655 215 l 25,0,-1
336 213 m 25,4,-1
 190 89 l 1,5,-1
 80 223 l 1,6,-1
 220 349 l 1,7,-1
 336 213 l 25,4,-1
396 41 m 1,8,-1
 492 -80 l 1,9,-1
 335 -200 l 1,10,-1
 237 -85 l 1,11,-1
 396 41 l 1,8,-1
EndSplineSet
EndChar

StartChar: uni0628.isol.base
Encoding: 65549 -1 273
Width: 1489
Flags: W
LayerCount: 2
Fore
SplineSet
1460 326 m 0,0,1
 1460 229 1460 229 1456.5 165 c 128,-1,2
 1453 101 1453 101 1446 65 c 0,3,4
 1443 51 1443 51 1180 18 c 1,5,6
 996 -4 996 -4 825 -4 c 0,7,8
 439 -4 439 -4 318 77 c 1,9,10
 185 162 185 162 185 331 c 0,11,12
 185 450 185 450 287 606 c 0,13,14
 306 636 306 636 317 648 c 1,15,16
 316 639 316 639 314 629 c 0,17,18
 295 534 295 534 295 501 c 0,19,20
 295 433 295 433 316.5 382.5 c 128,-1,21
 338 332 338 332 384 298 c 0,22,23
 430 264 430 264 504 247 c 0,24,25
 674 208 674 208 1123 232 c 0,26,27
 1215 237 1215 237 1315 253 c 1,28,-1
 1326 269 l 1,29,30
 1311 324 1311 324 1276 381.5 c 128,-1,31
 1241 439 1241 439 1174 508 c 1,32,-1
 1313 693 l 1,33,-1
 1314 694 l 1,34,35
 1314 695 1314 695 1315.5 694 c 128,-1,36
 1317 693 1317 693 1319 691 c 0,37,38
 1460 544 1460 544 1460 326 c 0,0,1
EndSplineSet
EndChar

StartChar: uni0628.fina.base
Encoding: 65550 -1 274
Width: 1297
Flags: W
LayerCount: 2
Fore
SplineSet
1306 1 m 1,0,-1
 437 1 l 1,1,2
 210 14 210 14 125 81 c 24,3,4
 31 155 31 155 31 337 c 0,5,6
 31 457 31 457 132 612 c 1,7,8
 162 654 l 1,9,10
 161 645 161 645 159 635 c 0,11,12
 141 545 141 545 141 507 c 0,13,14
 141 444 141 444 160.5 394 c 128,-1,15
 180 344 180 344 223 309.5 c 128,-1,16
 266 275 266 275 333.5 257 c 128,-1,17
 401 239 401 239 497 239 c 2,18,-1
 1138 239 l 1,19,-1
 1150 259 l 1,20,-1
 1017 512 l 1,21,-1
 1158 699 l 1,22,-1
 1159 701 l 1,23,-1
 1162 698 l 1,24,-1
 1306 250 l 1,25,-1
 1306 1 l 1,0,-1
EndSplineSet
EndChar

StartChar: uni0628.init.base
Encoding: 65551 -1 275
Width: 739
Flags: W
LayerCount: 2
Fore
SplineSet
698 37 m 0,0,1
 697 0 697 0 641 0 c 2,2,-1
 -100 0 l 1,3,-1
 -100 232 l 1,4,-1
 519 232 l 1,5,-1
 532 250 l 1,6,7
 512 313 512 313 480.5 373 c 128,-1,8
 449 433 449 433 406 487 c 1,9,-1
 532 689 l 1,10,11
 534 697 534 697 540 691 c 1,12,13
 699 472 699 472 699 163 c 0,14,15
 699 63 699 63 698 37 c 0,0,1
EndSplineSet
EndChar

StartChar: uni0641.isol.base
Encoding: 65552 -1 276
Width: 1684
Flags: W
LayerCount: 2
Fore
SplineSet
1566 476 m 1,0,1
 1550 533 1550 533 1531 581.5 c 128,-1,2
 1512 630 1512 630 1487 675 c 0,3,4
 1424 790 1424 790 1365 790 c 0,5,6
 1278 790 1278 790 1189 662 c 1,7,-1
 1193 644 l 1,8,9
 1256 604 1256 604 1343.5 558.5 c 128,-1,10
 1431 513 1431 513 1549 459 c 1,11,-1
 1566 476 l 1,0,1
1657 432 m 0,12,13
 1657 125 1657 125 1579 41 c 0,14,15
 1538 0 1538 0 1333 0 c 2,16,-1
 913 0 l 1,17,-1
 511 -1 l 2,18,19
 185 -1 185 -1 185 254 c 0,20,21
 185 410 185 410 246 539 c 1,22,-1
 247 540 l 1,23,-1
 247 538 l 1,24,-1
 247 509 l 2,25,26
 247 410 247 410 251 388 c 0,27,28
 274 239 274 239 450 238 c 2,29,-1
 599 239 l 1,30,-1
 1517 239 l 1,31,-1
 1523 265 l 1,32,33
 1396 325 1396 325 1320 364 c 128,-1,34
 1244 403 1244 403 1212 424 c 0,35,36
 1107 491 1107 491 1107 563 c 0,37,38
 1107 634 1107 634 1217 786 c 1,39,-1
 1218 786 l 1,40,41
 1331 941 1331 941 1396 941 c 0,42,43
 1480 941 1480 941 1562 805 c 0,44,45
 1657 647 1657 647 1657 432 c 0,12,13
EndSplineSet
EndChar

StartChar: uni0641.fina.base
Encoding: 65553 -1 277
Width: 1523
Flags: W
LayerCount: 2
Fore
SplineSet
1424 476 m 1,0,1
 1407 533 1407 533 1388 581.5 c 128,-1,2
 1369 630 1369 630 1344 675 c 0,3,4
 1283 790 1283 790 1222 790 c 0,5,6
 1135 790 1135 790 1046 662 c 1,7,-1
 1050 644 l 1,8,9
 1113 605 1113 605 1201 559 c 128,-1,10
 1289 513 1289 513 1407 459 c 1,11,-1
 1424 476 l 1,0,1
1525 0 m 1,12,-1
 780 0 l 1,13,-1
 379 -1 l 2,14,15
 53 -1 53 -1 53 254 c 0,16,17
 53 414 53 414 114 539 c 1,18,-1
 115 540 l 1,19,-1
 115 538 l 1,20,-1
 115 520 l 2,21,22
 115 414 115 414 118 388 c 0,23,24
 141 239 141 239 318 238 c 2,25,-1
 466 239 l 1,26,-1
 1384 239 l 1,27,-1
 1389 265 l 1,28,29
 1259 322 1259 322 1181.5 361.5 c 128,-1,30
 1104 401 1104 401 1069 424 c 0,31,32
 964 491 964 491 964 563 c 0,33,34
 964 634 964 634 1074 786 c 1,35,-1
 1076 786 l 1,36,37
 1186 941 1186 941 1254 941 c 0,38,39
 1338 941 1338 941 1420 805 c 0,40,41
 1468 726 1468 726 1491 633.5 c 128,-1,42
 1514 541 1514 541 1514 432 c 2,43,-1
 1514 431 l 1,44,-1
 1525 251 l 1,45,-1
 1525 0 l 1,12,-1
EndSplineSet
EndChar

StartChar: uni0641.init.base
Encoding: 65554 -1 278
Width: 721
Flags: W
LayerCount: 2
Fore
SplineSet
594 432 m 1,0,1
 576 489 576 489 555.5 536.5 c 128,-1,2
 535 584 535 584 510 629 c 1,3,-1
 510 630 l 1,4,5
 445 741 445 741 386 741 c 2,6,-1
 385 741 l 2,7,8
 298 740 298 740 212 609 c 1,9,-1
 217 591 l 1,10,11
 353 513 353 513 576 416 c 1,12,-1
 594 432 l 1,0,1
686 336 m 0,13,14
 686 130 686 130 644 61 c 0,15,16
 608 1 608 1 544 1 c 2,17,-1
 -100 1 l 1,18,-1
 -100 240 l 1,19,-1
 408 239 l 1,20,-1
 482 239 l 1,21,-1
 486 266 l 1,22,23
 395 291 395 291 334.5 319 c 128,-1,24
 274 347 274 347 236 371 c 0,25,26
 132 436 132 436 132 508 c 2,27,-1
 132 510 l 2,28,29
 132 577 132 577 238 734 c 256,30,31
 345 893 345 893 412 893 c 2,32,-1
 415 893 l 2,33,34
 499 893 499 893 582 761 c 0,35,36
 686 597 686 597 686 336 c 0,13,14
EndSplineSet
EndChar

StartChar: uni0641.medi.base
Encoding: 65555 -1 279
Width: 724
Flags: W
LayerCount: 2
Fore
SplineSet
584 432 m 1,0,1
 566 489 566 489 545.5 536.5 c 128,-1,2
 525 584 525 584 500 629 c 1,3,-1
 500 630 l 1,4,5
 435 741 435 741 376 741 c 2,6,-1
 375 741 l 2,7,8
 288 740 288 740 202 609 c 1,9,-1
 207 591 l 1,10,11
 343 513 343 513 566 416 c 1,12,-1
 584 432 l 1,0,1
691 240 m 1,13,-1
 724 239 l 1,14,-1
 724 0 l 1,15,-1
 -100 0 l 1,16,-1
 -100 240 l 1,17,-1
 398 239 l 1,18,-1
 472 239 l 1,19,-1
 476 266 l 1,20,21
 385 291 385 291 324.5 319 c 128,-1,22
 264 347 264 347 226 371 c 0,23,24
 122 436 122 436 122 508 c 2,25,-1
 122 510 l 2,26,27
 122 577 122 577 228 734 c 256,28,29
 335 893 335 893 402 893 c 2,30,-1
 405 893 l 2,31,32
 489 893 489 893 572 761 c 0,33,34
 672 604 672 604 675 390 c 2,35,-1
 677 254 l 1,36,-1
 691 240 l 1,13,-1
EndSplineSet
EndChar

StartChar: uni0642.base
Encoding: 65556 -1 280
Width: 1360
Flags: W
LayerCount: 2
Fore
SplineSet
1184 263 m 1,0,1
 1113 470 1113 470 971 470 c 0,2,3
 892 470 892 470 844 355 c 1,4,-1
 844 345 l 1,5,6
 857 317 857 317 883 295 c 0,7,8
 956 233 956 233 1087 233 c 0,9,10
 1141 233 1141 233 1176 246 c 1,11,-1
 1184 263 l 1,0,1
1335 82 m 0,12,13
 1335 22 1335 22 1326 -40.5 c 128,-1,14
 1317 -103 1317 -103 1300 -169 c 0,15,16
 1244 -361 1244 -361 1045 -493 c 0,17,18
 856 -616 856 -616 645 -616 c 0,19,20
 185 -616 185 -616 185 -157 c 0,21,22
 185 125 185 125 310 322 c 1,23,-1
 312 322 l 1,24,25
 241 126 241 126 241 -17 c 0,26,27
 241 -191 241 -191 350 -288 c 0,28,29
 453 -381 453 -381 628 -381 c 0,30,31
 871 -381 871 -381 1104 -247 c 1,32,-1
 1105 -247 l 1,33,34
 1202 -192 1202 -192 1248 -134 c 1,35,-1
 1251 -126 l 1,36,37
 1250 -103 1250 -103 1246.5 -72 c 128,-1,38
 1243 -41 1243 -41 1236 4 c 1,39,-1
 1221 15 l 1,40,41
 1130 2 1130 2 1050 2 c 0,42,43
 730 2 730 2 730 237 c 0,44,45
 730 347 730 347 814 523 c 0,46,47
 916 730 916 730 1055 730 c 0,48,49
 1153 730 1153 730 1227 611 c 0,50,51
 1335 441 1335 441 1335 82 c 0,12,13
EndSplineSet
EndChar

StartChar: uni0646.base
Encoding: 65557 -1 298
Width: 1173
Flags: W
LayerCount: 2
Fore
SplineSet
1146 91 m 128,-1,1
 1146 -190 1146 -190 1048 -309 c 0,2,3
 997 -371 997 -371 796 -447 c 0,4,5
 639 -505 639 -505 507 -506 c 0,6,7
 338 -506 338 -506 257 -379 c 0,8,9
 184 -264 184 -264 184 -86 c 0,10,11
 184 -26 184 -26 196 37 c 0,12,13
 209 109 209 109 229 169 c 0,14,15
 275 305 275 305 346 400 c 0,16,17
 350 404 350 404 354 408 c 0,18,19
 361 415 361 415 353 397 c 1,20,21
 240 165 240 165 240 2 c 0,22,23
 240 -128 240 -128 311 -205 c 0,24,25
 383 -283 383 -283 511 -283 c 0,26,27
 788 -283 788 -283 1030 -125 c 1,28,-1
 1036 -114 l 1,29,30
 1036 152 1036 152 907 320 c 1,31,32
 944 381 944 381 967.5 420 c 128,-1,33
 991 459 991 459 1004 481 c 128,-1,34
 1017 503 1017 503 1022.5 512.5 c 128,-1,35
 1028 522 1028 522 1029 525 c 1,36,0
 1146 372 1146 372 1146 91 c 128,-1,1
EndSplineSet
EndChar

StartChar: farsikaf.isol.base
Encoding: 65558 -1 312
Width: 1242
Flags: W
LayerCount: 2
Fore
SplineSet
432 238 m 1,0,-1
 974 238 l 2,1,2
 998 238 998 238 998 262 c 1,3,4
 957 301 957 301 912 336 c 0,5,6
 810 416 810 416 454 632 c 1,7,8
 450 636 450 636 458 680 c 0,9,10
 466 720 466 720 472 730 c 0,11,12
 492 756 492 756 564 795 c 0,13,14
 714 878 714 878 992 980 c 0,15,16
 1106 1022 1106 1022 1172 1036 c 1,17,18
 1170 1020 1170 1020 1160 982 c 128,-1,19
 1150 944 1150 944 1132 884 c 1,20,21
 1039 854 1039 854 984 836 c 0,22,23
 788 772 788 772 674 712 c 1,24,-1
 674 688 l 1,25,26
 786 630 786 630 970 492 c 24,27,28
 1192 326 1192 326 1192 262 c 0,29,30
 1192 159 1192 159 1183 90.5 c 128,-1,31
 1174 22 1174 22 1158 4 c 0,32,33
 1154 0 1154 0 1128 0 c 2,34,-1
 346 0 l 2,35,36
 223 0 223 0 156 58 c 0,37,38
 -16 204 -16 204 146 519 c 1,39,40
 176 560 176 560 164 519 c 1,41,42
 74 238 74 238 432 238 c 1,0,-1
EndSplineSet
EndChar

StartChar: farsikaf.fina.base
Encoding: 65559 -1 313
Width: 1193
Flags: W
LayerCount: 2
Fore
SplineSet
432 238 m 1,0,-1
 993 240 l 1,1,-1
 1002 263 l 1,2,3
 893 364 893 364 457 633 c 1,4,5
 453 633 453 633 461 680 c 0,6,7
 468 720 468 720 475 730 c 0,8,9
 491 754 491 754 568 796 c 0,10,11
 640 836 640 836 773 892 c 0,12,13
 958 971 958 971 1163 1034 c 2,14,-1
 1176 1038 l 1,15,16
 1173 1021 1173 1021 1162.5 982.5 c 128,-1,17
 1152 944 1152 944 1135 884 c 1,18,19
 803 777 803 777 678 713 c 1,20,-1
 678 689 l 1,21,22
 790 630 790 630 973 492 c 24,23,24
 1197 323 1197 323 1195 262 c 2,25,-1
 1193 212 l 1,26,-1
 1193 1 l 1,27,-1
 346 0 l 2,28,29
 223 0 223 0 156 58 c 0,30,31
 -16 204 -16 204 146 519 c 1,32,33
 176 560 176 560 164 519 c 1,34,35
 74 236 74 236 432 238 c 1,0,-1
EndSplineSet
EndChar

StartChar: gafdash
Encoding: 65560 -1 319
Width: 867
Flags: W
LayerCount: 2
Fore
SplineSet
802 1206 m 0,0,1
 401 1089 401 1089 82 906 c 24,2,-1
 88 984 l 0,3,4
 406 1182 406 1182 829 1296 c 24,5,-1
 802 1206 l 0,0,1
EndSplineSet
EndChar

StartChar: uni063306CC.isol
Encoding: 64763 64763 320
Width: 2420
Flags: W
AnchorPoint: "AboveLig" 1870 853 baselig 0
AnchorPoint: "AboveLig" 620 817 baselig 1
AnchorPoint: "BelowLig" 1807 -221 baselig 0
AnchorPoint: "BelowLig" 623 -871 baselig 1
LayerCount: 2
Fore
SplineSet
2306 44 m 1,0,1
 2304 -2 2304 -2 2155 -2 c 0,2,3
 2040 -2 2040 -2 1938 29 c 1,4,-1
 1937 30 l 1,5,6
 1831 59 1831 59 1776 90 c 1,7,-1
 1761 88 l 1,8,9
 1711 38 1711 38 1660 23 c 0,10,11
 1560 -8 1560 -8 1478 -6 c 0,12,13
 1237 1 1237 1 1148 297 c 0,14,15
 1109 425 1109 425 904 292 c 24,16,17
 837 249 837 249 778 149 c 1,18,-1
 781 132 l 1,19,20
 1232 -24 l 1,21,-1
 1232 -35 l 2,22,23
 1232 -72 1232 -72 1219 -152 c 0,24,25
 1201 -255 1201 -255 1190 -266 c 0,26,27
 1128 -328 1128 -328 1062 -378 c 0,28,29
 743 -618 743 -618 482 -616 c 0,30,31
 96 -612 96 -612 101 -184 c 1,32,33
 123 106 123 106 280 334 c 1,34,35
 305 360 305 360 287 328 c 0,36,37
 156 96 156 96 166 -56 c 1,38,39
 186 -382 186 -382 541 -382 c 0,40,41
 827 -382 827 -382 1073 -211 c 1,42,-1
 1072 -188 l 1,43,44
 1068 -186 1068 -186 835 -110 c 0,45,46
 660 -53 660 -53 660 -10 c 0,47,48
 660 155 660 155 845 362 c 0,49,50
 1033 573 1033 573 1194 573 c 0,51,52
 1296 573 1296 573 1314 423 c 16,53,54
 1331 282 1331 282 1430 252 c 0,55,56
 1501 229 1501 229 1651 242 c 0,57,58
 1707 247 1707 247 1733 258 c 1,59,-1
 1740 264 l 1,60,61
 1759 301 1759 301 1759 345 c 0,62,63
 1759 392 1759 392 1746 417 c 1,64,-1
 1891 574 l 1,65,66
 1897 559 1897 559 1897 508 c 0,67,68
 1897 454 1897 454 1884.5 401 c 128,-1,69
 1872 348 1872 348 1848 294 c 1,70,-1
 1852 278 l 1,71,72
 1935 216 1935 216 2076 216 c 0,73,74
 2161 216 2161 216 2189 241 c 1,75,-1
 2193 253 l 1,76,77
 2188 358 2188 358 2134 457 c 1,78,-1
 2271 616 l 1,79,80
 2349 348 2349 348 2306 44 c 1,0,1
EndSplineSet
Ligature2: "'liga' Regular Ligatures subtable" uni0633.init uni06CC.fina
Ligature2: "'liga' Regular Ligatures subtable" uni0633.init uni0649.fina
EndChar

StartChar: uni063506CC.isol
Encoding: 64773 64773 328
Width: 2841
Flags: W
AnchorPoint: "AboveLig" 1887 969 baselig 0
AnchorPoint: "AboveLig" 620 817 baselig 1
AnchorPoint: "BelowLig" 1807 -221 baselig 0
AnchorPoint: "BelowLig" 623 -871 baselig 1
LayerCount: 2
Fore
SplineSet
2633 293 m 0,0,1
 2633 338 2633 338 2524 402 c 1,2,3
 2399 474 2399 474 2286 474 c 0,4,5
 2162 474 2162 474 2071 405 c 2,6,-1
 1885 265 l 1,7,-1
 1892 241 l 1,8,9
 2150 225 2150 225 2303 225 c 0,10,11
 2407 225 2407 225 2502 237 c 1,12,13
 2633 257 2633 257 2633 293 c 0,0,1
1148 297 m 0,14,15
 1109 425 1109 425 904 292 c 0,16,17
 837 249 837 249 778 149 c 1,18,-1
 781 132 l 1,19,-1
 1232 -24 l 1,20,-1
 1232 -35 l 2,21,22
 1232 -72 1232 -72 1219 -152 c 0,23,24
 1201 -255 1201 -255 1190 -266 c 0,25,26
 1127 -328 1127 -328 1062 -378 c 0,27,28
 743 -618 743 -618 482 -616 c 0,29,30
 96 -612 96 -612 101 -184 c 1,31,32
 123 106 123 106 280 334 c 1,33,34
 305 360 305 360 287 328 c 0,35,36
 156 97 156 97 166 -56 c 0,37,38
 187 -382 187 -382 541 -382 c 0,39,40
 827 -382 827 -382 1073 -211 c 1,41,-1
 1072 -188 l 1,42,43
 1068 -186 1068 -186 835 -110 c 0,44,45
 660 -53 660 -53 660 -10 c 0,46,47
 660 155 660 155 845 362 c 0,48,49
 1033 573 1033 573 1194 573 c 0,50,51
 1296 573 1296 573 1314 423 c 0,52,-1
 1314 423 l 0,53,54
 1331 283 1331 283 1430 252 c 0,55,56
 1498 231 1498 231 1631 240 c 1,57,58
 1753 261 1753 261 1860 362 c 1,59,-1
 2108 586 l 2,60,61
 2240 705 2240 705 2350 705 c 0,62,63
 2435 705 2435 705 2571 611 c 0,64,65
 2706 518 2706 518 2727 462 c 0,66,67
 2741 425 2741 425 2741 351 c 0,68,69
 2741 90 2741 90 2614 38 c 0,70,71
 2514 -3 2514 -3 2233 -3 c 0,72,73
 1930 -4 1930 -4 1750 -2 c 0,74,75
 1551 0 1551 0 1478 2 c 0,76,77
 1236 10 1236 10 1148 297 c 0,78,-1
 1148 297 l 0,14,15
EndSplineSet
Ligature2: "'liga' Regular Ligatures subtable" uni0635.init uni06CC.fina
Ligature2: "'liga' Regular Ligatures subtable" uni0635.init uni0649.fina
EndChar

StartChar: baa_yaa.base
Encoding: 65561 -1 346
Width: 1560
Flags: W
AnchorPoint: "AboveLig" 1170 1018 baselig 0
AnchorPoint: "AboveLig" 530 817 baselig 1
AnchorPoint: "BelowLig" 1188 -572 baselig 0
AnchorPoint: "BelowLig" 623 -871 baselig 1
LayerCount: 2
Fore
SplineSet
1560 -0 m 1,0,1
 1519 0 1519 0 1478 0 c 0,2,3
 1236 7 1236 7 1148 297 c 0,4,5
 1109 425 1109 425 904 292 c 24,6,7
 837 249 837 249 778 149 c 1,8,-1
 781 132 l 1,9,10
 822 100 822 100 1041 39 c 1,11,12
 1231 -11 1231 -11 1232 -24 c 1,13,-1
 1232 -35 l 2,14,15
 1232 -72 1232 -72 1219 -152 c 0,16,17
 1201 -255 1201 -255 1190 -266 c 0,18,19
 1128 -328 1128 -328 1062 -378 c 0,20,21
 994 -430 994 -430 915 -478 c 1,22,23
 684 -616 684 -616 482 -616 c 0,24,25
 293 -616 293 -616 194 -492 c 1,26,27
 88 -365 88 -365 101 -184 c 0,28,29
 122 114 122 114 258 307 c 0,30,31
 270 324 270 324 280 334 c 0,32,33
 297 354 297 354 287 328 c 0,34,35
 282 314 282 314 271 297 c 1,36,-1
 270 297 l 1,37,38
 166 97 166 97 166 -56 c 0,39,40
 166 -212 166 -212 280 -301 c 0,41,42
 384 -382 384 -382 541 -382 c 0,43,44
 827 -382 827 -382 1073 -211 c 1,45,-1
 1072 -188 l 1,46,47
 1068 -186 1068 -186 1030 -174 c 2,48,-1
 835 -110 l 2,49,50
 660 -53 660 -53 660 -10 c 0,51,52
 660 155 660 155 845 362 c 0,53,54
 1033 573 1033 573 1194 573 c 0,55,56
 1296 573 1296 573 1314 423 c 16,57,58
 1331 285 1331 285 1430 252 c 0,59,60
 1477 236 1477 236 1560 237 c 1,61,62
 1560 -0 l 1,0,1
EndSplineSet
EndChar

StartChar: uni06F4
Encoding: 1780 1780 365
Width: 900
Flags: W
LayerCount: 2
Fore
SplineSet
627 1007 m 0,0,1
 444 1007 444 1007 444 857 c 0,2,3
 444 724 444 724 623 723 c 0,4,5
 731 723 731 723 806 783 c 0,6,7
 831 804 831 804 831 759 c 1,8,9
 736 586 736 586 562 569 c 0,10,11
 482 561 482 561 389 624 c 1,12,13
 446 417 446 417 443 156 c 0,14,15
 442 53 442 53 404 -108 c 0,16,17
 398 -132 398 -132 374 -132 c 0,18,19
 352 -132 352 -132 338 58 c 0,20,21
 312 418 312 418 69 905 c 1,22,23
 118 1023 118 1023 170 1091 c 1,24,25
 245 1005 245 1005 313 857 c 1,26,27
 367 1124 367 1124 595 1124 c 0,28,29
 696 1124 696 1124 755 1018 c 0,30,31
 772 987 772 987 737 992 c 2,32,-1
 627 1007 l 0,0,1
EndSplineSet
EndChar

StartChar: uni06F5
Encoding: 1781 1781 366
Width: 900
Flags: W
LayerCount: 2
Fore
SplineSet
598 678 m 0,0,1
 504 848 504 848 433 843 c 0,2,3
 347 837 347 837 286 682 c 0,4,5
 217 510 217 510 223 413 c 0,6,7
 237 126 237 126 450 374 c 1,8,9
 526 203 526 203 663 247 c 0,10,11
 726 267 726 267 716 347 c 0,12,13
 698 500 698 500 598 678 c 0,0,1
815 276 m 0,14,15
 783 143 783 143 731 81 c 24,16,17
 555 -135 555 -135 401 127 c 1,18,19
 265 -86 265 -86 126 40 c 0,20,21
 63 98 63 98 63 250 c 0,22,23
 63 486 63 486 226 783 c 0,24,25
 386 1071 386 1071 487 1071 c 0,26,27
 569 1071 569 1071 666 935 c 0,28,29
 896 613 896 613 815 276 c 0,14,15
EndSplineSet
EndChar

StartChar: uni06F6
Encoding: 1782 1782 367
Width: 900
Flags: W
LayerCount: 2
Fore
SplineSet
773 807 m 1,0,1
 414 393 414 393 309 50 c 0,2,3
 238 -155 238 -155 219 -126 c 0,4,5
 188 -78 188 -78 237 151 c 24,6,7
 277 337 277 337 373 553 c 1,8,9
 243 554 243 554 206 600 c 0,10,11
 149 673 149 673 131 849 c 0,12,13
 111 1040 111 1040 186 1098 c 0,14,15
 324 1206 324 1206 519 1145 c 0,16,17
 547 1135 547 1135 534 1125 c 0,18,19
 530 1122 530 1122 529 1122 c 0,20,21
 401 1074 401 1074 358 1041 c 0,22,23
 306 1000 306 1000 281 920 c 0,24,25
 261 856 261 856 268 778 c 1,26,27
 380 739 380 739 495 778 c 1,28,-1
 735 1018 l 1,29,-1
 773 807 l 1,0,1
EndSplineSet
EndChar

StartChar: uni06F2
Encoding: 1778 1778 370
Width: 900
VWidth: 2371
Flags: W
LayerCount: 2
Fore
SplineSet
416 657 m 1,0,1
 534 108 534 108 465 -108 c 0,2,3
 434 -202 434 -202 419 -90 c 1,4,5
 370 426 370 426 130 905 c 1,6,7
 179 1023 179 1023 231 1091 c 1,8,9
 336 955 336 955 347 948 c 0,10,11
 479 857 479 857 609 933 c 0,12,13
 675 972 675 972 729 1101 c 0,14,15
 752 1155 752 1155 766 1094 c 0,16,17
 773 1065 773 1065 769 1011 c 0,18,19
 757 767 757 767 615 690 c 0,20,21
 536 647 536 647 416 657 c 1,0,1
EndSplineSet
EndChar

StartChar: uni0670
Encoding: 1648 1648 377
Width: 0
VWidth: 2372
Flags: W
AnchorPoint: "Above" 108 536 mark 0
LayerCount: 2
Fore
SplineSet
131 616 m 0,0,1
 121 587 121 587 106 585 c 0,2,3
 88 584 88 584 86 616 c 0,4,5
 75 832 75 832 -32 982 c 0,6,7
 -46 1002 -46 1002 -28 1022 c 0,8,9
 17 1072 17 1072 55 1122 c 0,10,11
 80 1154 80 1154 96 1114 c 0,12,13
 206 839 206 839 131 616 c 0,0,1
EndSplineSet
EndChar

StartChar: uni06330631.isol
Encoding: 65580 -1 382
Width: 2162
Flags: W
AnchorPoint: "AboveLig" 200 932 baselig 1
AnchorPoint: "AboveLig" 1612 853 baselig 0
AnchorPoint: "BelowLig" 1549 -221 baselig 0
AnchorPoint: "BelowLig" 356 -635 baselig 1
LayerCount: 2
Fore
SplineSet
705 168 m 1,0,1
 713 106 713 106 720 45 c 0,2,3
 730 -40 730 -40 692 -190 c 0,4,5
 664 -300 664 -300 605 -403 c 0,6,7
 469 -637 469 -637 269 -637 c 0,8,9
 178 -637 178 -637 63 -528 c 0,10,11
 12 -480 12 -480 -25 -431 c 128,-1,12
 -62 -382 -62 -382 -85 -328 c 1,13,-1
 -85 -327 l 1,14,15
 -98 -300 -98 -300 -100 -289 c 1,16,17
 -95 -291 -95 -291 -87.5 -295 c 128,-1,18
 -80 -299 -80 -299 -70 -306 c 0,19,20
 -3 -352 -3 -352 65.5 -375.5 c 128,-1,21
 134 -399 134 -399 209 -399 c 0,22,23
 353 -399 353 -399 472 -292 c 0,24,25
 578 -195 578 -195 621 -48 c 1,26,-1
 621 -40 l 1,27,28
 598 23 598 23 566 73 c 128,-1,29
 534 123 534 123 477 204 c 1,30,31
 588 318 588 318 741 405 c 0,32,33
 894 492 894 492 1038 507 c 1,34,35
 1053 417 1053 417 1086 330 c 0,36,37
 1139 190 1139 190 1338 213 c 0,38,39
 1399 220 1399 220 1475 258 c 1,40,-1
 1482 264 l 1,41,42
 1501 301 1501 301 1501 345 c 0,43,44
 1501 392 1501 392 1488 417 c 1,45,-1
 1633 574 l 1,46,47
 1639 559 1639 559 1639 508 c 0,48,49
 1639 454 1639 454 1626.5 401 c 128,-1,50
 1614 348 1614 348 1590 294 c 1,51,-1
 1594 278 l 1,52,53
 1677 216 1677 216 1818 216 c 0,54,55
 1903 216 1903 216 1931 241 c 1,56,-1
 1935 253 l 1,57,58
 1930 358 1930 358 1876 457 c 1,59,-1
 2013 616 l 1,60,61
 2059 537 2059 537 2059 281 c 2,62,-1
 2059 245 l 2,63,64
 2059 241 2059 241 2062 244 c 1,65,-1
 2058 236 l 1,66,-1
 2048 44 l 2,67,68
 2046 -2 2046 -2 1897 -2 c 0,69,70
 1782 -2 1782 -2 1680 29 c 1,71,-1
 1679 30 l 1,72,73
 1573 59 1573 59 1518 90 c 1,74,-1
 1503 88 l 1,75,76
 1453 38 1453 38 1402 23 c 0,77,78
 1298 -8 1298 -8 1220 -6 c 0,79,80
 999 1 999 1 950 219 c 0,81,82
 948 224 948 224 936 279 c 1,83,84
 792 249 792 249 705 168 c 1,0,1
EndSplineSet
Ligature2: "'liga' Regular Ligatures subtable" uni0633.init uni0631.fina
EndChar

StartChar: uni06350631.isol
Encoding: 65586 -1 388
Width: 2583
Flags: W
AnchorPoint: "AboveLig" 200 932 baselig 1
AnchorPoint: "AboveLig" 1687 969 baselig 0
AnchorPoint: "BelowLig" 1549 -221 baselig 0
AnchorPoint: "BelowLig" 356 -635 baselig 1
LayerCount: 2
Fore
SplineSet
2375 293 m 0,0,1
 2375 338 2375 338 2266 402 c 0,2,3
 2205 437 2205 437 2145.5 455.5 c 128,-1,4
 2086 474 2086 474 2028 474 c 0,5,6
 1904 474 1904 474 1813 405 c 2,7,8
 1750 357 l 1,9,-1
 1627 265 l 1,10,-1
 1634 241 l 1,11,12
 1763 233 1763 233 1862.5 229 c 128,-1,13
 1962 225 1962 225 2045 225 c 2,14,-1
 2096 225 l 1,15,16
 2165 227 2165 227 2244 237 c 1,17,18
 2375 257 2375 257 2375 293 c 0,0,1
1492 -2 m 24,19,20
 1333 -9 1333 -9 1220 -6 c 0,21,22
 1006 0 1006 0 950 219 c 0,23,24
 948 224 948 224 936 279 c 1,25,26
 792 249 792 249 705 168 c 1,27,28
 713 106 713 106 720 45 c 0,29,30
 730 -40 730 -40 692 -190 c 0,31,32
 664 -300 664 -300 605 -403 c 0,33,34
 469 -637 469 -637 269 -637 c 0,35,36
 178 -637 178 -637 63 -528 c 0,37,38
 12 -480 12 -480 -25 -431 c 128,-1,39
 -62 -382 -62 -382 -85 -328 c 1,40,-1
 -85 -327 l 1,41,42
 -98 -300 -98 -300 -100 -289 c 1,43,44
 -95 -291 -95 -291 -87.5 -295 c 128,-1,45
 -80 -299 -80 -299 -70 -306 c 0,46,47
 -3 -352 -3 -352 65.5 -375.5 c 128,-1,48
 134 -399 134 -399 209 -399 c 0,49,50
 355 -399 355 -399 472 -292 c 0,51,52
 578 -195 578 -195 621 -48 c 1,53,-1
 621 -40 l 1,54,55
 598 23 598 23 566 73 c 128,-1,56
 534 123 534 123 477 204 c 1,57,58
 588 318 588 318 741 405 c 0,59,60
 894 492 894 492 1038 507 c 1,61,62
 1053 417 1053 417 1086 330 c 0,63,64
 1131 212 1131 212 1338 235 c 1,65,66
 1489 234 1489 234 1602 362 c 1,67,-1
 1850 586 l 2,68,69
 1982 705 1982 705 2092 705 c 0,70,71
 2177 705 2177 705 2313 611 c 0,72,73
 2448 518 2448 518 2469 462 c 0,74,75
 2483 425 2483 425 2483 351 c 0,76,77
 2483 90 2483 90 2356 38 c 0,78,79
 2256 -3 2256 -3 1975 -3 c 0,80,81
 1672 -4 1672 -4 1492 -2 c 24,19,20
EndSplineSet
Ligature2: "'liga' Regular Ligatures subtable" uni0635.init uni0631.fina
EndChar

StartChar: uni0651064E.liga
Encoding: 65604 -1 406
Width: 0
VWidth: 2264
Flags: W
AnchorPoint: "AboveLig" -32 1330 mark 0
AnchorPoint: "Above" -32 1330 mark 0
LayerCount: 2
Fore
SplineSet
225 2167 m 1,0,1
 214 2068 214 2068 159 2044 c 2,2,-1
 -344 1825 l 1,3,4
 -334 1881 -334 1881 -315 1910 c 0,5,6
 -297 1937 -297 1937 -206 1977 c 2,7,-1
 225 2167 l 1,0,1
EndSplineSet
Refer: 47 1617 N 1 0 0 1 0 0 2
Ligature2: "'liga' Mark Ligatures subtable" uni064E uni0651
Ligature2: "'liga' Mark Ligatures subtable" uni0651 uni064E
EndChar

StartChar: uni06280631.base
Encoding: 65608 -1 410
Width: 1462
Flags: W
LayerCount: 2
Fore
SplineSet
588 640 m 1,0,1
 723 520 723 520 894 542 c 0,2,3
 1041 562 1041 562 1078 760 c 0,4,5
 1088 812 1088 812 1104 812 c 0,6,7
 1130 811 1130 811 1138 764 c 0,8,9
 1206 362 1206 362 1272 292 c 0,10,11
 1317 245 1317 245 1427 232 c 1,12,-1
 1462 233 l 1,13,-1
 1462 1 l 1,14,-1
 1406 0 l 2,15,16
 1201 -4 1201 -4 1140 246 c 0,17,18
 1078 498 1078 498 1070 546 c 1,19,20
 1017 340 1017 340 810 322 c 1,21,22
 799 80 799 80 646 -146 c 0,23,24
 490 -380 490 -380 310 -380 c 0,25,26
 219 -380 219 -380 104 -270 c 0,27,28
 53 -222 53 -222 16 -174 c 0,29,30
 -24 -122 -24 -122 -44 -70 c 24,31,32
 -61 -26 -61 -26 -29 -48 c 0,33,34
 19 -79 19 -79 106 -118 c 0,35,36
 159 -142 159 -142 250 -142 c 0,37,38
 374 -142 374 -142 513 -34 c 0,39,40
 679 94 679 94 718 334 c 1,41,42
 601 352 601 352 538 430 c 1,43,-1
 588 640 l 1,0,1
EndSplineSet
EndChar

StartChar: ben_noon.base
Encoding: 65627 -1 429
Width: 1662
Flags: W
AnchorPoint: "BelowLig" 1154 -196 baselig 0
AnchorPoint: "AboveLig" 1151 1108 baselig 0
AnchorPoint: "BelowLig" 471 -287 baselig 1
AnchorPoint: "AboveLig" 466 1314 baselig 1
LayerCount: 2
Fore
SplineSet
960 322 m 1,0,1
 963 303 963 303 965 255 c 0,2,3
 975 -14 975 -14 867 -145 c 0,4,5
 814 -209 814 -209 615 -283 c 0,6,7
 458 -341 458 -341 326 -342 c 0,8,9
 157 -343 157 -343 76 -215 c 0,10,11
 3 -100 3 -100 3 78 c 0,12,13
 2 138 2 138 14 201 c 0,14,15
 27 273 27 273 48 333 c 0,16,17
 94 469 94 469 165 564 c 0,18,19
 183 587 183 587 172 561 c 1,20,21
 59 329 59 329 59 166 c 0,22,23
 59 36 59 36 130 -41 c 0,24,25
 202 -119 202 -119 330 -119 c 0,26,27
 607 -119 607 -119 849 39 c 1,28,-1
 855 50 l 1,29,30
 855 316 855 316 726 484 c 1,31,32
 845 680 845 680 848 689 c 1,33,34
 939 513 939 513 1094 542 c 0,35,36
 1242 570 1242 570 1278 760 c 0,37,38
 1288 812 1288 812 1304 812 c 0,39,40
 1330 811 1330 811 1338 764 c 0,41,42
 1406 362 1406 362 1472 292 c 0,43,44
 1517 245 1517 245 1627 232 c 1,45,-1
 1662 233 l 1,46,-1
 1662 1 l 1,47,-1
 1606 0 l 2,48,49
 1401 -4 1401 -4 1340 246 c 0,50,51
 1278 498 1278 498 1270 546 c 1,52,53
 1218 340 1218 340 960 322 c 1,0,1
EndSplineSet
EndChar

StartChar: uni06440645.init
Encoding: 65634 -1 436
Width: 946
Flags: W
AnchorPoint: "Below" 471 -205 basechar 0
AnchorPoint: "Above" 184 1167 basechar 0
LayerCount: 2
Fore
SplineSet
-46 0 m 1,0,1
 -100 -6 -100 -6 -100 49 c 2,2,-1
 -100 237 l 1,3,4
 333 244 333 244 387 320 c 1,5,6
 336 906 l 2,7,8
 323 1057 323 1057 319 1089 c 1,9,-1
 473 1249 l 1,10,-1
 540 356 l 2,11,12
 768 296 768 296 896 128 c 1,13,14
 896 100 896 100 802 -76 c 1,15,16
 695 44 695 44 542 112 c 1,17,18
 340 -8 340 -8 -46 0 c 1,0,1
EndSplineSet
Ligature2: "'liga' Regular Ligatures (no ignore mark) subtable" uni0644.init uni0645.medi
EndChar

StartChar: uni0627.isol.short
Encoding: 65635 -1 437
Width: 499
Flags: W
LayerCount: 2
Fore
SplineSet
214 4 m 1,0,-1
 218 127 l 0,1,2
 210 345 210 345 170 802 c 1,3,-1
 332 1001 l 1,4,5
 354 637 354 637 377 272 c 1,6,7
 342 112 342 112 214 4 c 1,0,-1
EndSplineSet
EndChar

StartChar: uni0627.fina.short
Encoding: 65636 -1 438
Width: 528
Flags: W
LayerCount: 2
Fore
SplineSet
394 1 m 2,0,1
 237 1 237 1 219 236 c 1,2,-1
 164 849 l 1,3,4
 326 1001 326 1001 329 1002 c 1,5,-1
 360 399 l 2,6,7
 368 237 368 237 496 237 c 2,8,-1
 527 237 l 1,9,-1
 527 1 l 1,10,-1
 394 1 l 2,0,1
EndSplineSet
EndChar

StartChar: lamalefisolated.short
Encoding: 65637 -1 439
Width: 1231
Flags: W
LayerCount: 2
Fore
SplineSet
839 129 m 1,0,1
 847 208 847 208 824 280 c 1,2,-1
 802 284 l 1,3,4
 773 244 773 244 726.5 200 c 128,-1,5
 680 156 680 156 614 107 c 1,6,-1
 623 84 l 1,7,8
 701 90 701 90 828 114 c 1,9,-1
 839 127 l 1,10,-1
 839 129 l 1,0,1
958 1278 m 1,11,12
 989 1223 989 1223 1031.5 1163 c 128,-1,13
 1074 1103 1074 1103 1131 1037 c 1,14,15
 1128 1034 1128 1034 1070 962 c 0,16,17
 1046 932 1046 932 1009 886 c 1,18,-1
 973 901 l 1,19,-1
 954 889 l 1,20,21
 954 591 954 591 867 360 c 1,22,-1
 866 351 l 1,23,24
 898 212 898 212 898 123 c 0,25,26
 898 -30 898 -30 883 -69 c 1,27,28
 868 -78 868 -78 826 -88 c 0,29,30
 660 -127 660 -127 500 -127 c 2,31,-1
 399 -127 l 1,32,33
 429 72 429 72 431 86 c 1,34,35
 624 96 624 96 776 344 c 1,36,-1
 776 359 l 1,37,38
 692 564 692 564 620 636 c 1,39,-1
 601 633 l 1,40,-1
 572 586 l 1,41,42
 383 736 383 736 383 797 c 0,43,44
 383 882 383 882 492 1024 c 1,45,46
 744 764 744 764 810 484 c 1,47,-1
 833 486 l 1,48,49
 873 606 873 606 873 811 c 0,50,51
 873 892 873 892 867 971.5 c 128,-1,52
 861 1051 861 1051 849 1139 c 1,53,54
 868 1160 868 1160 895.5 1194.5 c 128,-1,55
 923 1229 923 1229 958 1278 c 1,11,12
EndSplineSet
EndChar

StartChar: alamaleffinal.short
Encoding: 65638 -1 440
Width: 1326
Flags: W
LayerCount: 2
Fore
SplineSet
1271 1 m 2,0,1
 1153 1 1153 1 1080 145 c 0,2,3
 1051 202 1051 202 1034.5 269 c 128,-1,4
 1018 336 1018 336 1010 414 c 1,5,-1
 985 418 l 1,6,7
 955 332 955 332 894 219 c 0,8,9
 821 83 821 83 776 46 c 0,10,11
 702 -15 702 -15 618 -31 c 0,12,13
 556 -43 556 -43 354 -43 c 0,14,15
 205 -43 205 -43 205 -38 c 0,16,17
 205 -32 205 -32 290 -8 c 0,18,19
 601 83 601 83 713 186 c 1,20,-1
 717 197 l 1,21,22
 739 514 739 514 600 622 c 1,23,24
 560 558 560 558 555 558 c 0,25,26
 534 558 534 558 439 677 c 0,27,28
 368 766 368 766 368 812 c 0,29,30
 368 841 368 841 400 923 c 0,31,32
 443 1033 443 1033 474 1017 c 0,33,34
 814 826 814 826 777 231 c 1,35,36
 885 317 885 317 924 437 c 0,37,38
 951 520 951 520 951 642 c 2,39,-1
 951 665 l 1,40,-1
 943 1074 l 1,41,-1
 1074 1196 l 2,42,43
 1073 1195 1073 1195 1087 630 c 0,44,45
 1097 237 1097 237 1278 237 c 2,46,-1
 1326 237 l 1,47,-1
 1326 1 l 1,48,-1
 1271 1 l 2,0,1
EndSplineSet
EndChar

StartChar: uni200C
Encoding: 8204 8204 441
Width: 0
VWidth: 0
Flags: W
LayerCount: 2
Fore
SplineSet
-30 1638 m 1,0,-1
 30 1638 l 1,1,-1
 30 0 l 1,2,-1
 -30 0 l 1,3,-1
 -30 1638 l 1,0,-1
EndSplineSet
EndChar

StartChar: uni200D
Encoding: 8205 8205 442
Width: 0
VWidth: 0
Flags: W
LayerCount: 2
Fore
SplineSet
-198 1596 m 1,0,-1
 -156 1638 l 1,1,-1
 0 1482 l 1,2,-1
 156 1638 l 1,3,-1
 198 1596 l 1,4,-1
 42 1440 l 1,5,-1
 198 1284 l 1,6,-1
 156 1242 l 1,7,-1
 30 1368 l 1,8,-1
 30 0 l 1,9,-1
 -30 0 l 1,10,-1
 -30 1368 l 1,11,-1
 -156 1242 l 1,12,-1
 -198 1284 l 1,13,-1
 -42 1440 l 1,14,-1
 -198 1596 l 1,0,-1
EndSplineSet
EndChar

StartChar: uni200E
Encoding: 8206 8206 443
Width: 0
VWidth: 0
Flags: W
LayerCount: 2
Fore
SplineSet
-222 0 m 1,0,-1
 -222 1479 l 1,1,-1
 108 1479 l 1,2,-1
 -19 1606 l 1,3,-1
 24 1648 l 1,4,-1
 222 1450 l 1,5,-1
 24 1252 l 1,6,-1
 -19 1294 l 1,7,-1
 106 1419 l 1,8,-1
 -162 1419 l 1,9,-1
 -162 0 l 1,10,-1
 -222 0 l 1,0,-1
EndSplineSet
EndChar

StartChar: uni200F
Encoding: 8207 8207 444
Width: 0
VWidth: 0
Flags: W
LayerCount: 2
Fore
SplineSet
222 0 m 1,0,-1
 162 0 l 1,1,-1
 162 1419 l 1,2,-1
 -106 1419 l 1,3,-1
 19 1294 l 1,4,-1
 -24 1252 l 1,5,-1
 -222 1450 l 1,6,-1
 -24 1648 l 1,7,-1
 19 1606 l 1,8,-1
 -108 1479 l 1,9,-1
 222 1479 l 1,10,-1
 222 0 l 1,0,-1
EndSplineSet
EndChar

StartChar: uni202A
Encoding: 8234 8234 445
Width: 0
VWidth: 1479
Flags: W
LayerCount: 2
Fore
SplineSet
-222 1479 m 1,0,-1
 -162 1479 l 1,1,-1
 -162 60 l 1,2,-1
 106 60 l 1,3,-1
 -19 185 l 1,4,-1
 24 227 l 1,5,-1
 222 29 l 1,6,-1
 24 -169 l 1,7,-1
 -19 -127 l 1,8,-1
 108 0 l 1,9,-1
 -222 0 l 1,10,-1
 -222 1479 l 1,0,-1
EndSplineSet
EndChar

StartChar: uni202B
Encoding: 8235 8235 446
Width: 0
VWidth: 1479
Flags: W
LayerCount: 2
Fore
SplineSet
222 1479 m 1,0,-1
 222 0 l 1,1,-1
 -108 0 l 1,2,-1
 19 -127 l 1,3,-1
 -24 -169 l 1,4,-1
 -222 29 l 1,5,-1
 -24 227 l 1,6,-1
 19 185 l 1,7,-1
 -106 60 l 1,8,-1
 162 60 l 1,9,-1
 162 1479 l 1,10,-1
 222 1479 l 1,0,-1
EndSplineSet
EndChar

StartChar: uni202D
Encoding: 8237 8237 447
Width: 0
VWidth: 1479
Flags: W
LayerCount: 2
Fore
SplineSet
108 0 m 1,0,-1
 -222 0 l 1,1,-1
 -222 1479 l 1,2,-1
 108 1479 l 1,3,-1
 -19 1606 l 1,4,-1
 24 1648 l 1,5,-1
 222 1450 l 1,6,-1
 24 1252 l 1,7,-1
 -19 1294 l 1,8,-1
 106 1419 l 1,9,-1
 -162 1419 l 1,10,-1
 -162 60 l 1,11,-1
 106 60 l 1,12,-1
 -19 185 l 1,13,-1
 24 227 l 1,14,-1
 222 29 l 1,15,-1
 24 -169 l 1,16,-1
 -19 -127 l 1,17,-1
 108 0 l 1,0,-1
EndSplineSet
EndChar

StartChar: uni202E
Encoding: 8238 8238 448
Width: 0
VWidth: 1479
Flags: W
LayerCount: 2
Fore
SplineSet
-108 1479 m 1,0,-1
 222 1479 l 1,1,-1
 222 0 l 1,2,-1
 -108 0 l 1,3,-1
 19 -127 l 1,4,-1
 -24 -169 l 1,5,-1
 -222 29 l 1,6,-1
 -24 227 l 1,7,-1
 19 185 l 1,8,-1
 -106 60 l 1,9,-1
 162 60 l 1,10,-1
 162 1419 l 1,11,-1
 -106 1419 l 1,12,-1
 19 1294 l 1,13,-1
 -24 1252 l 1,14,-1
 -222 1450 l 1,15,-1
 -24 1648 l 1,16,-1
 19 1606 l 1,17,-1
 -108 1479 l 1,0,-1
EndSplineSet
EndChar

StartChar: uni202C
Encoding: 8236 8236 449
Width: 0
VWidth: 0
Flags: W
LayerCount: 2
Fore
SplineSet
0 1638 m 1,0,-1
 198 1440 l 1,1,-1
 156 1398 l 1,2,-1
 30 1524 l 1,3,-1
 30 60 l 1,4,-1
 200 60 l 1,5,-1
 200 0 l 1,6,-1
 -200 0 l 1,7,-1
 -200 60 l 1,8,-1
 -30 60 l 1,9,10
 -30 792 -30 792 -30 1524 c 1,11,-1
 -156 1398 l 1,12,-1
 -198 1440 l 1,13,-1
 0 1638 l 1,0,-1
EndSplineSet
EndChar

StartChar: uni065A
Encoding: 1626 1626 451
Width: 0
Flags: W
AnchorPoint: "Above" 0 1533 mark 0
LayerCount: 2
Fore
SplineSet
-164 1793 m 1,0,-1
 0 1566 l 1,1,-1
 164 1794 l 1,2,-1
 284 1794 l 1,3,-1
 80 1454 l 1,4,-1
 -80 1454 l 1,5,-1
 -283 1793 l 1,6,-1
 -164 1793 l 1,0,-1
EndSplineSet
EndChar

StartChar: verticaltwodots
Encoding: 65639 -1 463
Width: 734
Flags: W
LayerCount: 2
Fore
SplineSet
362 204 m 25,0,-1
 498 89 l 1,1,-1
 372 -52 l 1,2,-1
 238 58 l 1,3,-1
 362 204 l 25,0,-1
360 -116 m 25,4,-1
 496 -231 l 1,5,-1
 370 -372 l 1,6,-1
 236 -262 l 1,7,-1
 360 -116 l 25,4,-1
EndSplineSet
EndChar

StartChar: uni06D00646.fina
Encoding: 65655 -1 483
Width: 1462
Flags: W
AnchorPoint: "BelowLig" 925 -663 baselig 0
AnchorPoint: "AboveLig" 951 1108 baselig 0
AnchorPoint: "BelowLig" 271 -287 baselig 1
AnchorPoint: "AboveLig" 266 1314 baselig 1
LayerCount: 2
Fore
SplineSet
760 322 m 1,0,1
 763 303 763 303 765 255 c 0,2,3
 775 -14 775 -14 667 -145 c 0,4,5
 614 -209 614 -209 415 -283 c 0,6,7
 258 -341 258 -341 126 -342 c 0,8,9
 -43 -343 -43 -343 -124 -215 c 0,10,11
 -197 -100 -197 -100 -197 78 c 0,12,13
 -198 138 -198 138 -186 201 c 0,14,15
 -173 273 -173 273 -152 333 c 0,16,17
 -106 469 -106 469 -35 564 c 0,18,19
 -17 587 -17 587 -28 561 c 1,20,21
 -141 329 -141 329 -141 166 c 0,22,23
 -141 36 -141 36 -70 -41 c 0,24,25
 2 -119 2 -119 130 -119 c 0,26,27
 407 -119 407 -119 649 39 c 1,28,-1
 655 50 l 1,29,30
 655 316 655 316 526 484 c 1,31,32
 645 680 645 680 648 689 c 1,33,34
 739 513 739 513 894 542 c 0,35,36
 1042 570 1042 570 1078 760 c 0,37,38
 1088 812 1088 812 1104 812 c 0,39,40
 1130 811 1130 811 1138 764 c 0,41,42
 1206 362 1206 362 1272 292 c 0,43,44
 1317 245 1317 245 1427 232 c 1,45,-1
 1462 233 l 1,46,-1
 1462 1 l 1,47,-1
 1406 0 l 2,48,49
 1201 -4 1201 -4 1140 246 c 0,50,51
 1078 498 1078 498 1070 546 c 1,52,53
 1018 340 1018 340 760 322 c 1,0,1
EndSplineSet
Refer: 270 -1 N 1 0 0 1 -89 936 2
Refer: 463 -1 N 1 0 0 1 625 -204 2
Ligature2: "'liga' Regular Ligatures subtable" uni06D0.medi uni0646.fina
EndChar

StartChar: uni06BE
Encoding: 1726 1726 484
Width: 1142
Flags: W
AnchorPoint: "Below" 536 -250 basechar 0
AnchorPoint: "Above" 536 1149 basechar 0
LayerCount: 2
Fore
SplineSet
666 395 m 0,0,1
 666 433 666 433 649 475 c 0,2,3
 632 523 632 523 599 523 c 0,4,5
 511 523 511 523 444 444 c 0,6,7
 384 373 384 373 384 300 c 1,8,-1
 395 287 l 1,9,-1
 595 249 l 1,10,-1
 604 251 l 1,11,12
 666 292 666 292 666 395 c 0,0,1
945 146 m 1,13,14
 958 224 958 224 952 246 c 0,15,16
 927 328 927 328 826 364 c 0,17,18
 764 386 764 386 729 457 c 1,19,20
 766 368 766 368 702 243 c 1,21,-1
 708 220 l 1,22,23
 750 212 750 212 792 192.5 c 128,-1,24
 834 173 834 173 927 133 c 1,25,-1
 945 146 l 1,13,14
1042 245 m 0,26,27
 1044 119 1044 119 996 11 c 0,28,29
 959 -73 959 -73 942 -73 c 0,30,31
 871 -73 871 -73 562 84 c 1,32,33
 362 1 362 1 333 1 c 2,34,-1
 168 1 l 2,35,36
 150 1 150 1 135 15.5 c 128,-1,37
 120 30 120 30 120 49 c 1,38,-1
 374 164 l 1,39,-1
 315 251 l 1,40,41
 316 519 316 519 549 630 c 0,42,43
 608 658 608 658 700 644 c 1,44,45
 754 572 754 572 826 538 c 0,46,47
 975 471 975 471 1010 396 c 0,48,49
 1041 332 1041 332 1042 245 c 0,26,27
EndSplineSet
Substitution2: "'init' Initial Forms subtable" uni06BE.init
Substitution2: "'medi' Medial Forms subtable" uni06BE.medi
Substitution2: "'fina' Terminal Forms subtable" uni06BE.fina
EndChar

StartChar: uni06BE.fina
Encoding: 64427 64427 486
Width: 1142
Flags: W
AnchorPoint: "Below" 617 -745 basechar 0
AnchorPoint: "Above" 617 1063 basechar 0
LayerCount: 2
Fore
SplineSet
745 323 m 1,0,1
 745 459 745 459 689 563 c 1,2,-1
 669 567 l 1,3,4
 548 461 548 461 494 255 c 1,5,-1
 503 212 l 1,6,7
 629 236 629 236 740 312 c 1,8,-1
 745 323 l 1,0,1
814 -227 m 0,9,10
 814 -118 814 -118 709 -47 c 0,11,12
 617 12 617 12 506 12 c 1,13,-1
 493 -3 l 1,14,15
 502 -60 502 -60 524 -106 c 0,16,17
 604 -278 604 -278 767 -279 c 0,18,19
 814 -279 814 -279 814 -227 c 0,9,10
774 237 m 1,20,-1
 1242 237 l 1,21,-1
 1242 49 l 2,22,23
 1242 30 1242 30 1227 15.5 c 128,-1,24
 1212 1 1212 1 1194 1 c 2,25,-1
 862 1 l 1,26,-1
 852 -20 l 1,27,28
 882 -59 882 -59 886 -100 c 1,29,30
 830 -495 830 -495 752 -495 c 0,31,32
 660 -495 660 -495 556 -391 c 0,33,34
 426 -261 426 -261 392 19 c 1,35,36
 314 -6 314 -6 263 1 c 2,37,-1
 108 21 l 2,38,39
 87 24 87 24 75 36 c 0,40,41
 60 50 60 50 60 79 c 1,42,-1
 428 191 l 1,43,44
 423 280 423 280 459 378 c 0,45,46
 519 544 519 544 627 682 c 0,47,48
 680 750 680 750 738 800 c 0,49,50
 753 813 753 813 760 803 c 0,51,52
 783 770 783 770 808 688 c 0,53,54
 841 580 841 580 841 492 c 0,55,56
 841 340 841 340 761 260 c 1,57,-1
 774 237 l 1,20,-1
EndSplineSet
EndChar

StartChar: uni06BE.init
Encoding: 64428 64428 487
Width: 1142
Flags: W
AnchorPoint: "Above" 666 987 basechar 0
AnchorPoint: "Below" 536 -250 basechar 0
LayerCount: 2
Fore
SplineSet
666 395 m 0,0,1
 666 433 666 433 649 475 c 0,2,3
 632 523 632 523 599 523 c 0,4,5
 511 523 511 523 444 444 c 0,6,7
 384 373 384 373 384 300 c 1,8,-1
 395 287 l 1,9,-1
 595 249 l 1,10,-1
 604 251 l 1,11,12
 666 292 666 292 666 395 c 0,0,1
945 146 m 1,13,14
 958 224 958 224 952 246 c 0,15,16
 927 328 927 328 826 364 c 0,17,18
 764 386 764 386 729 457 c 1,19,20
 766 368 766 368 702 243 c 1,21,-1
 708 220 l 1,22,23
 750 212 750 212 792 192.5 c 128,-1,24
 834 173 834 173 927 133 c 1,25,-1
 945 146 l 1,13,14
334 1 m 2,26,27
 -52 1 l 2,28,29
 -70 1 -70 1 -85 15.5 c 128,-1,30
 -100 30 -100 30 -100 49 c 2,31,-1
 -100 237 l 1,32,-1
 301 237 l 1,33,-1
 315 251 l 1,34,35
 316 519 316 519 549 630 c 0,36,37
 608 658 608 658 700 644 c 1,38,39
 756 570 756 570 826 538 c 0,40,41
 973 472 973 472 1010 396 c 0,42,43
 1041 332 1041 332 1042 245 c 0,44,45
 1044 119 1044 119 996 11 c 0,46,47
 959 -73 959 -73 942 -73 c 0,48,49
 871 -73 871 -73 562 84 c 1,50,51
 349 1 349 1 334 1 c 2,26,27
EndSplineSet
EndChar

StartChar: NameMe.65666
Encoding: 65656 -1 490
Width: 473
Flags: W
LayerCount: 2
Fore
SplineSet
317 74 m 25,0,-1
 212 -18 l 1,1,-1
 139 76 l 1,2,-1
 241 164 l 1,3,-1
 317 74 l 25,0,-1
462 219 m 25,4,-1
 357 127 l 1,5,-1
 284 221 l 1,6,-1
 386 309 l 1,7,-1
 462 219 l 25,4,-1
165 219 m 25,8,-1
 60 127 l 1,9,-1
 -13 221 l 1,10,-1
 89 309 l 1,11,-1
 165 219 l 25,8,-1
EndSplineSet
EndChar

StartChar: NameMe.65664.1
Encoding: 65657 -1 492
Width: 0
VWidth: 2121
Flags: W
LayerCount: 2
Fore
SplineSet
24 1208 m 1,0,1
 8 1194 8 1194 -13 1190 c 0,2,3
 -55 1184 -55 1184 -82 1218 c 0,4,5
 -116 1262 -116 1262 -89 1321 c 0,6,7
 -63 1376 -63 1376 2 1377 c 0,8,9
 72 1376 72 1376 99 1304 c 0,10,11
 107 1281 107 1281 107 1251 c 0,12,13
 107 1200 107 1200 85 1149 c 0,14,15
 66 1107 66 1107 35 1076 c 0,16,17
 -18 1025 -18 1025 -89 1020 c 0,18,19
 -100 1018 -100 1018 -106 1029 c 0,20,21
 -110 1042 -110 1042 -98 1049 c 0,22,23
 -2 1097 -2 1097 20 1161 c 0,24,25
 27 1184 27 1184 24 1208 c 1,0,1
EndSplineSet
EndChar

StartChar: uni0640.alt
Encoding: 65658 -1 498
Width: 800
VWidth: 2681
Flags: W
LayerCount: 2
Fore
SplineSet
-13 239 m 5,0,-1
 813 239 l 5,1,-1
 813 0 l 5,2,-1
 -13 0 l 5,3,-1
 -13 239 l 5,0,-1
EndSplineSet
EndChar
